<svg width="35" height="35" viewBox="0 0 35 35" fill="none" xmlns="http://www.w3.org/2000/svg">
<g clip-path="url(#clip0_983_4897)">
<path d="M24.2194 4.1601L21.5642 2.63886C21.0881 2.36612 20.4803 2.52974 20.2067 3.00431L10.5535 19.748C10.2799 20.2226 10.4441 20.8284 10.9201 21.1012L13.5754 22.6224C14.0515 22.8951 14.6592 22.7315 14.9329 22.2569L24.586 5.51323C24.8597 5.03866 24.6955 4.43284 24.2194 4.1601Z" fill="white"/>
<path d="M0.796365 34.7078C0.630147 34.7058 0.468669 34.6523 0.33439 34.5546C0.200111 34.4569 0.0997055 34.32 0.0471391 34.1628C-0.00542727 34.0056 -0.00754172 33.836 0.0410899 33.6775C0.0897215 33.519 0.186681 33.3796 0.318485 33.2787C0.656187 33.0246 8.62724 27.0635 14.7951 27.5113C16.5473 27.6352 17.7293 28.0957 18.4079 28.9182C19.2171 29.8964 19.0705 31.1 18.975 31.894C18.975 31.9988 18.9463 32.1163 18.9367 32.2116C19.5994 32.0433 20.8706 31.4367 22.0143 30.8936C25.0281 29.4549 28.7811 27.6669 31.7949 27.9178C32.7017 28.0233 33.5952 28.2212 34.4615 28.5085C34.6617 28.5759 34.8269 28.7198 34.9207 28.9086C35.0145 29.0974 35.0293 29.3157 34.9617 29.5153C34.8941 29.7149 34.7497 29.8796 34.5603 29.9731C34.3709 30.0666 34.152 30.0813 33.9517 30.0139C33.2068 29.7705 32.4395 29.6014 31.6611 29.5089C29.0805 29.293 25.3913 31.0524 22.6992 32.3354C20.6635 33.2882 19.4751 33.8535 18.6627 33.8535C18.4749 33.862 18.2875 33.8294 18.1136 33.7581C17.9397 33.6868 17.7835 33.5784 17.656 33.4406C17.2323 32.9642 17.3119 32.3195 17.3884 31.6971C17.4649 31.0746 17.5509 30.3759 17.1749 29.9218C16.799 29.4676 15.9293 29.1913 14.6772 29.0929C9.10512 28.7054 1.35389 34.4887 1.27425 34.5458C1.13678 34.65 0.969062 34.7069 0.796365 34.7078Z" fill="white"/>
<path d="M24.4356 0.608893C23.9123 0.321595 23.3054 0.22346 22.7178 0.331114C22.1303 0.438767 21.5981 0.74559 21.2115 1.1996C21.1666 1.25253 21.1341 1.31476 21.1163 1.38176C21.0986 1.44876 21.096 1.51887 21.1089 1.58698C21.1217 1.65509 21.1495 1.71951 21.1904 1.77555C21.2313 1.8316 21.2842 1.87786 21.3453 1.91099L24.9007 3.94036C24.9607 3.975 25.0276 3.99585 25.0967 4.00138C25.1658 4.00691 25.2352 3.99698 25.3 3.97233C25.3647 3.94767 25.4231 3.90891 25.4709 3.85887C25.5186 3.80883 25.5546 3.74878 25.5761 3.68311C25.7724 3.11829 25.7659 2.50309 25.5579 1.94246C25.3499 1.38183 24.9533 0.910503 24.4356 0.608893Z" fill="white"/>
<path d="M25.2353 5.85489L21.8774 11.6527C21.8088 11.7711 21.8495 11.9226 21.9684 11.991L22.7326 12.4309C22.8515 12.4993 23.0035 12.4587 23.0721 12.3402L26.43 6.54246C26.4986 6.42398 26.4579 6.27248 26.339 6.20407L25.5748 5.76422C25.4559 5.69581 25.304 5.73641 25.2353 5.85489Z" fill="white"/>
<path d="M23.7564 6.03016L23.6601 6.17955C23.5242 6.39024 23.5854 6.67083 23.7967 6.80627L24.7495 7.4168C24.9608 7.55224 25.2423 7.49124 25.3782 7.28056L25.4745 7.13116C25.6104 6.92048 25.5492 6.63988 25.3378 6.50444L24.3851 5.89392C24.1738 5.75848 23.8923 5.81947 23.7564 6.03016Z" fill="white"/>
<path d="M10.3699 26.1904C10.2581 26.2544 10.1313 26.288 10.0024 26.2878C9.87347 26.2876 9.74685 26.2536 9.63522 26.1893C9.52359 26.125 9.43087 26.0325 9.36635 25.9213C9.30183 25.81 9.26777 25.6838 9.26758 25.5552V23.7863V22.0142C9.26745 21.8852 9.30144 21.7584 9.36612 21.6467C9.43081 21.535 9.5239 21.4422 9.63602 21.3778C9.74813 21.3134 9.8753 21.2796 10.0047 21.2798C10.1341 21.28 10.2612 21.3142 10.3731 21.379L11.9087 22.2682L13.4506 23.1575C13.5632 23.2212 13.6569 23.3136 13.7221 23.4252C13.7872 23.5367 13.8215 23.6635 13.8215 23.7926C13.8215 23.9217 13.7872 24.0485 13.7221 24.1601C13.6569 24.2717 13.5632 24.3641 13.4506 24.4278L11.9119 25.3107L10.3699 26.1904Z" fill="white"/>
</g>
<defs>
<clipPath id="clip0_983_4897">
<rect width="35" height="34.4167" fill="white" transform="translate(0 0.291504)"/>
</clipPath>
</defs>
</svg>
