<svg width="15" height="15" viewBox="0 0 15 15" fill="none" xmlns="http://www.w3.org/2000/svg">
<g clip-path="url(#clip0_961_5368)">
<path d="M7.5 0C11.642 0 15 3.35766 15 7.5C15 11.6423 11.642 15 7.5 15C3.35796 15 0 11.642 0 7.5C0 3.35796 3.35766 0 7.5 0Z" fill="#009EA0"/>
<path d="M7.43814 1.3291C10.8205 1.3291 13.5738 4.08212 13.5738 7.46451C13.5738 10.8469 10.8205 13.6005 7.43814 13.6005C4.05575 13.6005 1.30273 10.8469 1.30273 7.46451C1.30273 4.08212 4.05605 1.3291 7.43814 1.3291Z" fill="white"/>
<path d="M8.43088 3.83789H6.32141V7.53512H8.43088V3.83789Z" fill="#009EA0"/>
<path d="M10.3166 10.4926C10.2467 10.4926 10.2111 10.4576 10.1761 10.4224C10.1056 10.3518 10.1056 10.2113 10.1761 10.1054C10.5226 9.75853 10.7974 9.34675 10.9846 8.89362C11.1719 8.44049 11.268 7.95489 11.2675 7.46458C11.2675 6.47875 10.8453 5.52821 10.1408 4.82375C10.0706 4.75348 10.0706 4.61265 10.1408 4.5068C10.2111 4.43654 10.3519 4.43654 10.4578 4.5068C10.8475 4.89465 11.1569 5.35551 11.3683 5.86303C11.5797 6.37055 11.6891 6.91478 11.69 7.46458C11.69 8.59124 11.2678 9.64763 10.4578 10.4224C10.4228 10.4926 10.3522 10.4926 10.3166 10.4926Z" fill="#A4B3C2"/>
<path d="M4.6831 10.4926C4.61283 10.4926 4.57755 10.4576 4.54227 10.4224C4.15264 10.0345 3.84328 9.57359 3.63185 9.06608C3.42042 8.55857 3.31107 8.01437 3.31006 7.46458C3.31006 6.33792 3.73225 5.28153 4.54227 4.5068C4.61283 4.43654 4.75336 4.43654 4.85921 4.5068C4.92948 4.57737 4.92948 4.7179 4.85921 4.82375C4.15998 5.52476 3.76731 6.47446 3.76731 7.46458C3.76731 8.4547 4.15998 9.40441 4.85921 10.1054C4.92948 10.1757 4.92948 10.3165 4.85921 10.4224C4.82514 10.4926 4.75367 10.4926 4.6831 10.4926Z" fill="#A4B3C2"/>
<path d="M10.2283 7.53516L7.37579 11.0915L4.52356 7.53516H10.2283Z" fill="#009EA0"/>
</g>
<defs>
<clipPath id="clip0_961_5368">
<rect width="15" height="15" fill="white"/>
</clipPath>
</defs>
</svg>
