<svg width="35" height="36" viewBox="0 0 35 36" fill="none" xmlns="http://www.w3.org/2000/svg">
<g clip-path="url(#clip0_983_4049)">
<path d="M2.37589 13.5051L4.89844 14.8095L7.42099 16.117L4.83466 18.0304L3.1891 19.2295C3.10472 19.3017 3.00073 19.347 2.89044 19.3597C2.78015 19.3725 2.66856 19.352 2.56995 19.301C2.47134 19.25 2.39019 19.1707 2.33687 19.0734C2.28356 18.976 2.2605 18.8649 2.27065 18.7543L2.30892 16.7133L2.37589 13.5051Z" fill="white"/>
<path d="M12.0387 1.62899C15.0333 1.62899 17.8364 2.42307 19.9317 3.86134C21.8993 5.2135 22.9836 6.97068 22.9836 8.81077C22.9836 10.6509 21.8993 12.408 19.9317 13.7634C17.8364 15.2017 15.0333 15.9957 12.0387 15.9957C9.04419 15.9957 6.23781 15.208 4.14579 13.7634C2.17813 12.408 1.09385 10.6509 1.09385 8.81077C1.09385 6.97068 2.17494 5.2135 4.14579 3.86134C6.241 2.42307 9.04419 1.62899 12.0419 1.62899M12.0419 0.53833C5.38952 0.53833 0 4.24084 0 8.81077C0 13.3807 5.38952 17.0832 12.0387 17.0832C18.6879 17.0832 24.0743 13.3807 24.0743 8.81077C24.0743 4.24084 18.6847 0.53833 12.0387 0.53833H12.0419Z" fill="white"/>
<path d="M4.00548 11.4258C3.36776 10.3676 3.17548 9.09982 3.47077 7.90012C3.76606 6.70043 4.52485 5.66669 5.58088 5.02539L5.78817 5.36981C4.82232 5.95505 4.12811 6.89957 3.85787 7.99608C3.58763 9.09259 3.76343 10.2515 4.34671 11.2186L4.00548 11.4258Z" fill="white"/>
<path d="M11.1809 28.5671L14.4082 29.6801L17.6356 30.7963L14.893 33.507L13.1486 35.2323C13.0609 35.3328 12.9453 35.4049 12.8164 35.4393C12.6875 35.4736 12.5514 35.4688 12.4253 35.4253C12.2992 35.3817 12.189 35.3016 12.1088 35.1951C12.0286 35.0885 11.982 34.9605 11.975 34.8273L11.6561 32.3908L11.1809 28.5671Z" fill="white"/>
<path d="M20.5313 31.0704C28.524 31.0704 35.0033 26.6171 35.0033 21.1237C35.0033 15.6303 28.524 11.177 20.5313 11.177C12.5387 11.177 6.05933 15.6303 6.05933 21.1237C6.05933 26.6171 12.5387 31.0704 20.5313 31.0704Z" fill="white"/>
</g>
<defs>
<clipPath id="clip0_983_4049">
<rect width="35" height="34.9235" fill="white" transform="translate(0 0.53833)"/>
</clipPath>
</defs>
</svg>
