<svg width="35" height="35" viewBox="0 0 35 35" fill="none" xmlns="http://www.w3.org/2000/svg">
<path d="M20.6619 3.54433C18.9691 1.85174 16.8124 0.699119 14.4646 0.232218C12.1167 -0.234683 9.6831 0.00510359 7.47151 0.921257C5.25992 1.83741 3.36966 3.38878 2.03975 5.37921C0.709836 7.36963 0 9.70972 0 12.1036C0 14.4974 0.709836 16.8375 2.03975 18.8279C3.36966 20.8183 5.25992 22.3697 7.47151 23.2859C9.6831 24.202 12.1167 24.4418 14.4646 23.9749C16.8124 23.508 18.9691 22.3554 20.6619 20.6628C21.7864 19.539 22.6784 18.2047 23.287 16.7361C23.8957 15.2675 24.2089 13.6933 24.2089 12.1036C24.2089 10.5138 23.8957 8.93965 23.287 7.47102C22.6784 6.00239 21.7864 4.66808 20.6619 3.54433ZM19.2351 19.236C17.8257 20.6453 16.0301 21.605 14.0753 21.9938C12.1205 22.3826 10.0943 22.183 8.25292 21.4202C6.41155 20.6575 4.8377 19.3658 3.73041 17.7086C2.62312 16.0514 2.0321 14.1031 2.0321 12.11C2.0321 10.1169 2.62312 8.16853 3.73041 6.51132C4.8377 4.85411 6.41155 3.56246 8.25292 2.79971C10.0943 2.03696 12.1205 1.83736 14.0753 2.22615C16.0301 2.61494 17.8257 3.57467 19.2351 4.98396C21.1243 6.87427 22.1856 9.43743 22.1856 12.11C22.1856 14.7825 21.1243 17.3457 19.2351 19.236Z" fill="white"/>
<path d="M20.6297 19.0461L19.0472 20.6286C18.7792 20.8965 18.7792 21.331 19.0472 21.5989L21.7837 24.3355C22.0517 24.6034 22.4861 24.6034 22.7541 24.3355L24.3366 22.753C24.6045 22.485 24.6045 22.0506 24.3366 21.7826L21.6001 19.0461C21.3321 18.7781 20.8977 18.7781 20.6297 19.0461Z" fill="#41C2F4"/>
<path d="M21.2742 24.7316L31.0599 34.514C31.2133 34.6682 31.3957 34.7905 31.5965 34.874C31.7973 34.9574 32.0127 35.0004 32.2302 35.0004C32.4477 35.0004 32.663 34.9574 32.8638 34.874C33.0647 34.7905 33.247 34.6682 33.4005 34.514L34.5131 33.4015C34.6672 33.248 34.7895 33.0657 34.873 32.8648C34.9564 32.664 34.9994 32.4486 34.9994 32.2312C34.9994 32.0137 34.9564 31.7983 34.873 31.5975C34.7895 31.3967 34.6672 31.2143 34.5131 31.0609L24.7306 21.2752C24.6709 21.2141 24.5996 21.1656 24.5209 21.1325C24.4421 21.0993 24.3576 21.0823 24.2721 21.0823C24.1867 21.0823 24.1021 21.0993 24.0234 21.1325C23.9447 21.1656 23.8734 21.2141 23.8136 21.2752L21.2742 23.8146C21.2132 23.8743 21.1646 23.9457 21.1315 24.0244C21.0984 24.1031 21.0813 24.1877 21.0813 24.2731C21.0813 24.3585 21.0984 24.4431 21.1315 24.5218C21.1646 24.6006 21.2132 24.6719 21.2742 24.7316Z" fill="#4ADFBF"/>
<path d="M6.13094 18.0753C4.54951 16.4903 3.66138 14.3426 3.66138 12.1036C3.66138 9.86453 4.54951 7.7169 6.13094 6.13184L6.64395 6.64484C5.19801 8.09355 4.38592 10.0568 4.38592 12.1036C4.38592 14.1504 5.19801 16.1136 6.64395 17.5623L6.13094 18.0753Z" fill="white"/>
</svg>
