<svg width="35" height="33" viewBox="0 0 35 33" fill="none" xmlns="http://www.w3.org/2000/svg">
<g clip-path="url(#clip0_983_5098)">
<path d="M34.2115 32.7616H0.791703C0.580888 32.7616 0.378708 32.6779 0.22964 32.5288C0.0805718 32.3797 -0.00317383 32.1776 -0.00317383 31.9668C-0.00317383 31.7559 0.0805718 31.5538 0.22964 31.4047C0.378708 31.2556 0.580888 31.1719 0.791703 31.1719H34.2115C34.4223 31.1719 34.6245 31.2556 34.7736 31.4047C34.9226 31.5538 35.0064 31.7559 35.0064 31.9668C35.0064 32.1776 34.9226 32.3797 34.7736 32.5288C34.6245 32.6779 34.4223 32.7616 34.2115 32.7616Z" fill="white"/>
<path d="M3.66268 15.2839H8.97564C9.12553 15.2839 9.27396 15.3135 9.41245 15.3708C9.55093 15.4282 9.67677 15.5123 9.78276 15.6183C9.88875 15.7242 9.97283 15.8501 10.0302 15.9886C10.0876 16.1271 10.1171 16.2755 10.1171 16.4254V31.1815H2.52124V16.4254C2.52124 16.1226 2.6415 15.8323 2.85556 15.6183C3.06962 15.4042 3.35995 15.2839 3.66268 15.2839Z" fill="white"/>
<path d="M14.9881 9.18555H20.3043C20.607 9.18555 20.8973 9.30581 21.1114 9.51987C21.3254 9.73393 21.4457 10.0243 21.4457 10.327V31.1845H13.8467V10.327C13.8467 10.1771 13.8762 10.0287 13.9336 9.89018C13.9909 9.75169 14.075 9.62586 14.181 9.51987C14.287 9.41388 14.4128 9.3298 14.5513 9.27243C14.6898 9.21507 14.8382 9.18555 14.9881 9.18555Z" fill="white"/>
<path d="M26.2374 0.238525H31.5503C31.8531 0.238525 32.1434 0.358784 32.3575 0.572846C32.5715 0.786908 32.6918 1.07724 32.6918 1.37997V31.191H25.0959V1.37997C25.0959 1.07724 25.2162 0.786908 25.4303 0.572846C25.6443 0.358784 25.9347 0.238525 26.2374 0.238525Z" fill="white"/>
<path d="M17.8562 12.5973H20.3489C20.4895 12.5952 20.6291 12.6208 20.7597 12.6728C20.8903 12.7247 21.0094 12.802 21.1101 12.9C21.2109 12.9981 21.2912 13.1151 21.3467 13.2443C21.4021 13.3735 21.4315 13.5123 21.4331 13.6529V31.1815H16.772V13.6529C16.7736 13.5123 16.803 13.3735 16.8584 13.2443C16.9139 13.1151 16.9942 12.9981 17.095 12.9C17.1957 12.802 17.3148 12.7247 17.4454 12.6728C17.576 12.6208 17.7156 12.5952 17.8562 12.5973Z" fill="#4ADFBF"/>
<path d="M6.52757 19.3157H9.03302C9.63395 19.3157 10.1172 19.6177 10.1172 19.9897V31.1816H5.44336V19.9961C5.44336 19.6336 5.92982 19.3157 6.52757 19.3157Z" fill="#4ADFBF"/>
<path d="M29.1529 3.82178H31.6743C31.9441 3.82178 32.2029 3.92897 32.3937 4.11978C32.5845 4.31059 32.6917 4.56938 32.6917 4.83922V31.2291H28.1355V4.83922C28.1355 4.70561 28.1618 4.5733 28.2129 4.44986C28.2641 4.32642 28.339 4.21426 28.4335 4.11978C28.528 4.0253 28.6401 3.95036 28.7636 3.89923C28.887 3.84809 29.0193 3.82178 29.1529 3.82178Z" fill="#4ADFBF"/>
</g>
<defs>
<clipPath id="clip0_983_5098">
<rect width="35" height="32.5232" fill="white" transform="translate(0 0.238525)"/>
</clipPath>
</defs>
</svg>
