<svg width="35" height="34" viewBox="0 0 35 34" fill="none" xmlns="http://www.w3.org/2000/svg">
<g clip-path="url(#clip0_983_4058)">
<path d="M34.2115 33.2616H0.791703C0.580888 33.2616 0.378708 33.1779 0.22964 33.0288C0.0805718 32.8797 -0.00317383 32.6776 -0.00317383 32.4668C-0.00317383 32.2559 0.0805718 32.0538 0.22964 31.9047C0.378708 31.7556 0.580888 31.6719 0.791703 31.6719H34.2115C34.4223 31.6719 34.6245 31.7556 34.7736 31.9047C34.9226 32.0538 35.0064 32.2559 35.0064 32.4668C35.0064 32.6776 34.9226 32.8797 34.7736 33.0288C34.6245 33.1779 34.4223 33.2616 34.2115 33.2616Z" fill="white"/>
<path d="M3.66268 15.7839H8.97564C9.12553 15.7839 9.27396 15.8135 9.41245 15.8708C9.55093 15.9282 9.67677 16.0123 9.78276 16.1183C9.88875 16.2242 9.97283 16.3501 10.0302 16.4886C10.0876 16.6271 10.1171 16.7755 10.1171 16.9254V31.6815H2.52124V16.9254C2.52124 16.6226 2.6415 16.3323 2.85556 16.1183C3.06962 15.9042 3.35995 15.7839 3.66268 15.7839Z" fill="white"/>
<path d="M14.9881 9.68555H20.3043C20.607 9.68555 20.8973 9.80581 21.1114 10.0199C21.3254 10.2339 21.4457 10.5243 21.4457 10.827V31.6845H13.8467V10.827C13.8467 10.6771 13.8762 10.5287 13.9336 10.3902C13.9909 10.2517 14.075 10.1259 14.181 10.0199C14.287 9.91388 14.4128 9.8298 14.5513 9.77243C14.6898 9.71507 14.8382 9.68555 14.9881 9.68555Z" fill="white"/>
<path d="M26.2374 0.738525H31.5503C31.8531 0.738525 32.1434 0.858784 32.3575 1.07285C32.5715 1.28691 32.6918 1.57724 32.6918 1.87997V31.691H25.0959V1.87997C25.0959 1.57724 25.2162 1.28691 25.4303 1.07285C25.6443 0.858784 25.9347 0.738525 26.2374 0.738525Z" fill="white"/>
<path d="M17.8562 13.0973H20.3489C20.4895 13.0952 20.6291 13.1208 20.7597 13.1728C20.8903 13.2247 21.0094 13.302 21.1101 13.4C21.2109 13.4981 21.2912 13.6151 21.3467 13.7443C21.4021 13.8735 21.4315 14.0123 21.4331 14.1529V31.6815H16.772V14.1529C16.7736 14.0123 16.803 13.8735 16.8584 13.7443C16.9139 13.6151 16.9942 13.4981 17.095 13.4C17.1957 13.302 17.3148 13.2247 17.4454 13.1728C17.576 13.1208 17.7156 13.0952 17.8562 13.0973Z" fill="#4ADFBF"/>
<path d="M6.52757 19.8157H9.03302C9.63395 19.8157 10.1172 20.1177 10.1172 20.4897V31.6816H5.44336V20.4961C5.44336 20.1336 5.92982 19.8157 6.52757 19.8157Z" fill="#4ADFBF"/>
<path d="M29.1529 4.32178H31.6743C31.9441 4.32178 32.2029 4.42897 32.3937 4.61978C32.5845 4.81059 32.6917 5.06938 32.6917 5.33922V31.7291H28.1355V5.33922C28.1355 5.20561 28.1618 5.0733 28.2129 4.94986C28.2641 4.82642 28.339 4.71426 28.4335 4.61978C28.528 4.5253 28.6401 4.45036 28.7636 4.39923C28.887 4.34809 29.0193 4.32178 29.1529 4.32178Z" fill="#4ADFBF"/>
</g>
<defs>
<clipPath id="clip0_983_4058">
<rect width="35" height="32.5232" fill="white" transform="translate(0 0.738525)"/>
</clipPath>
</defs>
</svg>
