<svg width="35" height="36" viewBox="0 0 35 36" fill="none" xmlns="http://www.w3.org/2000/svg">
<g clip-path="url(#clip0_983_4090)">
<path d="M24.2194 4.6601L21.5642 3.13886C21.0881 2.86612 20.4803 3.02974 20.2067 3.50431L10.5535 20.248C10.2799 20.7226 10.4441 21.3284 10.9201 21.6012L13.5754 23.1224C14.0515 23.3951 14.6592 23.2315 14.9329 22.7569L24.586 6.01323C24.8597 5.53866 24.6955 4.93284 24.2194 4.6601Z" fill="white"/>
<path d="M0.796365 35.2078C0.630147 35.2058 0.468669 35.1523 0.33439 35.0546C0.200111 34.9569 0.0997055 34.82 0.0471391 34.6628C-0.00542727 34.5056 -0.00754172 34.336 0.0410899 34.1775C0.0897215 34.019 0.186681 33.8796 0.318485 33.7787C0.656187 33.5246 8.62724 27.5635 14.7951 28.0113C16.5473 28.1352 17.7293 28.5957 18.4079 29.4182C19.2171 30.3964 19.0705 31.6 18.975 32.394C18.975 32.4988 18.9463 32.6163 18.9367 32.7116C19.5994 32.5433 20.8706 31.9367 22.0143 31.3936C25.0281 29.9549 28.7811 28.1669 31.7949 28.4178C32.7017 28.5233 33.5952 28.7212 34.4615 29.0085C34.6617 29.0759 34.8269 29.2198 34.9207 29.4086C35.0145 29.5974 35.0293 29.8157 34.9617 30.0153C34.8941 30.2149 34.7497 30.3796 34.5603 30.4731C34.3709 30.5666 34.152 30.5813 33.9517 30.5139C33.2068 30.2705 32.4395 30.1014 31.6611 30.0089C29.0805 29.793 25.3913 31.5524 22.6992 32.8354C20.6635 33.7882 19.4751 34.3535 18.6627 34.3535C18.4749 34.362 18.2875 34.3294 18.1136 34.2581C17.9397 34.1868 17.7835 34.0784 17.656 33.9406C17.2323 33.4642 17.3119 32.8195 17.3884 32.1971C17.4649 31.5746 17.5509 30.8759 17.1749 30.4218C16.799 29.9676 15.9293 29.6913 14.6772 29.5929C9.10512 29.2054 1.35389 34.9887 1.27425 35.0458C1.13678 35.15 0.969062 35.2069 0.796365 35.2078Z" fill="white"/>
<path d="M24.4356 1.10889C23.9123 0.821595 23.3054 0.72346 22.7178 0.831114C22.1303 0.938767 21.5981 1.24559 21.2115 1.6996C21.1666 1.75253 21.1341 1.81476 21.1163 1.88176C21.0986 1.94876 21.096 2.01887 21.1089 2.08698C21.1217 2.15509 21.1495 2.21951 21.1904 2.27555C21.2313 2.3316 21.2842 2.37786 21.3453 2.41099L24.9007 4.44036C24.9607 4.475 25.0276 4.49585 25.0967 4.50138C25.1658 4.50691 25.2352 4.49698 25.3 4.47233C25.3647 4.44767 25.4231 4.40891 25.4709 4.35887C25.5186 4.30883 25.5546 4.24878 25.5761 4.18311C25.7724 3.61829 25.7659 3.00309 25.5579 2.44246C25.3499 1.88183 24.9533 1.4105 24.4356 1.10889Z" fill="white"/>
<path d="M25.2353 6.35489L21.8774 12.1527C21.8088 12.2711 21.8495 12.4226 21.9684 12.491L22.7326 12.9309C22.8515 12.9993 23.0035 12.9587 23.0721 12.8402L26.43 7.04246C26.4986 6.92398 26.4579 6.77248 26.339 6.70407L25.5748 6.26422C25.4559 6.19581 25.304 6.23641 25.2353 6.35489Z" fill="white"/>
<path d="M23.7564 6.53016L23.6601 6.67955C23.5242 6.89024 23.5854 7.17083 23.7967 7.30627L24.7495 7.9168C24.9608 8.05224 25.2423 7.99124 25.3782 7.78056L25.4745 7.63116C25.6104 7.42048 25.5492 7.13988 25.3378 7.00444L24.3851 6.39392C24.1738 6.25848 23.8923 6.31947 23.7564 6.53016Z" fill="white"/>
<path d="M10.3699 26.6904C10.2581 26.7544 10.1313 26.788 10.0024 26.7878C9.87347 26.7876 9.74685 26.7536 9.63522 26.6893C9.52359 26.625 9.43087 26.5325 9.36635 26.4213C9.30183 26.31 9.26777 26.1838 9.26758 26.0552V24.2863V22.5142C9.26745 22.3852 9.30144 22.2584 9.36612 22.1467C9.43081 22.035 9.5239 21.9422 9.63602 21.8778C9.74813 21.8134 9.8753 21.7796 10.0047 21.7798C10.1341 21.78 10.2612 21.8142 10.3731 21.879L11.9087 22.7682L13.4506 23.6575C13.5632 23.7212 13.6569 23.8136 13.7221 23.9252C13.7872 24.0367 13.8215 24.1635 13.8215 24.2926C13.8215 24.4217 13.7872 24.5485 13.7221 24.6601C13.6569 24.7717 13.5632 24.8641 13.4506 24.9278L11.9119 25.8107L10.3699 26.6904Z" fill="white"/>
</g>
<defs>
<clipPath id="clip0_983_4090">
<rect width="35" height="34.4167" fill="white" transform="translate(0 0.791504)"/>
</clipPath>
</defs>
</svg>
