<svg width="35" height="33" viewBox="0 0 35 33" fill="none" xmlns="http://www.w3.org/2000/svg">
<g clip-path="url(#clip0_983_4915)">
<path d="M30.1516 15.3451C31.3939 15.3451 32.401 14.338 32.401 13.0956C32.401 11.8533 31.3939 10.8462 30.1516 10.8462C28.9092 10.8462 27.9021 11.8533 27.9021 13.0956C27.9021 14.338 28.9092 15.3451 30.1516 15.3451Z" fill="white"/>
<path d="M23.8925 15.3451C25.1349 15.3451 26.142 14.338 26.142 13.0956C26.142 11.8533 25.1349 10.8462 23.8925 10.8462C22.6502 10.8462 21.6431 11.8533 21.6431 13.0956C21.6431 14.338 22.6502 15.3451 23.8925 15.3451Z" fill="white"/>
<path d="M17.6335 15.3451C18.8758 15.3451 19.8829 14.338 19.8829 13.0956C19.8829 11.8533 18.8758 10.8462 17.6335 10.8462C16.3911 10.8462 15.384 11.8533 15.384 13.0956C15.384 14.338 16.3911 15.3451 17.6335 15.3451Z" fill="white"/>
<path d="M30.1516 21.6996C31.3939 21.6996 32.401 20.6925 32.401 19.4501C32.401 18.2078 31.3939 17.2007 30.1516 17.2007C28.9092 17.2007 27.9021 18.2078 27.9021 19.4501C27.9021 20.6925 28.9092 21.6996 30.1516 21.6996Z" fill="white"/>
<path d="M24.0261 21.6996C25.2684 21.6996 26.2755 20.6925 26.2755 19.4501C26.2755 18.2078 25.2684 17.2007 24.0261 17.2007C22.7837 17.2007 21.7766 18.2078 21.7766 19.4501C21.7766 20.6925 22.7837 21.6996 24.0261 21.6996Z" fill="white"/>
<path d="M17.9003 21.6996C19.1427 21.6996 20.1498 20.6925 20.1498 19.4501C20.1498 18.2078 19.1427 17.2007 17.9003 17.2007C16.658 17.2007 15.6509 18.2078 15.6509 19.4501C15.6509 20.6925 16.658 21.6996 17.9003 21.6996Z" fill="white"/>
<path d="M11.7746 21.6996C13.0169 21.6996 14.0241 20.6925 14.0241 19.4501C14.0241 18.2078 13.0169 17.2007 11.7746 17.2007C10.5323 17.2007 9.52515 18.2078 9.52515 19.4501C9.52515 20.6925 10.5323 21.6996 11.7746 21.6996Z" fill="white"/>
<path d="M5.64911 21.6996C6.89145 21.6996 7.89857 20.6925 7.89857 19.4501C7.89857 18.2078 6.89145 17.2007 5.64911 17.2007C4.40677 17.2007 3.39966 18.2078 3.39966 19.4501C3.39966 20.6925 4.40677 21.6996 5.64911 21.6996Z" fill="white"/>
<path d="M30.1516 28.0541C31.3939 28.0541 32.401 27.047 32.401 25.8046C32.401 24.5623 31.3939 23.5552 30.1516 23.5552C28.9092 23.5552 27.9021 24.5623 27.9021 25.8046C27.9021 27.047 28.9092 28.0541 30.1516 28.0541Z" fill="white"/>
<path d="M24.0261 28.0541C25.2684 28.0541 26.2755 27.047 26.2755 25.8046C26.2755 24.5623 25.2684 23.5552 24.0261 23.5552C22.7837 23.5552 21.7766 24.5623 21.7766 25.8046C21.7766 27.047 22.7837 28.0541 24.0261 28.0541Z" fill="white"/>
<path d="M17.9003 28.0541C19.1427 28.0541 20.1498 27.047 20.1498 25.8046C20.1498 24.5623 19.1427 23.5552 17.9003 23.5552C16.658 23.5552 15.6509 24.5623 15.6509 25.8046C15.6509 27.047 16.658 28.0541 17.9003 28.0541Z" fill="white"/>
<path d="M11.7746 28.0541C13.0169 28.0541 14.0241 27.047 14.0241 25.8046C14.0241 24.5623 13.0169 23.5552 11.7746 23.5552C10.5323 23.5552 9.52515 24.5623 9.52515 25.8046C9.52515 27.047 10.5323 28.0541 11.7746 28.0541Z" fill="white"/>
<path d="M5.64911 28.0541C6.89145 28.0541 7.89857 27.047 7.89857 25.8046C7.89857 24.5623 6.89145 23.5552 5.64911 23.5552C4.40677 23.5552 3.39966 24.5623 3.39966 25.8046C3.39966 27.047 4.40677 28.0541 5.64911 28.0541Z" fill="white"/>
<path d="M30.2088 5.19725C31.0499 5.20225 31.8551 5.5386 32.4499 6.13336C33.0446 6.72812 33.381 7.53335 33.386 8.37445V28.0095C33.3852 28.8534 33.0507 29.6627 32.4554 30.2609C31.8602 30.859 31.0526 31.1976 30.2088 31.2026H4.79121C3.9457 31.2043 3.13397 30.8709 2.53373 30.2754C1.93348 29.68 1.59364 28.8709 1.5886 28.0254V8.39033C1.59363 7.54649 1.93216 6.73888 2.53035 6.14367C3.12853 5.54846 3.93782 5.21396 4.78168 5.21314H30.1993M30.1993 3.62454H4.78168C3.51702 3.62704 2.30463 4.12944 1.40889 5.02221C0.513146 5.91498 0.00670664 7.12568 0 8.39033L0 28.0254C0 29.2961 0.504787 30.5148 1.40331 31.4133C2.30184 32.3118 3.5205 32.8166 4.79121 32.8166H30.2088C31.4795 32.8166 32.6982 32.3118 33.5967 31.4133C34.4952 30.5148 35 29.2961 35 28.0254V8.39033C35 7.11963 34.4952 5.90096 33.5967 5.00243C32.6982 4.10391 31.4795 3.59912 30.2088 3.59912L30.1993 3.62454Z" fill="white"/>
<path d="M8.81669 0.183594C8.50096 0.184432 8.1984 0.310229 7.97514 0.533487C7.75188 0.756746 7.62608 1.05931 7.62524 1.37504V5.55941C7.62524 5.8754 7.75077 6.17845 7.97421 6.40189C8.19765 6.62533 8.5007 6.75086 8.81669 6.75086C9.13268 6.75086 9.43573 6.62533 9.65917 6.40189C9.88261 6.17845 10.0081 5.8754 10.0081 5.55941V1.37504C10.0073 1.05931 9.88151 0.756746 9.65825 0.533487C9.43499 0.310229 9.13243 0.184432 8.81669 0.183594Z" fill="white"/>
<path d="M26.053 0.183661C25.8954 0.181983 25.7389 0.211539 25.5927 0.270624C25.4465 0.329709 25.3134 0.417154 25.2012 0.527916C25.089 0.638678 24.9998 0.770565 24.9388 0.91597C24.8777 1.06138 24.8461 1.21742 24.8457 1.37511V5.55948C24.8457 5.87547 24.9712 6.17852 25.1947 6.40196C25.4181 6.6254 25.7212 6.75093 26.0372 6.75093C26.3531 6.75093 26.6562 6.6254 26.8796 6.40196C27.1031 6.17852 27.2286 5.87547 27.2286 5.55948V1.37511C27.2278 1.0621 27.1042 0.761907 26.8844 0.539095C26.6645 0.316284 26.366 0.188655 26.053 0.183661Z" fill="white"/>
<path d="M17.427 0.183594C17.1113 0.184432 16.8087 0.310229 16.5855 0.533487C16.3622 0.756746 16.2364 1.05931 16.2356 1.37504V5.55941C16.2356 5.8754 16.3611 6.17845 16.5846 6.40189C16.808 6.62533 17.1111 6.75086 17.427 6.75086C17.743 6.75086 18.0461 6.62533 18.2695 6.40189C18.493 6.17845 18.6185 5.8754 18.6185 5.55941V1.37504C18.6177 1.05931 18.4919 0.756746 18.2686 0.533487C18.0453 0.310229 17.7428 0.184432 17.427 0.183594Z" fill="white"/>
</g>
<defs>
<clipPath id="clip0_983_4915">
<rect width="35" height="32.633" fill="white" transform="translate(0 0.183594)"/>
</clipPath>
</defs>
</svg>
