<svg width="35" height="34" viewBox="0 0 35 34" fill="none" xmlns="http://www.w3.org/2000/svg">
<g clip-path="url(#clip0_983_4069)">
<path d="M30.1516 15.8451C31.3939 15.8451 32.401 14.838 32.401 13.5956C32.401 12.3533 31.3939 11.3462 30.1516 11.3462C28.9092 11.3462 27.9021 12.3533 27.9021 13.5956C27.9021 14.838 28.9092 15.8451 30.1516 15.8451Z" fill="white"/>
<path d="M23.8925 15.8451C25.1349 15.8451 26.142 14.838 26.142 13.5956C26.142 12.3533 25.1349 11.3462 23.8925 11.3462C22.6502 11.3462 21.6431 12.3533 21.6431 13.5956C21.6431 14.838 22.6502 15.8451 23.8925 15.8451Z" fill="white"/>
<path d="M17.6335 15.8451C18.8758 15.8451 19.8829 14.838 19.8829 13.5956C19.8829 12.3533 18.8758 11.3462 17.6335 11.3462C16.3911 11.3462 15.384 12.3533 15.384 13.5956C15.384 14.838 16.3911 15.8451 17.6335 15.8451Z" fill="white"/>
<path d="M30.1516 22.1996C31.3939 22.1996 32.401 21.1925 32.401 19.9501C32.401 18.7078 31.3939 17.7007 30.1516 17.7007C28.9092 17.7007 27.9021 18.7078 27.9021 19.9501C27.9021 21.1925 28.9092 22.1996 30.1516 22.1996Z" fill="white"/>
<path d="M24.0261 22.1996C25.2684 22.1996 26.2755 21.1925 26.2755 19.9501C26.2755 18.7078 25.2684 17.7007 24.0261 17.7007C22.7837 17.7007 21.7766 18.7078 21.7766 19.9501C21.7766 21.1925 22.7837 22.1996 24.0261 22.1996Z" fill="white"/>
<path d="M17.9003 22.1996C19.1427 22.1996 20.1498 21.1925 20.1498 19.9501C20.1498 18.7078 19.1427 17.7007 17.9003 17.7007C16.658 17.7007 15.6509 18.7078 15.6509 19.9501C15.6509 21.1925 16.658 22.1996 17.9003 22.1996Z" fill="white"/>
<path d="M11.7746 22.1996C13.0169 22.1996 14.0241 21.1925 14.0241 19.9501C14.0241 18.7078 13.0169 17.7007 11.7746 17.7007C10.5323 17.7007 9.52515 18.7078 9.52515 19.9501C9.52515 21.1925 10.5323 22.1996 11.7746 22.1996Z" fill="white"/>
<path d="M5.64911 22.1996C6.89145 22.1996 7.89857 21.1925 7.89857 19.9501C7.89857 18.7078 6.89145 17.7007 5.64911 17.7007C4.40677 17.7007 3.39966 18.7078 3.39966 19.9501C3.39966 21.1925 4.40677 22.1996 5.64911 22.1996Z" fill="white"/>
<path d="M30.1516 28.5541C31.3939 28.5541 32.401 27.547 32.401 26.3046C32.401 25.0623 31.3939 24.0552 30.1516 24.0552C28.9092 24.0552 27.9021 25.0623 27.9021 26.3046C27.9021 27.547 28.9092 28.5541 30.1516 28.5541Z" fill="white"/>
<path d="M24.0261 28.5541C25.2684 28.5541 26.2755 27.547 26.2755 26.3046C26.2755 25.0623 25.2684 24.0552 24.0261 24.0552C22.7837 24.0552 21.7766 25.0623 21.7766 26.3046C21.7766 27.547 22.7837 28.5541 24.0261 28.5541Z" fill="white"/>
<path d="M17.9003 28.5541C19.1427 28.5541 20.1498 27.547 20.1498 26.3046C20.1498 25.0623 19.1427 24.0552 17.9003 24.0552C16.658 24.0552 15.6509 25.0623 15.6509 26.3046C15.6509 27.547 16.658 28.5541 17.9003 28.5541Z" fill="white"/>
<path d="M11.7746 28.5541C13.0169 28.5541 14.0241 27.547 14.0241 26.3046C14.0241 25.0623 13.0169 24.0552 11.7746 24.0552C10.5323 24.0552 9.52515 25.0623 9.52515 26.3046C9.52515 27.547 10.5323 28.5541 11.7746 28.5541Z" fill="white"/>
<path d="M5.64911 28.5541C6.89145 28.5541 7.89857 27.547 7.89857 26.3046C7.89857 25.0623 6.89145 24.0552 5.64911 24.0552C4.40677 24.0552 3.39966 25.0623 3.39966 26.3046C3.39966 27.547 4.40677 28.5541 5.64911 28.5541Z" fill="white"/>
<path d="M30.2088 5.69725C31.0499 5.70225 31.8551 6.0386 32.4499 6.63336C33.0446 7.22812 33.381 8.03335 33.386 8.87445V28.5095C33.3852 29.3534 33.0507 30.1627 32.4554 30.7609C31.8602 31.359 31.0526 31.6976 30.2088 31.7026H4.79121C3.9457 31.7043 3.13397 31.3709 2.53373 30.7754C1.93348 30.18 1.59364 29.3709 1.5886 28.5254V8.89033C1.59363 8.04649 1.93216 7.23888 2.53035 6.64367C3.12853 6.04846 3.93782 5.71396 4.78168 5.71314H30.1993M30.1993 4.12454H4.78168C3.51702 4.12704 2.30463 4.62944 1.40889 5.52221C0.513146 6.41498 0.00670664 7.62568 0 8.89033L0 28.5254C0 29.7961 0.504787 31.0148 1.40331 31.9133C2.30184 32.8118 3.5205 33.3166 4.79121 33.3166H30.2088C31.4795 33.3166 32.6982 32.8118 33.5967 31.9133C34.4952 31.0148 35 29.7961 35 28.5254V8.89033C35 7.61963 34.4952 6.40096 33.5967 5.50243C32.6982 4.60391 31.4795 4.09912 30.2088 4.09912L30.1993 4.12454Z" fill="white"/>
<path d="M8.81669 0.683594C8.50096 0.684432 8.1984 0.810229 7.97514 1.03349C7.75188 1.25675 7.62608 1.55931 7.62524 1.87504V6.05941C7.62524 6.3754 7.75077 6.67845 7.97421 6.90189C8.19765 7.12533 8.5007 7.25086 8.81669 7.25086C9.13268 7.25086 9.43573 7.12533 9.65917 6.90189C9.88261 6.67845 10.0081 6.3754 10.0081 6.05941V1.87504C10.0073 1.55931 9.88151 1.25675 9.65825 1.03349C9.43499 0.810229 9.13243 0.684432 8.81669 0.683594Z" fill="white"/>
<path d="M26.053 0.683661C25.8954 0.681983 25.7389 0.711539 25.5927 0.770624C25.4465 0.829709 25.3134 0.917154 25.2012 1.02792C25.089 1.13868 24.9998 1.27056 24.9388 1.41597C24.8777 1.56138 24.8461 1.71742 24.8457 1.87511V6.05948C24.8457 6.37547 24.9712 6.67852 25.1947 6.90196C25.4181 7.1254 25.7212 7.25093 26.0372 7.25093C26.3531 7.25093 26.6562 7.1254 26.8796 6.90196C27.1031 6.67852 27.2286 6.37547 27.2286 6.05948V1.87511C27.2278 1.5621 27.1042 1.26191 26.8844 1.0391C26.6645 0.816284 26.366 0.688655 26.053 0.683661Z" fill="white"/>
<path d="M17.427 0.683594C17.1113 0.684432 16.8087 0.810229 16.5855 1.03349C16.3622 1.25675 16.2364 1.55931 16.2356 1.87504V6.05941C16.2356 6.3754 16.3611 6.67845 16.5846 6.90189C16.808 7.12533 17.1111 7.25086 17.427 7.25086C17.743 7.25086 18.0461 7.12533 18.2695 6.90189C18.493 6.67845 18.6185 6.3754 18.6185 6.05941V1.87504C18.6177 1.55931 18.4919 1.25675 18.2686 1.03349C18.0453 0.810229 17.7428 0.684432 17.427 0.683594Z" fill="white"/>
</g>
<defs>
<clipPath id="clip0_983_4069">
<rect width="35" height="32.633" fill="white" transform="translate(0 0.683594)"/>
</clipPath>
</defs>
</svg>
