<svg width="34" height="41" viewBox="0 0 34 41" fill="none" xmlns="http://www.w3.org/2000/svg">
<g clip-path="url(#clip0_983_4658)">
<path d="M31.9536 40.4998C31.4757 40.4989 31.0158 40.3292 30.6653 40.0247L16.9726 28.27L3.22487 39.9437C2.95067 40.1807 2.60795 40.3364 2.23969 40.3915C1.87143 40.4465 1.49404 40.3983 1.15486 40.253C0.810157 40.1156 0.516553 39.8856 0.311047 39.5921C0.105541 39.2985 -0.00267063 38.9544 5.00708e-05 38.6032L0.121815 1.40936C0.125927 1.16741 0.231073 0.936625 0.414676 0.766556C0.598279 0.596487 0.845695 0.500702 1.10379 0.499768H1.26877C1.32224 0.493567 1.37633 0.493567 1.42981 0.499768L33.022 0.591832C33.1508 0.591831 33.2783 0.615671 33.3972 0.661982C33.5161 0.708294 33.6241 0.776166 33.715 0.861704C33.8059 0.947242 33.8778 1.04876 33.9267 1.16044C33.9757 1.27211 34.0006 1.39175 34.0001 1.51247L33.8783 38.7064C33.8791 39.0552 33.7709 39.3967 33.5671 39.6886C33.3633 39.9804 33.0727 40.21 32.7313 40.3488C32.4858 40.4482 32.2211 40.4996 31.9536 40.4998ZM17.1257 26.2335C17.3711 26.2331 17.6078 26.3184 17.7896 26.4729L31.93 38.5996L32.0518 2.42943L2.08577 2.34105L1.96401 38.5112L16.1713 26.4692C16.2792 26.3766 16.408 26.308 16.5481 26.2685C16.6881 26.229 16.8359 26.2195 16.9804 26.2409L17.1257 26.2335Z" fill="white"/>
</g>
<defs>
<clipPath id="clip0_983_4658">
<rect width="34" height="40" fill="white" transform="translate(0 0.5)"/>
</clipPath>
</defs>
</svg>
