<svg width="35" height="35" viewBox="0 0 35 35" fill="none" xmlns="http://www.w3.org/2000/svg">
<g clip-path="url(#clip0_983_496)">
<path d="M32.2688 18.2894H16.6457C15.9245 18.292 15.2317 18.0083 14.7196 17.5005C14.2075 16.9928 13.918 16.3025 13.9146 15.5815V2.708C13.918 1.98693 14.2075 1.2967 14.7196 0.788946C15.2317 0.281191 15.9245 -0.00256292 16.6457 1.74459e-05H32.2688C32.9898 -0.00170742 33.682 0.282323 34.194 0.789894C34.7059 1.29746 34.9957 1.9872 35 2.708V15.5815C34.9966 16.3025 34.707 16.9928 34.1949 17.5005C33.6828 18.0083 32.9901 18.292 32.2688 18.2894ZM16.6457 1.49151C16.3218 1.49065 16.0109 1.61823 15.781 1.84628C15.551 2.07432 15.421 2.38422 15.4193 2.708V15.5815C15.421 15.9052 15.551 16.2151 15.781 16.4432C16.0109 16.6712 16.3218 16.7988 16.6457 16.7979H32.2688C32.5927 16.7988 32.9037 16.6712 33.1336 16.4432C33.3635 16.2151 33.4936 15.9052 33.4953 15.5815V2.708C33.4936 2.38422 33.3635 2.07432 33.1336 1.84628C32.9037 1.61823 32.5927 1.49065 32.2688 1.49151H16.6457Z" fill="white"/>
<path d="M32.1523 2.94092H16.5874V4.61036H32.1523V2.94092Z" fill="white"/>
<path d="M32.1524 4.90476H16.5875C16.5065 4.90509 16.4283 4.87503 16.3684 4.82052C16.3085 4.766 16.2712 4.69101 16.2639 4.61034V2.9409C16.2712 2.86024 16.3085 2.78524 16.3684 2.73073C16.4283 2.67622 16.5065 2.64616 16.5875 2.64649H32.1524C32.2334 2.64616 32.3116 2.67622 32.3715 2.73073C32.4314 2.78524 32.4687 2.86024 32.476 2.9409V4.61034C32.4687 4.69101 32.4314 4.766 32.3715 4.82052C32.3116 4.87503 32.2334 4.90509 32.1524 4.90476ZM16.9079 4.31593H31.8353V3.23532H16.9079V4.31593Z" fill="white"/>
<path d="M27.3762 7.06933H16.827C16.7214 7.06933 16.6202 7.02741 16.5455 6.95278C16.4709 6.87815 16.429 6.77693 16.429 6.67139C16.429 6.56584 16.4709 6.46462 16.5455 6.38999C16.6202 6.31536 16.7214 6.27344 16.827 6.27344H27.3762C27.4817 6.27344 27.583 6.31536 27.6576 6.38999C27.7323 6.46462 27.7742 6.56584 27.7742 6.67139C27.7742 6.77693 27.7323 6.87815 27.6576 6.95278C27.583 7.02741 27.4817 7.06933 27.3762 7.06933Z" fill="#4ADFBF"/>
<path d="M27.3762 11.2202H16.827C16.7214 11.2202 16.6202 11.1783 16.5455 11.1037C16.4709 11.029 16.429 10.9278 16.429 10.8223C16.429 10.7167 16.4709 10.6155 16.5455 10.5409C16.6202 10.4662 16.7214 10.4243 16.827 10.4243H27.3762C27.4817 10.4243 27.583 10.4662 27.6576 10.5409C27.7323 10.6155 27.7742 10.7167 27.7742 10.8223C27.7742 10.9278 27.7323 11.029 27.6576 11.1037C27.583 11.1783 27.4817 11.2202 27.3762 11.2202Z" fill="#4ADFBF"/>
<path d="M27.3762 13.2939H16.827C16.7214 13.2939 16.6202 13.252 16.5455 13.1774C16.4709 13.1028 16.429 13.0015 16.429 12.896C16.429 12.7905 16.4709 12.6892 16.5455 12.6146C16.6202 12.54 16.7214 12.498 16.827 12.498H27.3762C27.4817 12.498 27.583 12.54 27.6576 12.6146C27.7323 12.6892 27.7742 12.7905 27.7742 12.896C27.7742 13.0015 27.7323 13.1028 27.6576 13.1774C27.583 13.252 27.4817 13.2939 27.3762 13.2939Z" fill="#4ADFBF"/>
<path d="M27.376 15.3679H16.8269C16.7196 15.3679 16.6167 15.3253 16.5408 15.2495C16.465 15.1736 16.4224 15.0708 16.4224 14.9635C16.4224 14.8562 16.465 14.7534 16.5408 14.6775C16.6167 14.6017 16.7196 14.5591 16.8269 14.5591H27.376C27.4816 14.5591 27.5828 14.601 27.6575 14.6756C27.7321 14.7503 27.7741 14.8515 27.7741 14.957C27.7741 15.0626 27.7321 15.1638 27.6575 15.2384C27.5828 15.3131 27.4816 15.355 27.376 15.355V15.3679Z" fill="#4ADFBF"/>
<path d="M27.3762 9.14306H16.827C16.7214 9.14306 16.6202 9.10114 16.5455 9.02651C16.4709 8.95188 16.429 8.85066 16.429 8.74512C16.429 8.63957 16.4709 8.53835 16.5455 8.46372C16.6202 8.38909 16.7214 8.34717 16.827 8.34717H27.3762C27.4817 8.34717 27.583 8.38909 27.6576 8.46372C27.7323 8.53835 27.7742 8.63957 27.7742 8.74512C27.7742 8.85066 27.7323 8.95188 27.6576 9.02651C27.583 9.10114 27.4817 9.14306 27.3762 9.14306Z" fill="#4ADFBF"/>
<path d="M7.99613 26.8051C7.73747 26.8054 7.48127 26.7548 7.24215 26.6562L6.86031 26.5009C6.41887 26.3191 6.05724 25.985 5.84099 25.5594L3.45609 20.797C3.32478 20.5321 3.25458 20.2411 3.25066 19.9455C3.24674 19.6498 3.3092 19.3571 3.43344 19.0888C3.95119 18.0146 4.62103 17.4873 5.42031 17.5358C7.2648 17.6393 8.86012 21.2241 9.87298 24.2135C9.98639 24.5559 10.0054 24.9225 9.92799 25.2747C9.82732 25.7137 9.58023 26.1053 9.22736 26.3852C8.87449 26.6651 8.43685 26.8166 7.98642 26.8148L7.99613 26.8051ZM5.33618 18.817C5.23586 18.817 4.98022 18.982 4.68899 19.6161C4.64198 19.7135 4.61757 19.8202 4.61757 19.9283C4.61757 20.0364 4.64198 20.1432 4.68899 20.2405L7.07712 25.003C7.14197 25.1466 7.25704 25.2617 7.40071 25.3265L7.78255 25.485C7.85511 25.5184 7.93405 25.5357 8.01392 25.5357C8.0938 25.5357 8.17273 25.5184 8.24529 25.485C8.33426 25.4395 8.41186 25.3746 8.47236 25.2951C8.53285 25.2156 8.57469 25.1235 8.59478 25.0256C8.63219 24.8814 8.62543 24.7292 8.57536 24.5888C7.31981 20.8811 5.9866 18.8429 5.33941 18.8073L5.33618 18.817Z" fill="white"/>
<path d="M18.9173 35C18.7076 35.0006 18.498 34.9898 18.2895 34.9676C16.7136 34.7961 13.6654 34.2882 10.9407 32.8064C8.59934 31.5148 6.33864 30.0821 4.1711 28.5163C4.02514 28.4114 3.90823 28.2711 3.83132 28.1087L0.323557 20.7483C0.0375175 20.1705 -0.0587439 19.5172 0.0485018 18.8815C0.0801908 18.5825 0.187001 18.2963 0.358997 18.0497C0.530992 17.8031 0.762585 17.6039 1.03223 17.4708C1.59852 17.2088 2.28454 17.2864 3.07088 17.6973C3.68321 18.0184 4.18323 18.5184 4.5044 19.1306L7.61415 25.0286L9.08974 25.5916C9.32062 24.9517 9.75481 24.4051 10.3259 24.0354C11.0729 23.4874 11.9904 23.2225 12.9146 23.288L15.3384 23.4401C15.5026 23.4526 15.6677 23.4303 15.8228 23.3745C15.9778 23.3188 16.1193 23.2308 16.2379 23.1165C16.316 23.0387 16.4055 22.9732 16.5033 22.9224C20.5256 20.758 23.2535 21.6283 25.2403 22.2753C25.4895 22.3562 25.729 22.4339 25.9587 22.4986C27.1916 22.8512 30.3078 22.5892 32.6021 22.2592C32.8401 22.2231 33.0835 22.2628 33.2977 22.3725C33.512 22.4822 33.6863 22.6565 33.7962 22.8706C34.2686 23.8412 36.4756 28.9499 33.4305 33.8029C33.3043 33.997 33.1227 34.1489 32.9093 34.2389C32.6959 34.3288 32.4604 34.3528 32.2332 34.3076C31.5019 34.1652 27.4829 33.5311 20.0531 34.9223C19.6778 34.984 19.2975 35.01 18.9173 35ZM5.32633 27.316C7.40119 28.8044 9.56226 30.1689 11.7982 31.4023C14.2575 32.7417 17.0502 33.2043 18.4966 33.3435C18.9058 33.3857 19.3189 33.3683 19.7231 33.2917C26.5444 31.9976 30.6217 32.3664 32.162 32.6058C34.233 28.9757 32.9904 25.2195 32.4177 23.8704C30.6153 24.1098 27.156 24.4786 25.4669 23.9965C25.2209 23.9254 24.9653 23.8445 24.6967 23.7571C22.8231 23.1845 20.71 22.5115 17.3899 24.2651C17.0984 24.5363 16.7547 24.7454 16.3797 24.8794C16.0047 25.0135 15.6064 25.0697 15.2089 25.0448L12.7884 24.8927C12.2832 24.8575 11.7819 25.0031 11.3743 25.3036C10.8307 25.7048 10.7077 25.9895 10.7271 26.093C10.7491 26.1835 10.8003 26.2643 10.8727 26.3228L10.9051 26.3551C11.1836 26.5872 11.4971 26.7739 11.8338 26.9084C12.0225 26.9902 12.227 27.0289 12.4325 27.0216L21.0983 26.9407C21.3182 26.9354 21.5315 27.0164 21.6924 27.1664C21.8533 27.3164 21.949 27.5234 21.9591 27.7431C21.9548 27.963 21.8636 28.1724 21.7053 28.3252C21.547 28.478 21.3345 28.5618 21.1145 28.5584L12.4486 28.6393C11.9951 28.6454 11.5452 28.5561 11.1284 28.3772C10.6555 28.1847 10.2138 27.9231 9.81782 27.6007L6.73073 26.4231C6.5007 26.3225 6.31061 26.1484 6.19033 25.928L2.98027 19.8456C2.82224 19.5321 2.57291 19.2737 2.26513 19.1047C2.12205 19.0235 1.96694 18.9656 1.80562 18.9332C1.77403 19.0032 1.75225 19.0773 1.7409 19.1532C1.68954 19.4707 1.74173 19.7963 1.88976 20.0818L5.32633 27.316Z" fill="white"/>
</g>
<defs>
<clipPath id="clip0_983_496">
<rect width="35" height="35" fill="white"/>
</clipPath>
</defs>
</svg>
