<svg width="35" height="36" viewBox="0 0 35 36" fill="none" xmlns="http://www.w3.org/2000/svg">
<g clip-path="url(#clip0_983_4126)">
<path d="M32.2688 18.7894H16.6457C15.9245 18.792 15.2317 18.5083 14.7196 18.0005C14.2075 17.4928 13.918 16.8025 13.9146 16.0815V3.208C13.918 2.48693 14.2075 1.7967 14.7196 1.28895C15.2317 0.781191 15.9245 0.497437 16.6457 0.500017H32.2688C32.9898 0.498293 33.682 0.782323 34.194 1.28989C34.7059 1.79746 34.9957 2.4872 35 3.208V16.0815C34.9966 16.8025 34.707 17.4928 34.1949 18.0005C33.6828 18.5083 32.9901 18.792 32.2688 18.7894ZM16.6457 1.99151C16.3218 1.99065 16.0109 2.11823 15.781 2.34628C15.551 2.57432 15.421 2.88422 15.4193 3.208V16.0815C15.421 16.4052 15.551 16.7151 15.781 16.9432C16.0109 17.1712 16.3218 17.2988 16.6457 17.2979H32.2688C32.5927 17.2988 32.9037 17.1712 33.1336 16.9432C33.3635 16.7151 33.4936 16.4052 33.4953 16.0815V3.208C33.4936 2.88422 33.3635 2.57432 33.1336 2.34628C32.9037 2.11823 32.5927 1.99065 32.2688 1.99151H16.6457Z" fill="white"/>
<path d="M32.1523 3.44092H16.5874V5.11036H32.1523V3.44092Z" fill="white"/>
<path d="M32.1524 5.40476H16.5875C16.5065 5.40509 16.4283 5.37503 16.3684 5.32052C16.3085 5.266 16.2712 5.19101 16.2639 5.11034V3.4409C16.2712 3.36024 16.3085 3.28524 16.3684 3.23073C16.4283 3.17622 16.5065 3.14616 16.5875 3.14649H32.1524C32.2334 3.14616 32.3116 3.17622 32.3715 3.23073C32.4314 3.28524 32.4687 3.36024 32.476 3.4409V5.11034C32.4687 5.19101 32.4314 5.266 32.3715 5.32052C32.3116 5.37503 32.2334 5.40509 32.1524 5.40476ZM16.9079 4.81593H31.8353V3.73532H16.9079V4.81593Z" fill="white"/>
<path d="M27.3762 7.56933H16.827C16.7214 7.56933 16.6202 7.52741 16.5455 7.45278C16.4709 7.37815 16.429 7.27693 16.429 7.17139C16.429 7.06584 16.4709 6.96462 16.5455 6.88999C16.6202 6.81536 16.7214 6.77344 16.827 6.77344H27.3762C27.4817 6.77344 27.583 6.81536 27.6576 6.88999C27.7323 6.96462 27.7742 7.06584 27.7742 7.17139C27.7742 7.27693 27.7323 7.37815 27.6576 7.45278C27.583 7.52741 27.4817 7.56933 27.3762 7.56933Z" fill="#4ADFBF"/>
<path d="M27.3762 11.7202H16.827C16.7214 11.7202 16.6202 11.6783 16.5455 11.6037C16.4709 11.529 16.429 11.4278 16.429 11.3223C16.429 11.2167 16.4709 11.1155 16.5455 11.0409C16.6202 10.9662 16.7214 10.9243 16.827 10.9243H27.3762C27.4817 10.9243 27.583 10.9662 27.6576 11.0409C27.7323 11.1155 27.7742 11.2167 27.7742 11.3223C27.7742 11.4278 27.7323 11.529 27.6576 11.6037C27.583 11.6783 27.4817 11.7202 27.3762 11.7202Z" fill="#4ADFBF"/>
<path d="M27.3762 13.7939H16.827C16.7214 13.7939 16.6202 13.752 16.5455 13.6774C16.4709 13.6028 16.429 13.5015 16.429 13.396C16.429 13.2905 16.4709 13.1892 16.5455 13.1146C16.6202 13.04 16.7214 12.998 16.827 12.998H27.3762C27.4817 12.998 27.583 13.04 27.6576 13.1146C27.7323 13.1892 27.7742 13.2905 27.7742 13.396C27.7742 13.5015 27.7323 13.6028 27.6576 13.6774C27.583 13.752 27.4817 13.7939 27.3762 13.7939Z" fill="#4ADFBF"/>
<path d="M27.376 15.8679H16.8269C16.7196 15.8679 16.6167 15.8253 16.5408 15.7495C16.465 15.6736 16.4224 15.5708 16.4224 15.4635C16.4224 15.3562 16.465 15.2534 16.5408 15.1775C16.6167 15.1017 16.7196 15.0591 16.8269 15.0591H27.376C27.4816 15.0591 27.5828 15.101 27.6575 15.1756C27.7321 15.2503 27.7741 15.3515 27.7741 15.457C27.7741 15.5626 27.7321 15.6638 27.6575 15.7384C27.5828 15.8131 27.4816 15.855 27.376 15.855V15.8679Z" fill="#4ADFBF"/>
<path d="M27.3762 9.64306H16.827C16.7214 9.64306 16.6202 9.60114 16.5455 9.52651C16.4709 9.45188 16.429 9.35066 16.429 9.24512C16.429 9.13957 16.4709 9.03835 16.5455 8.96372C16.6202 8.88909 16.7214 8.84717 16.827 8.84717H27.3762C27.4817 8.84717 27.583 8.88909 27.6576 8.96372C27.7323 9.03835 27.7742 9.13957 27.7742 9.24512C27.7742 9.35066 27.7323 9.45188 27.6576 9.52651C27.583 9.60114 27.4817 9.64306 27.3762 9.64306Z" fill="#4ADFBF"/>
<path d="M7.99613 27.3051C7.73747 27.3054 7.48127 27.2548 7.24215 27.1562L6.86031 27.0009C6.41887 26.8191 6.05724 26.485 5.84099 26.0594L3.45609 21.297C3.32478 21.0321 3.25458 20.7411 3.25066 20.4455C3.24674 20.1498 3.3092 19.8571 3.43344 19.5888C3.95119 18.5146 4.62103 17.9873 5.42031 18.0358C7.2648 18.1393 8.86012 21.7241 9.87298 24.7135C9.98639 25.0559 10.0054 25.4225 9.92799 25.7747C9.82732 26.2137 9.58023 26.6053 9.22736 26.8852C8.87449 27.1651 8.43685 27.3166 7.98642 27.3148L7.99613 27.3051ZM5.33618 19.317C5.23586 19.317 4.98022 19.482 4.68899 20.1161C4.64198 20.2135 4.61757 20.3202 4.61757 20.4283C4.61757 20.5364 4.64198 20.6432 4.68899 20.7405L7.07712 25.503C7.14197 25.6466 7.25704 25.7617 7.40071 25.8265L7.78255 25.985C7.85511 26.0184 7.93405 26.0357 8.01392 26.0357C8.0938 26.0357 8.17273 26.0184 8.24529 25.985C8.33426 25.9395 8.41186 25.8746 8.47236 25.7951C8.53285 25.7156 8.57469 25.6235 8.59478 25.5256C8.63219 25.3814 8.62543 25.2292 8.57536 25.0888C7.31981 21.3811 5.9866 19.3429 5.33941 19.3073L5.33618 19.317Z" fill="white"/>
<path d="M18.9173 35.5C18.7076 35.5006 18.498 35.4898 18.2895 35.4676C16.7136 35.2961 13.6654 34.7882 10.9407 33.3064C8.59934 32.0148 6.33864 30.5821 4.1711 29.0163C4.02514 28.9114 3.90823 28.7711 3.83132 28.6087L0.323557 21.2483C0.0375175 20.6705 -0.0587439 20.0172 0.0485018 19.3815C0.0801908 19.0825 0.187001 18.7963 0.358997 18.5497C0.530992 18.3031 0.762585 18.1039 1.03223 17.9708C1.59852 17.7088 2.28454 17.7864 3.07088 18.1973C3.68321 18.5184 4.18323 19.0184 4.5044 19.6306L7.61415 25.5286L9.08974 26.0916C9.32062 25.4517 9.75481 24.9051 10.3259 24.5354C11.0729 23.9874 11.9904 23.7225 12.9146 23.788L15.3384 23.9401C15.5026 23.9526 15.6677 23.9303 15.8228 23.8745C15.9778 23.8188 16.1193 23.7308 16.2379 23.6165C16.316 23.5387 16.4055 23.4732 16.5033 23.4224C20.5256 21.258 23.2535 22.1283 25.2403 22.7753C25.4895 22.8562 25.729 22.9339 25.9587 22.9986C27.1916 23.3512 30.3078 23.0892 32.6021 22.7592C32.8401 22.7231 33.0835 22.7628 33.2977 22.8725C33.512 22.9822 33.6863 23.1565 33.7962 23.3706C34.2686 24.3412 36.4756 29.4499 33.4305 34.3029C33.3043 34.497 33.1227 34.6489 32.9093 34.7389C32.6959 34.8288 32.4604 34.8528 32.2332 34.8076C31.5019 34.6652 27.4829 34.0311 20.0531 35.4223C19.6778 35.484 19.2975 35.51 18.9173 35.5ZM5.32633 27.816C7.40119 29.3044 9.56226 30.6689 11.7982 31.9023C14.2575 33.2417 17.0502 33.7043 18.4966 33.8435C18.9058 33.8857 19.3189 33.8683 19.7231 33.7917C26.5444 32.4976 30.6217 32.8664 32.162 33.1058C34.233 29.4757 32.9904 25.7195 32.4177 24.3704C30.6153 24.6098 27.156 24.9786 25.4669 24.4965C25.2209 24.4254 24.9653 24.3445 24.6967 24.2571C22.8231 23.6845 20.71 23.0115 17.3899 24.7651C17.0984 25.0363 16.7547 25.2454 16.3797 25.3794C16.0047 25.5135 15.6064 25.5697 15.2089 25.5448L12.7884 25.3927C12.2832 25.3575 11.7819 25.5031 11.3743 25.8036C10.8307 26.2048 10.7077 26.4895 10.7271 26.593C10.7491 26.6835 10.8003 26.7643 10.8727 26.8228L10.9051 26.8551C11.1836 27.0872 11.4971 27.2739 11.8338 27.4084C12.0225 27.4902 12.227 27.5289 12.4325 27.5216L21.0983 27.4407C21.3182 27.4354 21.5315 27.5164 21.6924 27.6664C21.8533 27.8164 21.949 28.0234 21.9591 28.2431C21.9548 28.463 21.8636 28.6724 21.7053 28.8252C21.547 28.978 21.3345 29.0618 21.1145 29.0584L12.4486 29.1393C11.9951 29.1454 11.5452 29.0561 11.1284 28.8772C10.6555 28.6847 10.2138 28.4231 9.81782 28.1007L6.73073 26.9231C6.5007 26.8225 6.31061 26.6484 6.19033 26.428L2.98027 20.3456C2.82224 20.0321 2.57291 19.7737 2.26513 19.6047C2.12205 19.5235 1.96694 19.4656 1.80562 19.4332C1.77403 19.5032 1.75225 19.5773 1.7409 19.6532C1.68954 19.9707 1.74173 20.2963 1.88976 20.5818L5.32633 27.816Z" fill="white"/>
</g>
<defs>
<clipPath id="clip0_983_4126">
<rect width="35" height="35" fill="white" transform="translate(0 0.5)"/>
</clipPath>
</defs>
</svg>
