<svg width="35" height="33" viewBox="0 0 35 33" fill="none" xmlns="http://www.w3.org/2000/svg">
<g clip-path="url(#clip0_983_5160)">
<path d="M11.7915 12.8677C10.1763 12.8677 8.59739 13.343 7.25442 14.2335C5.91145 15.124 4.86474 16.3898 4.24664 17.8707C3.62854 19.3516 3.46682 20.9811 3.78192 22.5532C4.09702 24.1253 4.8748 25.5694 6.0169 26.7028C7.159 27.8362 8.61413 28.6081 10.1983 28.9208C11.7824 29.2335 13.4244 29.073 14.9166 28.4596C16.4089 27.8462 17.6843 26.8075 18.5816 25.4747C19.479 24.1419 19.9579 22.575 19.9579 20.9721C19.9554 18.8234 19.0942 16.7635 17.5632 15.2442C16.0323 13.7248 13.9566 12.8702 11.7915 12.8677ZM11.7915 27.975C10.3943 27.975 9.02853 27.5637 7.86692 26.7933C6.70531 26.0228 5.80006 24.9278 5.26568 23.6466C4.7313 22.3655 4.59181 20.9559 4.86484 19.5961C5.13788 18.2363 5.81117 16.9874 6.79956 16.0074C7.78794 15.0274 9.047 14.3603 10.4175 14.0906C11.7879 13.8208 13.2082 13.9605 14.4987 14.492C15.7891 15.0235 16.8917 15.9228 17.667 17.0763C18.4423 18.2298 18.8555 19.5856 18.8543 20.9721C18.8543 21.8926 18.6716 22.804 18.3166 23.6544C17.9617 24.5048 17.4415 25.2775 16.7856 25.9283C16.1298 26.5792 15.3512 27.0955 14.4943 27.4477C13.6374 27.8 12.719 27.9813 11.7915 27.9813V27.975Z" fill="#4ADFBF"/>
<path d="M23.5829 22.4359V19.5246C23.5794 19.2885 23.4887 19.0618 23.3279 18.8877C23.1671 18.7137 22.9475 18.6043 22.7107 18.5804L22.4221 18.5521C22.1216 18.5238 21.8349 18.4127 21.5945 18.2315C21.3541 18.0502 21.1695 17.8058 21.0616 17.526C20.9886 17.3309 20.9062 17.1389 20.8206 16.9501C20.6978 16.6765 20.6542 16.3744 20.6945 16.0776C20.7348 15.7808 20.8575 15.5009 21.0489 15.2694L21.236 15.0459C21.3878 14.8614 21.4651 14.6274 21.4528 14.3895C21.4405 14.1516 21.3395 13.9268 21.1694 13.7586L19.0858 11.6562C18.9164 11.4874 18.6898 11.3872 18.4501 11.375C18.2103 11.3628 17.9746 11.4394 17.7887 11.5901L17.5635 11.7758C17.3302 11.9657 17.0482 12.0875 16.7491 12.1275C16.45 12.1676 16.1456 12.1242 15.8699 12.0024C15.6797 11.9174 15.4862 11.8356 15.2896 11.7632C15.0119 11.6545 14.7699 11.4717 14.5903 11.2351C14.4106 10.9985 14.3003 10.7173 14.2715 10.4224L14.243 10.136C14.2189 9.9011 14.1087 9.68313 13.9333 9.52356C13.7579 9.36398 13.5295 9.27393 13.2916 9.27051H10.3421C10.1029 9.26969 9.87222 9.35829 9.69591 9.51869C9.51959 9.67908 9.41062 9.8995 9.39069 10.136L9.36215 10.4224C9.33303 10.721 9.22054 11.0055 9.03732 11.2441C8.8541 11.4826 8.60744 11.6657 8.32509 11.7727C8.13163 11.845 7.93817 11.9269 7.74789 12.0119C7.46859 12.1394 7.1586 12.1858 6.85381 12.1457C6.54903 12.1056 6.26193 11.9806 6.02579 11.7852L5.79745 11.5996C5.61324 11.4463 5.37742 11.368 5.13739 11.3802C4.89735 11.3925 4.67089 11.4945 4.5035 11.6656L2.41035 13.7335C2.24139 13.9023 2.14141 14.1273 2.1297 14.365C2.11798 14.6027 2.19537 14.8363 2.34692 15.0207L2.53721 15.2442C2.72926 15.4754 2.8524 15.7553 2.89274 16.0522C2.93309 16.3492 2.88904 16.6514 2.76555 16.9249C2.68098 17.1137 2.6017 17.3057 2.5277 17.5008C2.41911 17.7803 2.23436 18.0242 1.99409 18.2054C1.75382 18.3866 1.4675 18.4979 1.16715 18.5269L0.878548 18.5552C0.636325 18.5781 0.411596 18.6904 0.24889 18.8699C0.0861845 19.0495 -0.00262494 19.2831 5.911e-05 19.5246V22.4516C-0.00077271 22.689 0.0885119 22.918 0.250133 23.0929C0.411755 23.2679 0.633854 23.376 0.872205 23.3958L1.16081 23.4242C1.46349 23.4504 1.75276 23.5601 1.99597 23.7408C2.23918 23.9216 2.42664 24.1662 2.53721 24.447C2.61015 24.639 2.68944 24.831 2.77507 25.0199C2.89726 25.2942 2.93975 25.5969 2.89771 25.8939C2.85568 26.1909 2.73081 26.4703 2.53721 26.7005L2.35327 26.9272C2.20193 27.1111 2.12465 27.3441 2.13637 27.5813C2.14808 27.8185 2.24796 28.0429 2.4167 28.2113L4.5035 30.2822C4.67314 30.4497 4.89931 30.5488 5.13829 30.5604C5.37727 30.5721 5.61212 30.4954 5.79745 30.3452L6.02579 30.1626C6.25878 29.972 6.54079 29.8498 6.84003 29.8098C7.13926 29.7698 7.44381 29.8135 7.71934 29.936C7.90963 30.021 8.10309 30.0997 8.29654 30.1721C8.57849 30.2797 8.82477 30.4629 9.00789 30.7013C9.19101 30.9397 9.30378 31.224 9.3336 31.5223L9.36215 31.8087C9.38208 32.0452 9.49105 32.2657 9.66737 32.426C9.84368 32.5864 10.0744 32.675 10.3136 32.6742H13.263C13.5009 32.6708 13.7293 32.5807 13.9047 32.4212C14.0801 32.2616 14.1904 32.0436 14.2144 31.8087L14.243 31.5223C14.2722 31.2242 14.3844 30.9401 14.5669 30.7016C14.7495 30.4632 14.9953 30.2798 15.2769 30.1721C15.4735 30.0986 15.667 30.02 15.8573 29.936C16.1328 29.8135 16.4373 29.7698 16.7366 29.8098C17.0358 29.8498 17.3178 29.972 17.5508 30.1626L17.776 30.3452C17.9618 30.4956 18.1972 30.5724 18.4367 30.5608C18.6762 30.5491 18.9029 30.4499 19.0731 30.2822L21.1567 28.2113C21.3329 28.0485 21.4404 27.8255 21.4574 27.5872C21.4745 27.3489 21.3999 27.113 21.2487 26.9272L21.0616 26.7005C20.8702 26.469 20.7475 26.1892 20.7072 25.8924C20.6668 25.5955 20.7105 25.2935 20.8332 25.0199C20.9189 24.831 21.0013 24.639 21.0743 24.447C21.1821 24.1668 21.3665 23.922 21.6069 23.7402C21.8473 23.5584 22.134 23.4468 22.4348 23.4179L22.7234 23.3895C22.9611 23.3666 23.1815 23.2559 23.3407 23.0792C23.4999 22.9025 23.5864 22.6729 23.5829 22.4359ZM12.5146 29.7314C10.7076 29.8788 8.89865 29.4722 7.33206 28.5665C5.76547 27.6608 4.51679 26.2997 3.75473 24.6671C2.99268 23.0345 2.75398 21.2091 3.0709 19.4375C3.38781 17.666 4.24506 16.0337 5.52682 14.7612C6.80857 13.4886 8.45304 12.6373 10.238 12.3221C12.023 12.0069 13.8625 12.243 15.5079 12.9987C17.1533 13.7543 18.5253 14.993 19.4385 16.5473C20.3518 18.1016 20.7622 19.8967 20.6144 21.69C20.4384 23.7637 19.5286 25.7087 18.0461 27.1805C16.5636 28.6523 14.6041 29.556 12.5146 29.7314Z" fill="white"/>
<path d="M34.5686 6.05072L33.6965 5.8902C33.6616 5.75487 33.6235 5.61953 33.5791 5.48419L34.2134 4.946C34.4291 4.82325 34.5305 4.59664 34.4417 4.44557L33.6045 3.01037C33.5375 2.93324 33.4431 2.88465 33.3409 2.87469C33.2388 2.86473 33.1367 2.89415 33.0558 2.95687L32.2186 3.24957C32.1192 3.14886 32.0135 3.05129 31.9014 2.95687L32.1837 2.17003C32.2465 2.08939 32.2756 1.98783 32.265 1.88644C32.2544 1.78506 32.2048 1.69162 32.1266 1.62554L30.6804 0.797786C30.5282 0.709661 30.303 0.797786 30.1793 1.02125L29.6021 1.69163C29.4658 1.65387 29.3294 1.61925 29.1898 1.59092L29.0376 0.76946C29.0376 0.523967 28.8917 0.325684 28.7205 0.325684H27.0459C26.8683 0.325684 26.7288 0.523967 26.7288 0.76946L26.5671 1.63498C26.4307 1.6696 26.2943 1.70737 26.1579 1.75143L25.6125 1.12196C25.4888 0.907944 25.2636 0.807228 25.1114 0.895354L23.6589 1.72311C23.5806 1.78919 23.5311 1.88262 23.5205 1.98401C23.5098 2.0854 23.5389 2.18695 23.6018 2.2676L23.8999 3.0985C23.7984 3.19502 23.7001 3.29993 23.6049 3.41324L22.8121 3.13312C22.7308 3.07078 22.6285 3.04188 22.5263 3.05243C22.4242 3.06298 22.33 3.11216 22.2634 3.18977L21.4293 4.62497C21.3405 4.77604 21.4293 4.9995 21.6545 5.12225L22.33 5.67618C22.292 5.81152 22.2571 5.94685 22.2285 6.08534L21.4008 6.23641C21.1534 6.23641 20.9536 6.38119 20.9536 6.55115V8.20665C20.9536 8.38605 21.1534 8.52139 21.4008 8.52139L22.2729 8.6819C22.3078 8.81724 22.3459 8.95258 22.3903 9.08791L21.756 9.62926C21.5403 9.752 21.4388 9.97546 21.5276 10.1265L22.3617 11.5617C22.4289 11.6396 22.5236 11.6888 22.6263 11.6994C22.7289 11.7099 22.8318 11.6809 22.9136 11.6184L23.7477 11.3414C23.847 11.4421 23.9527 11.5397 24.0648 11.6341L23.7857 12.421C23.7229 12.5016 23.6938 12.6032 23.7044 12.7045C23.715 12.8059 23.7646 12.8994 23.8428 12.9654L25.289 13.7932C25.4412 13.8813 25.6664 13.7932 25.7901 13.5697L26.3514 12.9151C26.4846 12.9529 26.6241 12.9875 26.7637 13.0158L26.9159 13.8373C26.9159 14.0828 27.0618 14.281 27.2331 14.281H28.9012C29.0788 14.281 29.2184 14.0828 29.2184 13.8373L29.3801 12.9717C29.5165 12.9371 29.6529 12.8994 29.7892 12.8553L30.3316 13.4848C30.4552 13.6988 30.6836 13.7995 30.8358 13.7114L32.282 12.8836C32.3599 12.8166 32.409 12.7224 32.419 12.6205C32.429 12.5186 32.3993 12.4167 32.3359 12.336L32.041 11.5051C32.1424 11.4086 32.2408 11.3036 32.3359 11.1903L33.1288 11.4705C33.21 11.5328 33.3124 11.5617 33.4145 11.5512C33.5167 11.5406 33.6108 11.4914 33.6774 11.4138L34.5115 9.97861C34.6003 9.82754 34.5115 9.60408 34.2863 9.48133L33.6172 8.90851C33.6552 8.77632 33.6901 8.63784 33.7187 8.49936L34.5464 8.34828C34.7938 8.34828 34.9936 8.20351 34.9936 8.03355V6.37175C34.9999 6.19549 34.8001 6.05072 34.5686 6.05072ZM27.9752 11.9929C27.0386 11.9929 26.123 11.7172 25.3442 11.2008C24.5655 10.6843 23.9586 9.95023 23.6003 9.09142C23.2421 8.23261 23.1485 7.28764 23.3314 6.37603C23.5144 5.46443 23.9657 4.62716 24.6282 3.97012C25.2907 3.31307 26.1347 2.86579 27.0534 2.68483C27.9721 2.50387 28.9242 2.59738 29.7894 2.95352C30.6545 3.30966 31.3938 3.91243 31.9137 4.68559C32.4336 5.45875 32.7108 6.36756 32.7101 7.29707C32.7101 7.914 32.5876 8.52489 32.3496 9.09482C32.1117 9.66475 31.7628 10.1826 31.3231 10.6186C30.8834 11.0547 30.3614 11.4006 29.7869 11.6364C29.2125 11.8722 28.5968 11.9933 27.9752 11.9929Z" fill="white"/>
<path d="M27.9753 3.84766C27.2702 3.84766 26.5809 4.05522 25.9946 4.44407C25.4083 4.83293 24.9514 5.38562 24.6817 6.03222C24.412 6.67882 24.3416 7.39028 24.4794 8.0766C24.6172 8.76291 24.957 9.39325 25.4558 9.88787C25.9547 10.3825 26.5902 10.7192 27.2819 10.8553C27.9735 10.9915 28.6904 10.921 29.3417 10.6527C29.993 10.3845 30.5495 9.93056 30.9408 9.34839C31.3321 8.76622 31.5407 8.08194 31.54 7.38213C31.54 6.91772 31.4478 6.45785 31.2686 6.02882C31.0894 5.59979 30.8268 5.21002 30.4958 4.88177C30.1647 4.55352 29.7717 4.29324 29.3393 4.1158C28.9068 3.93836 28.4433 3.84724 27.9753 3.84766ZM27.9753 10.2336C27.4071 10.2336 26.8515 10.0664 26.379 9.75307C25.9065 9.43974 25.5382 8.9944 25.3207 8.47336C25.1033 7.95231 25.0464 7.37897 25.1572 6.82583C25.2681 6.2727 25.5418 5.76461 25.9436 5.36582C26.3454 4.96703 26.8574 4.69545 27.4148 4.58542C27.9722 4.4754 28.5499 4.53187 29.0749 4.74769C29.5999 4.96351 30.0487 5.329 30.3644 5.79792C30.6801 6.26685 30.8487 6.81816 30.8487 7.38213C30.8487 7.7566 30.7743 8.1274 30.6299 8.47336C30.4855 8.81932 30.2739 9.13366 30.0071 9.39845C29.7403 9.66324 29.4235 9.87328 29.0749 10.0166C28.7263 10.1599 28.3527 10.2336 27.9753 10.2336Z" fill="#4ADFBF"/>
<path d="M8.09356 25.7534C6.88073 24.4393 6.24295 22.7013 6.32025 20.9209C6.39755 19.1406 7.18362 17.4635 8.50584 16.2578L8.8991 16.6921C7.69066 17.7944 6.97223 19.3275 6.90147 20.9549C6.83072 22.5823 7.41342 24.171 8.5217 25.3725L8.09356 25.7534Z" fill="white"/>
</g>
<defs>
<clipPath id="clip0_983_5160">
<rect width="35" height="32.3485" fill="white" transform="translate(0 0.325684)"/>
</clipPath>
</defs>
</svg>
