<svg width="35" height="35" viewBox="0 0 35 35" fill="none" xmlns="http://www.w3.org/2000/svg">
<g clip-path="url(#clip0_983_4678)">
<path d="M21.1174 18.8738C24.3751 18.8772 27.4983 20.1727 29.8018 22.4762C32.1053 24.7797 33.4009 27.903 33.4043 31.1606C33.4043 31.7531 33.1689 32.3213 32.75 32.7403C32.331 33.1592 31.7628 33.3946 31.1703 33.3946H3.82967C3.23718 33.3946 2.66896 33.1592 2.25001 32.7403C1.83106 32.3213 1.5957 31.7531 1.5957 31.1606C1.59907 27.9035 2.89423 24.7808 5.19704 22.4774C7.49985 20.174 10.6223 18.878 13.8794 18.8738H21.1174ZM21.1174 17.2781H13.8794C10.2011 17.289 6.67675 18.7553 4.07614 21.3565C1.47553 23.9577 0.0101027 27.4824 0 31.1606C0 32.1763 0.403482 33.1504 1.12168 33.8686C1.83989 34.5868 2.81398 34.9903 3.82967 34.9903H31.1703C32.186 34.9903 33.1601 34.5868 33.8783 33.8686C34.5965 33.1504 35 32.1763 35 31.1606C34.9891 27.4821 33.5229 23.9574 30.9218 21.3563C28.3207 18.7552 24.796 17.289 21.1174 17.2781Z" fill="white"/>
<path d="M3.4913 31.6682C2.24666 27.2003 6.59014 21.9089 11.0581 20.6643L11.2496 21.36C7.16778 22.4962 3.05089 27.395 4.18702 31.4767L3.4913 31.6682Z" fill="white"/>
<path d="M17.5527 1.60522C18.6995 1.60522 19.8207 1.94531 20.7743 2.58248C21.7279 3.21966 22.4711 4.1253 22.91 5.18489C23.3489 6.24447 23.4637 7.41041 23.24 8.53526C23.0163 9.66011 22.464 10.6933 21.653 11.5043C20.842 12.3153 19.8088 12.8676 18.6839 13.0913C17.5591 13.3151 16.3932 13.2002 15.3336 12.7613C14.274 12.3224 13.3683 11.5792 12.7312 10.6256C12.094 9.67199 11.7539 8.55086 11.7539 7.40398C11.7556 5.86657 12.3671 4.39261 13.4542 3.3055C14.5413 2.21839 16.0153 1.60691 17.5527 1.60522ZM17.5527 0.00952148C16.0902 0.00952148 14.6605 0.443199 13.4445 1.25571C12.2285 2.06823 11.2807 3.22308 10.7211 4.57424C10.1614 5.9254 10.015 7.41218 10.3003 8.84656C10.5856 10.2809 11.2899 11.5985 12.324 12.6326C13.3581 13.6668 14.6757 14.371 16.1101 14.6564C17.5445 14.9417 19.0312 14.7952 20.3824 14.2356C21.7336 13.6759 22.8884 12.7281 23.7009 11.5121C24.5134 10.2961 24.9471 8.86646 24.9471 7.40398C24.9471 5.44285 24.1681 3.56204 22.7813 2.17531C21.3946 0.788578 19.5138 0.00952148 17.5527 0.00952148Z" fill="white"/>
</g>
<defs>
<clipPath id="clip0_983_4678">
<rect width="35" height="34.9809" fill="white" transform="translate(0 0.00952148)"/>
</clipPath>
</defs>
</svg>
