<svg width="15" height="15" viewBox="0 0 15 15" fill="none" xmlns="http://www.w3.org/2000/svg">
<g clip-path="url(#clip0_836_6060)">
<path d="M0.9375 4.21865L7.15641 2.88599C7.3829 2.83748 7.6171 2.83748 7.84359 2.88599L14.0625 4.21865V11.6249C14.0625 12.2714 13.8057 12.8914 13.3486 13.3485C12.8915 13.8056 12.2715 14.0624 11.625 14.0624H3.375C2.72853 14.0624 2.10855 13.8056 1.65143 13.3485C1.19431 12.8914 0.9375 12.2714 0.9375 11.6249V4.21865Z" fill="#B4ACBC"/>
<path d="M1.40625 5.11172V11.4844C1.40625 12.0438 1.62849 12.5803 2.02407 12.9759C2.41966 13.3715 2.95618 13.5938 3.51562 13.5938H11.0156L13.5938 10.9373V5.11172L7.5 4.21875L1.40625 5.11172Z" fill="#F3EEF8"/>
<path d="M3.84375 6.09375C3.81889 6.09375 3.79504 6.10363 3.77746 6.12121C3.75988 6.13879 3.75 6.16264 3.75 6.1875V7.40625C3.75 7.45781 3.79219 7.5 3.84375 7.5H5.0625C5.08736 7.5 5.11121 7.49012 5.12879 7.47254C5.14637 7.45496 5.15625 7.43111 5.15625 7.40625V6.1875C5.15625 6.16264 5.14637 6.13879 5.12879 6.12121C5.11121 6.10363 5.08736 6.09375 5.0625 6.09375H3.84375ZM6.89062 6.09375C6.86576 6.09375 6.84192 6.10363 6.82433 6.12121C6.80675 6.13879 6.79688 6.16264 6.79688 6.1875V7.40625C6.79688 7.45781 6.83906 7.5 6.89062 7.5H8.10938C8.13424 7.5 8.15808 7.49012 8.17567 7.47254C8.19325 7.45496 8.20313 7.43111 8.20313 7.40625V6.1875C8.20313 6.16264 8.19325 6.13879 8.17567 6.12121C8.15808 6.10363 8.13424 6.09375 8.10938 6.09375H6.89062ZM9.84375 6.1875C9.84375 6.13594 9.88594 6.09375 9.9375 6.09375H11.1562C11.2078 6.09375 11.25 6.13594 11.25 6.1875V7.40625C11.25 7.43111 11.2401 7.45496 11.2225 7.47254C11.205 7.49012 11.1811 7.5 11.1562 7.5H9.9375C9.91264 7.5 9.88879 7.49012 9.87121 7.47254C9.85363 7.45496 9.84375 7.43111 9.84375 7.40625V6.1875ZM3.84375 8.4375C3.81889 8.4375 3.79504 8.44738 3.77746 8.46496C3.75988 8.48254 3.75 8.50639 3.75 8.53125V9.75C3.75 9.80156 3.79219 9.84375 3.84375 9.84375H5.0625C5.08736 9.84375 5.11121 9.83387 5.12879 9.81629C5.14637 9.79871 5.15625 9.77486 5.15625 9.75V8.53125C5.15625 8.50639 5.14637 8.48254 5.12879 8.46496C5.11121 8.44738 5.08736 8.4375 5.0625 8.4375H3.84375ZM6.79688 8.53125C6.79688 8.47969 6.83906 8.4375 6.89062 8.4375H8.10938C8.16094 8.4375 8.20313 8.47969 8.20313 8.53125V9.75C8.20313 9.77486 8.19325 9.79871 8.17567 9.81629C8.15808 9.83387 8.13424 9.84375 8.10938 9.84375H6.89062C6.86576 9.84375 6.84192 9.83387 6.82433 9.81629C6.80675 9.79871 6.79688 9.77486 6.79688 9.75V8.53125ZM3.84375 10.7812C3.81889 10.7812 3.79504 10.7911 3.77746 10.8087C3.75988 10.8263 3.75 10.8501 3.75 10.875V12.0937C3.75 12.1453 3.79219 12.1875 3.84375 12.1875H5.0625C5.08736 12.1875 5.11121 12.1776 5.12879 12.16C5.14637 12.1425 5.15625 12.1186 5.15625 12.0937V10.875C5.15625 10.8501 5.14637 10.8263 5.12879 10.8087C5.11121 10.7911 5.08736 10.7812 5.0625 10.7812H3.84375ZM6.79688 10.875C6.79688 10.8234 6.83906 10.7812 6.89062 10.7812H8.10938C8.16094 10.7812 8.20313 10.8234 8.20313 10.875V12.0937C8.20313 12.1186 8.19325 12.1425 8.17567 12.16C8.15808 12.1776 8.13424 12.1875 8.10938 12.1875H6.89062C6.86576 12.1875 6.84192 12.1776 6.82433 12.16C6.80675 12.1425 6.79688 12.1186 6.79688 12.0937V10.875ZM9.9375 10.7812C9.91264 10.7812 9.88879 10.7911 9.87121 10.8087C9.85363 10.8263 9.84375 10.8501 9.84375 10.875V12.0937C9.84375 12.1453 9.88594 12.1875 9.9375 12.1875H11.1562C11.1811 12.1875 11.205 12.1776 11.2225 12.16C11.2401 12.1425 11.25 12.1186 11.25 12.0937V10.875C11.25 10.8501 11.2401 10.8263 11.2225 10.8087C11.205 10.7911 11.1811 10.7812 11.1562 10.7812H9.9375ZM14.0672 12.3V10.7812L11.9531 11.9531L10.7859 14.0625H12.3047C13.2797 14.0625 14.0672 13.2703 14.0672 12.3Z" fill="#998EA4"/>
<path d="M10.7859 12.5438V14.0625L14.0671 10.7812H12.5484C11.5781 10.7812 10.7859 11.5734 10.7859 12.5438Z" fill="#E1D8EC"/>
<path d="M14.0625 4.11855V5.15684H0.9375V4.11855C0.9375 3.13699 1.72969 2.33965 2.69953 2.34434H11.7356L12.0769 2.07715L12.4387 2.34996C13.3444 2.42027 14.0625 3.18434 14.0625 4.11855ZM9.9375 8.43809C9.91264 8.43809 9.88879 8.44796 9.87121 8.46554C9.85363 8.48313 9.84375 8.50697 9.84375 8.53184V9.75059C9.84375 9.80215 9.88594 9.84434 9.9375 9.84434H11.1562C11.1811 9.84434 11.205 9.83446 11.2225 9.81688C11.2401 9.7993 11.25 9.77545 11.25 9.75059V8.53184C11.25 8.50697 11.2401 8.48313 11.2225 8.46554C11.205 8.44796 11.1811 8.43809 11.1562 8.43809H9.9375Z" fill="#009EA0"/>
<path d="M5.3999 2.34391C5.37112 2.53076 5.40701 2.72184 5.50163 2.88551C5.59625 3.04917 5.74393 3.17562 5.92022 3.24391C6.07397 3.30391 6.21084 3.43282 6.21084 3.59735C6.21084 3.82094 6.02569 4.0075 5.81006 3.94797C5.46354 3.85177 5.16187 3.63679 4.95784 3.34064C4.75381 3.04449 4.66041 2.68603 4.69397 2.32797C4.66908 2.18516 4.60721 2.05135 4.51451 1.93989C4.42181 1.82843 4.30153 1.7432 4.16564 1.6927C4.02975 1.64219 3.883 1.62818 3.74001 1.65204C3.59702 1.67591 3.46277 1.73683 3.35065 1.82872C3.23853 1.92062 3.15244 2.04029 3.10097 2.17582C3.0495 2.31134 3.03443 2.45799 3.05727 2.60115C3.08012 2.74431 3.14007 2.87898 3.23117 2.99176C3.32226 3.10453 3.44131 3.19147 3.57647 3.24391C3.73022 3.30344 3.86709 3.43235 3.86709 3.59688C3.86709 3.82047 3.68194 4.00704 3.46631 3.9475C3.10974 3.84773 2.80131 3.62229 2.598 3.31283C2.3947 3.00337 2.31024 2.63079 2.36024 2.26391C2.41023 1.89703 2.5913 1.56063 2.87 1.31686C3.1487 1.07308 3.5062 0.938388 3.87647 0.937661C4.34662 0.937661 4.76709 1.14907 5.04834 1.48235C5.19202 1.31146 5.37141 1.17414 5.57387 1.08003C5.77633 0.98593 5.99695 0.937332 6.22022 0.937661C6.69037 0.937661 7.11084 1.14907 7.39209 1.48235C7.53578 1.31146 7.71516 1.17414 7.91762 1.08003C8.12008 0.98593 8.3407 0.937332 8.56397 0.937661C9.03412 0.937661 9.45459 1.14907 9.73584 1.48235C9.93145 1.25032 10.1915 1.08158 10.4831 0.997499C10.7747 0.913422 11.0847 0.917796 11.3738 1.01007C11.6629 1.10234 11.9181 1.27835 12.1071 1.5158C12.2961 1.75326 12.4103 2.04147 12.4354 2.34391H11.7276C11.6976 2.14948 11.5994 1.97204 11.4507 1.84326C11.302 1.71447 11.1124 1.64272 10.9157 1.6408C10.7189 1.63889 10.5279 1.70694 10.3767 1.8328C10.2255 1.95867 10.124 2.13417 10.0902 2.32797L10.0916 2.34391H10.0874C10.0586 2.53076 10.0945 2.72184 10.1891 2.88551C10.2838 3.04917 10.4314 3.17562 10.6077 3.24391C10.7615 3.30391 10.8983 3.43282 10.8983 3.59735C10.8983 3.82094 10.7132 4.0075 10.4976 3.94797C10.151 3.85177 9.84937 3.63679 9.64534 3.34064C9.44131 3.04449 9.34791 2.68603 9.38147 2.32797C9.34809 2.13537 9.24777 1.96073 9.09821 1.83486C8.94865 1.70899 8.75945 1.63997 8.56397 1.63997C8.36849 1.63997 8.17929 1.70899 8.02973 1.83486C7.88017 1.96073 7.77985 2.13537 7.74647 2.32797L7.74787 2.34391H7.74366C7.71487 2.53076 7.75076 2.72184 7.84538 2.88551C7.94 3.04917 8.08768 3.17562 8.26397 3.24391C8.41772 3.30391 8.55459 3.43282 8.55459 3.59735C8.55459 3.82094 8.36944 4.0075 8.15381 3.94797C7.80729 3.85177 7.50562 3.63679 7.30159 3.34064C7.09756 3.04449 7.00416 2.68603 7.03772 2.32797C7.00434 2.13537 6.90402 1.96073 6.75446 1.83486C6.6049 1.70899 6.4157 1.63997 6.22022 1.63997C6.02474 1.63997 5.83554 1.70899 5.68598 1.83486C5.53642 1.96073 5.4361 2.13537 5.40272 2.32797L5.40412 2.34391H5.3999Z" fill="#CDC4D6"/>
</g>
<defs>
<clipPath id="clip0_836_6060">
<rect width="15" height="15" fill="white"/>
</clipPath>
</defs>
</svg>
