<svg width="108" height="108" viewBox="0 0 108 108" fill="none" xmlns="http://www.w3.org/2000/svg">
<path d="M56.5 0C65.0539 1.02005e-07 73.4619 2.21666 80.904 6.43384C88.3461 10.651 94.5684 16.7248 98.9641 24.0629L56.5 49.5V0Z" fill="#0B87BA"/>
<path d="M54 0C42.0783 -1.42165e-07 30.4916 3.94518 21.047 11.2203C11.6024 18.4954 4.83083 28.6915 1.78823 40.2184C-1.25436 51.7454 -0.396894 63.9552 4.22692 74.9437C8.85073 85.9323 16.9809 95.0818 27.3497 100.966C37.7184 106.849 49.7427 109.136 61.5474 107.47C73.3521 105.804 84.2736 100.278 92.6087 91.7541C100.944 83.2303 106.224 72.1879 107.625 60.3488C109.027 48.5098 106.472 36.5397 100.357 26.3052L54 54V0Z" fill="#F3AE5F"/>
</svg>
