<svg width="21" height="20" viewBox="0 0 21 20" fill="none" xmlns="http://www.w3.org/2000/svg">
<g clip-path="url(#clip0_983_45)">
<path d="M13.9239 7.16639C13.9239 7.2881 13.8878 7.40709 13.8202 7.50829C13.7526 7.6095 13.6565 7.68838 13.544 7.73496C13.4316 7.78153 13.3078 7.79372 13.1884 7.76998C13.0691 7.74623 12.9594 7.68762 12.8733 7.60155C12.7873 7.51548 12.7287 7.40583 12.7049 7.28645C12.6812 7.16707 12.6933 7.04333 12.7399 6.93088C12.7865 6.81842 12.8654 6.72231 12.9666 6.65469C13.0678 6.58706 13.1868 6.55097 13.3085 6.55097C13.4717 6.55097 13.6283 6.61581 13.7437 6.73122C13.8591 6.84663 13.9239 7.00317 13.9239 7.16639ZM13.1576 9.92501C13.1576 10.4363 13.006 10.9362 12.7219 11.3614C12.4378 11.7865 12.034 12.1179 11.5616 12.3136C11.0892 12.5093 10.5693 12.5605 10.0678 12.4607C9.56629 12.361 9.10561 12.1147 8.74404 11.7532C8.38246 11.3916 8.13623 10.9309 8.03647 10.4294C7.93671 9.92787 7.98791 9.40804 8.18359 8.93562C8.37928 8.4632 8.71065 8.05942 9.13582 7.77533C9.56099 7.49124 10.0608 7.33961 10.5722 7.33961C11.2576 7.34047 11.9148 7.6132 12.3994 8.09797C12.884 8.58274 13.1565 9.23995 13.1572 9.92541L13.1576 9.92501ZM12.2282 9.92501C12.2282 9.59748 12.1311 9.27732 11.9491 9.00499C11.7671 8.73267 11.5085 8.52041 11.2059 8.39508C10.9033 8.26974 10.5704 8.23695 10.2491 8.30084C9.92789 8.36474 9.63283 8.52246 9.40123 8.75405C9.16964 8.98564 9.01192 9.28071 8.94802 9.60194C8.88413 9.92317 8.91692 10.2561 9.04226 10.5587C9.1676 10.8613 9.37985 11.1199 9.65217 11.3019C9.9245 11.4839 10.2447 11.581 10.5722 11.581C11.0112 11.5806 11.4321 11.406 11.7425 11.0956C12.053 10.7853 12.2276 10.3644 12.2282 9.92541V9.92501ZM15.805 7.84793C15.8049 7.01164 15.4727 6.20964 14.8813 5.61829C14.29 5.02695 13.488 4.69469 12.6517 4.69458H8.34866C7.51237 4.69469 6.71037 5.02695 6.11903 5.61829C5.52768 6.20964 5.19542 7.01164 5.19531 7.84793V12.1518C5.19531 12.9881 5.52754 13.7902 6.11891 14.3815C6.71027 14.9729 7.51234 15.3051 8.34866 15.3051H12.6517C13.488 15.3051 14.2901 14.9729 14.8815 14.3815C15.4728 13.7902 15.805 12.9881 15.805 12.1518V7.84793ZM14.7698 12.1043C14.7698 12.3887 14.7137 12.6704 14.6049 12.9331C14.496 13.1959 14.3365 13.4346 14.1353 13.6357C13.9342 13.8368 13.6954 13.9963 13.4327 14.1051C13.1699 14.2139 12.8882 14.2699 12.6038 14.2698H8.39612C8.11171 14.2699 7.83007 14.2139 7.56729 14.1051C7.30451 13.9963 7.06574 13.8368 6.86461 13.6357C6.66348 13.4346 6.50393 13.1959 6.39508 12.9331C6.28623 12.6704 6.2302 12.3887 6.2302 12.1043V7.8958C6.2302 7.61138 6.28623 7.32975 6.39508 7.067C6.50393 6.80424 6.66348 6.56549 6.86461 6.3644C7.06574 6.16331 7.30451 6.00381 7.56729 5.895C7.83007 5.7862 8.11171 5.73023 8.39612 5.73028H12.6038C12.8882 5.73023 13.1699 5.7862 13.4327 5.895C13.6954 6.00381 13.9342 6.16331 14.1353 6.3644C14.3365 6.56549 14.496 6.80424 14.6049 7.067C14.7137 7.32975 14.7698 7.61138 14.7698 7.8958V12.1043Z" fill="#009EA0"/>
<path d="M10.5 20C4.986 20 0.5 15.514 0.5 10C0.5 4.486 4.986 0 10.5 0C16.014 0 20.5 4.486 20.5 10C20.5 15.514 16.014 20 10.5 20ZM10.5 0.770791C5.40872 0.770791 1.27079 4.90872 1.27079 10C1.27079 15.0913 5.40872 19.2292 10.5 19.2292C15.5913 19.2292 19.7292 15.0913 19.7292 10C19.7292 4.90872 15.5913 0.770791 10.5 0.770791Z" fill="#009EA0"/>
</g>
<defs>
<clipPath id="clip0_983_45">
<rect width="20" height="20" fill="white" transform="translate(0.5)"/>
</clipPath>
</defs>
</svg>
