<svg width="20" height="21" viewBox="0 0 20 21" fill="none" xmlns="http://www.w3.org/2000/svg">
<path d="M16.2375 17.295L11.0192 12.0767C10.6025 12.4317 10.1233 12.7064 9.58167 12.9009C9.04001 13.0953 8.49556 13.1925 7.94834 13.1925C6.6139 13.1925 5.48445 12.7306 4.56001 11.8067C3.63556 10.8823 3.17334 9.75309 3.17334 8.4192C3.17334 7.08531 3.63501 5.95559 4.55834 5.03004C5.48223 4.10392 6.61112 3.64087 7.94501 3.64087C9.27945 3.64087 10.4095 4.10309 11.335 5.02754C12.2606 5.95198 12.7233 7.0817 12.7233 8.4167C12.7233 8.99559 12.6208 9.55587 12.4158 10.0975C12.2103 10.6392 11.9408 11.1025 11.6075 11.4875L16.8258 16.705L16.2375 17.295ZM7.94834 12.3584C9.0539 12.3584 9.98751 11.9778 10.7492 11.2167C11.5103 10.4556 11.8908 9.52198 11.8908 8.41587C11.8908 7.31031 11.5103 6.37698 10.7492 5.61587C9.98806 4.85476 9.05473 4.4742 7.94917 4.4742C6.84362 4.4742 5.91001 4.85476 5.14834 5.61587C4.38723 6.37698 4.00667 7.31031 4.00667 8.41587C4.00667 9.52142 4.38723 10.4548 5.14834 11.2159C5.90945 11.977 6.84278 12.3584 7.94834 12.3584Z" fill="#616161"/>
</svg>
