<svg width="16" height="15" viewBox="0 0 16 15" fill="none" xmlns="http://www.w3.org/2000/svg">
<path d="M4.22955 13.125C3.9485 13.125 3.70878 13.0267 3.51037 12.83C3.31237 12.6333 3.21338 12.3952 3.21338 12.1156V6.63438C3.21338 6.35521 3.31237 6.11708 3.51037 5.92C3.70836 5.72333 3.94808 5.625 4.22955 5.625H5.10101V4.375C5.10101 3.67875 5.34514 3.08792 5.8334 2.6025C6.32167 2.11708 6.91648 1.87458 7.61784 1.875C8.31878 1.875 8.91359 2.1175 9.40228 2.6025C9.89096 3.0875 10.1351 3.67833 10.1347 4.375V5.625H11.0061C11.2872 5.625 11.5269 5.72333 11.7253 5.92C11.9233 6.11667 12.0223 6.35479 12.0223 6.63438V12.1156C12.0223 12.3948 11.9233 12.6329 11.7253 12.83C11.5273 13.0267 11.2876 13.125 11.0061 13.125H4.22955ZM4.22955 12.5H11.0061C11.119 12.5 11.2117 12.464 11.2842 12.3919C11.3568 12.3198 11.3931 12.2277 11.3931 12.1156V6.63438C11.3931 6.52229 11.3568 6.43021 11.2842 6.35813C11.2117 6.28604 11.119 6.25 11.0061 6.25H4.22955C4.11671 6.25 4.02401 6.28604 3.95144 6.35813C3.87887 6.43021 3.84259 6.52229 3.84259 6.63438V12.1156C3.84259 12.2277 3.87887 12.3198 3.95144 12.3919C4.02401 12.464 4.11671 12.5 4.22955 12.5ZM7.61784 10.3125C7.88337 10.3125 8.10695 10.2221 8.28858 10.0413C8.47063 9.86083 8.56165 9.63875 8.56165 9.375C8.56165 9.11125 8.47063 8.88917 8.28858 8.70875C8.10695 8.52792 7.88337 8.4375 7.61784 8.4375C7.35231 8.4375 7.12874 8.52792 6.9471 8.70875C6.76505 8.88917 6.67403 9.11125 6.67403 9.375C6.67403 9.63875 6.76505 9.86083 6.9471 10.0413C7.12874 10.2221 7.35231 10.3125 7.61784 10.3125ZM5.73021 5.625H9.50547V4.375C9.50547 3.85417 9.32195 3.41146 8.95491 3.04688C8.58787 2.68229 8.14218 2.5 7.61784 2.5C7.0935 2.5 6.64781 2.68229 6.28077 3.04688C5.91373 3.41146 5.73021 3.85417 5.73021 4.375V5.625Z" fill="#444444"/>
</svg>
