<svg width="16" height="15" viewBox="0 0 16 15" fill="none" xmlns="http://www.w3.org/2000/svg">
<path d="M2.97113 11.875C2.68169 11.875 2.44008 11.7788 2.24628 11.5863C2.05206 11.3933 1.95496 11.1531 1.95496 10.8656V4.13437C1.95496 3.84687 2.05206 3.60687 2.24628 3.41437C2.44008 3.22146 2.68169 3.125 2.97113 3.125H12.2645C12.554 3.125 12.7956 3.22146 12.9894 3.41437C13.1836 3.60687 13.2807 3.84687 13.2807 4.13437V10.8656C13.2807 11.1531 13.1838 11.3931 12.99 11.5856C12.7958 11.7785 12.554 11.875 12.2645 11.875H2.97113ZM7.61784 7.57187L2.58416 4.30313V10.8656C2.58416 10.9777 2.62045 11.0698 2.69302 11.1419C2.76559 11.214 2.85829 11.25 2.97113 11.25H12.2645C12.3774 11.25 12.4701 11.214 12.5427 11.1419C12.6152 11.0698 12.6515 10.9777 12.6515 10.8656V4.30313L7.61784 7.57187ZM7.61784 6.875L12.4577 3.75H2.77796L7.61784 6.875ZM2.58416 4.30313V3.75V10.8656C2.58416 10.9777 2.62045 11.0698 2.69302 11.1419C2.76559 11.214 2.85829 11.25 2.97113 11.25H2.58416V4.30313Z" fill="#444444"/>
</svg>
