<svg width="21" height="20" viewBox="0 0 21 20" fill="none" xmlns="http://www.w3.org/2000/svg">
<g clip-path="url(#clip0_983_40)">
<path d="M10.5118 20C4.98844 20.0065 0.493516 15.5116 0.500007 9.98784C0.506498 4.4921 4.9925 0.00649789 10.4882 7.02099e-06C16.0116 -0.00648385 20.5065 4.48844 20.5 10.0118C20.4935 15.5075 16.0079 19.9935 10.5118 20ZM10.5118 0.770798C5.41279 0.76309 1.2635 4.91238 1.2708 10.011C1.27688 15.082 5.41765 19.2248 10.4907 19.2308C15.5893 19.2365 19.7402 15.0876 19.7325 9.98946C19.7252 4.91603 15.5844 0.775261 10.5114 0.770798H10.5118Z" fill="#009EA0"/>
<path d="M14.7596 9.0989V7.27699C12.5033 7.17679 12.4473 5.01208 12.4473 4.80884H10.7146V11.89C10.7146 12.6948 10.098 13.3472 9.34139 13.3468C8.58479 13.3464 7.97059 12.6928 7.971 11.8863C7.97141 11.0798 8.59128 10.4295 9.35031 10.4299C9.48711 10.431 9.62301 10.4523 9.75356 10.4932V8.61492C8.04565 8.38003 6.48743 9.65509 6.26674 11.4644C6.04605 13.2737 7.24037 14.9297 8.94179 15.1646C10.6432 15.3995 12.2022 14.124 12.4229 12.3155C12.4429 12.1284 12.4513 11.9402 12.4481 11.752V8.25752C13.2465 9.03277 14.7596 9.0989 14.7596 9.0989Z" fill="#009EA0"/>
</g>
<defs>
<clipPath id="clip0_983_40">
<rect width="20" height="20" fill="white" transform="translate(0.5)"/>
</clipPath>
</defs>
</svg>
