<svg width="35" height="35" viewBox="0 0 35 35" fill="none" xmlns="http://www.w3.org/2000/svg">
<g clip-path="url(#clip0_983_4693)">
<path d="M27.1803 34.6598C25.3276 34.6598 23.5133 33.2639 20.4212 29.6895C16.3388 24.9683 14.0837 17.8705 13.3362 12.8203C12.5376 7.38684 13.7355 3.18313 14.3744 2.34622C15.0132 1.50932 16.5273 0.880037 19.0316 0.49672C22.4368 -0.0271457 24.4109 0.758653 24.89 2.82856C25.251 4.37461 25.9601 8.17264 24.7846 10.0796C23.6698 11.894 21.2229 11.3382 20.418 11.1529L20.303 11.1274C20.2391 11.9771 20.303 14.2354 21.2613 17.3786C22.1173 20.1161 23.9573 22.7003 24.8453 23.796C25.4171 23.3552 26.2604 22.6908 26.7619 22.2276C27.8032 21.2885 28.1929 21.1 29.6367 21.4098C31.3585 21.7772 33.3837 24.9907 34.1727 26.3546C35.2939 28.2712 35.2619 29.5489 34.0736 30.7085C33.2719 31.5038 30.4321 33.8804 28.4293 34.465C28.0247 34.5905 27.6039 34.6561 27.1803 34.6598ZM20.9227 1.93735C20.3705 1.94288 19.8195 1.98986 19.2744 2.0779C16.5369 2.49636 15.8278 3.08091 15.6521 3.3141C15.2975 3.80283 14.1699 7.50503 14.9174 12.5776C15.6329 17.4138 17.7699 24.1729 21.6254 28.6354C25.5704 33.1968 26.7363 33.2895 27.9725 32.9221C29.5697 32.4462 32.1507 30.3667 32.962 29.5585C33.4028 29.1273 33.751 28.7855 32.7991 27.1468C31.3744 24.6904 29.9051 23.09 29.3077 22.9623C28.5187 22.7898 28.5187 22.793 27.8415 23.4031C26.9567 24.1985 25.2637 25.473 25.1903 25.5273L24.5961 25.9809L24.1074 25.4251C23.9796 25.2813 20.9578 21.8123 19.744 17.845C18.6196 14.1652 18.6036 11.5203 18.7537 10.6323C18.8208 10.233 19.1307 9.33217 20.5234 9.54299L20.763 9.60368C21.29 9.72187 22.8936 10.0892 23.411 9.24912C23.9956 8.29082 23.9605 5.93023 23.3216 3.1991C23.2577 2.85092 23.0437 1.93735 20.9227 1.93735Z" fill="white"/>
<path d="M8.30519 29.1942H0.638861C0.277905 29.1942 0 28.8045 0 28.3253V27.9356C0 27.4533 0.290682 27.0636 0.638861 27.0636H8.30519C8.66615 27.0636 8.94405 27.4533 8.94405 27.9356V28.3253C8.94405 28.8045 8.65337 29.1942 8.30519 29.1942ZM11.4292 29.1463L13.0519 28.2104C13.0918 28.1878 13.125 28.1551 13.148 28.1155C13.1711 28.0759 13.1833 28.031 13.1833 27.9852C13.1833 27.9394 13.1711 27.8944 13.148 27.8548C13.125 27.8152 13.0918 27.7825 13.0519 27.76L11.4292 26.824L9.79374 25.8945C9.7544 25.8714 9.70966 25.8591 9.66404 25.8589C9.61843 25.8587 9.57357 25.8705 9.53401 25.8932C9.49444 25.9159 9.46158 25.9487 9.43876 25.9882C9.41593 26.0276 9.40395 26.0725 9.40403 26.1181V29.8586C9.40395 29.9042 9.41593 29.9491 9.43876 29.9885C9.46158 30.028 9.49444 30.0608 9.53401 30.0835C9.57357 30.1062 9.61843 30.118 9.66404 30.1178C9.70966 30.1176 9.7544 30.1053 9.79374 30.0822L11.4292 29.1463ZM4.97673 33.6662H12.6047C12.9657 33.6662 13.2436 33.2765 13.2436 32.7974V32.4077C13.2436 31.9253 12.9529 31.5356 12.6047 31.5356H4.96395C4.60299 31.5356 4.32509 31.9253 4.32509 32.4077V32.7974C4.31231 33.2765 4.60299 33.6662 4.96395 33.6662H4.97673ZM3.40193 34.5191C3.44772 34.5455 3.49967 34.5594 3.55254 34.5593C3.60541 34.5593 3.65732 34.5452 3.70302 34.5186C3.74873 34.4921 3.7866 34.4539 3.81282 34.408C3.83904 34.3621 3.85267 34.31 3.85233 34.2572V30.654C3.85267 30.6011 3.83904 30.5491 3.81282 30.5032C3.7866 30.4573 3.74873 30.4191 3.70302 30.3925C3.65732 30.366 3.60541 30.3519 3.55254 30.3518C3.49967 30.3517 3.44772 30.3656 3.40193 30.3921L1.83992 31.2961L0.27471 32.1968C0.233175 32.2264 0.199309 32.2654 0.17594 32.3107C0.152571 32.356 0.140377 32.4062 0.140377 32.4572C0.140377 32.5081 0.152571 32.5584 0.17594 32.6037C0.199309 32.6489 0.233175 32.688 0.27471 32.7175L1.83992 33.6183L3.40193 34.5191Z" fill="white"/>
</g>
<defs>
<clipPath id="clip0_983_4693">
<rect width="35" height="34.3196" fill="white" transform="translate(0 0.340332)"/>
</clipPath>
</defs>
</svg>
