<svg width="35" height="36" viewBox="0 0 35 36" fill="none" xmlns="http://www.w3.org/2000/svg">
<g clip-path="url(#clip0_983_4150)">
<path d="M27.1803 35.1598C25.3276 35.1598 23.5133 33.7639 20.4212 30.1895C16.3388 25.4683 14.0837 18.3705 13.3362 13.3203C12.5376 7.88684 13.7355 3.68313 14.3744 2.84622C15.0132 2.00932 16.5273 1.38004 19.0316 0.99672C22.4368 0.472854 24.4109 1.25865 24.89 3.32856C25.251 4.87461 25.9601 8.67264 24.7846 10.5796C23.6698 12.394 21.2229 11.8382 20.418 11.6529L20.303 11.6274C20.2391 12.4771 20.303 14.7354 21.2613 17.8786C22.1173 20.6161 23.9573 23.2003 24.8453 24.296C25.4171 23.8552 26.2604 23.1908 26.7619 22.7276C27.8032 21.7885 28.1929 21.6 29.6367 21.9098C31.3585 22.2772 33.3837 25.4907 34.1727 26.8546C35.2939 28.7712 35.2619 30.0489 34.0736 31.2085C33.2719 32.0038 30.4321 34.3804 28.4293 34.965C28.0247 35.0905 27.6039 35.1561 27.1803 35.1598ZM20.9227 2.43735C20.3705 2.44288 19.8195 2.48986 19.2744 2.5779C16.5369 2.99636 15.8278 3.58091 15.6521 3.8141C15.2975 4.30283 14.1699 8.00503 14.9174 13.0776C15.6329 17.9138 17.7699 24.6729 21.6254 29.1354C25.5704 33.6968 26.7363 33.7895 27.9725 33.4221C29.5697 32.9462 32.1507 30.8667 32.962 30.0585C33.4028 29.6273 33.751 29.2855 32.7991 27.6468C31.3744 25.1904 29.9051 23.59 29.3077 23.4623C28.5187 23.2898 28.5187 23.293 27.8415 23.9031C26.9567 24.6985 25.2637 25.973 25.1903 26.0273L24.5961 26.4809L24.1074 25.9251C23.9796 25.7813 20.9578 22.3123 19.744 18.345C18.6196 14.6652 18.6036 12.0203 18.7537 11.1323C18.8208 10.733 19.1307 9.83217 20.5234 10.043L20.763 10.1037C21.29 10.2219 22.8936 10.5892 23.411 9.74912C23.9956 8.79082 23.9605 6.43023 23.3216 3.6991C23.2577 3.35092 23.0437 2.43735 20.9227 2.43735Z" fill="white"/>
<path d="M8.30519 29.6942H0.638861C0.277905 29.6942 0 29.3045 0 28.8253V28.4356C0 27.9533 0.290682 27.5636 0.638861 27.5636H8.30519C8.66615 27.5636 8.94405 27.9533 8.94405 28.4356V28.8253C8.94405 29.3045 8.65337 29.6942 8.30519 29.6942ZM11.4292 29.6463L13.0519 28.7104C13.0918 28.6878 13.125 28.6551 13.148 28.6155C13.1711 28.5759 13.1833 28.531 13.1833 28.4852C13.1833 28.4394 13.1711 28.3944 13.148 28.3548C13.125 28.3152 13.0918 28.2825 13.0519 28.26L11.4292 27.324L9.79374 26.3945C9.7544 26.3714 9.70966 26.3591 9.66404 26.3589C9.61843 26.3587 9.57357 26.3705 9.53401 26.3932C9.49444 26.4159 9.46158 26.4487 9.43876 26.4882C9.41593 26.5276 9.40395 26.5725 9.40403 26.6181V30.3586C9.40395 30.4042 9.41593 30.4491 9.43876 30.4885C9.46158 30.528 9.49444 30.5608 9.53401 30.5835C9.57357 30.6062 9.61843 30.618 9.66404 30.6178C9.70966 30.6176 9.7544 30.6053 9.79374 30.5822L11.4292 29.6463ZM4.97673 34.1662H12.6047C12.9657 34.1662 13.2436 33.7765 13.2436 33.2974V32.9077C13.2436 32.4253 12.9529 32.0356 12.6047 32.0356H4.96395C4.60299 32.0356 4.32509 32.4253 4.32509 32.9077V33.2974C4.31231 33.7765 4.60299 34.1662 4.96395 34.1662H4.97673ZM3.40193 35.0191C3.44772 35.0455 3.49967 35.0594 3.55254 35.0593C3.60541 35.0593 3.65732 35.0452 3.70302 35.0186C3.74873 34.9921 3.7866 34.9539 3.81282 34.908C3.83904 34.8621 3.85267 34.81 3.85233 34.7572V31.154C3.85267 31.1011 3.83904 31.0491 3.81282 31.0032C3.7866 30.9573 3.74873 30.9191 3.70302 30.8925C3.65732 30.866 3.60541 30.8519 3.55254 30.8518C3.49967 30.8517 3.44772 30.8656 3.40193 30.8921L1.83992 31.7961L0.27471 32.6968C0.233175 32.7264 0.199309 32.7654 0.17594 32.8107C0.152571 32.856 0.140377 32.9062 0.140377 32.9572C0.140377 33.0081 0.152571 33.0584 0.17594 33.1037C0.199309 33.1489 0.233175 33.188 0.27471 33.2175L1.83992 34.1183L3.40193 35.0191Z" fill="white"/>
</g>
<defs>
<clipPath id="clip0_983_4150">
<rect width="35" height="34.3196" fill="white" transform="translate(0 0.840332)"/>
</clipPath>
</defs>
</svg>
