<svg width="35" height="36" viewBox="0 0 35 36" fill="none" xmlns="http://www.w3.org/2000/svg">
<g clip-path="url(#clip0_983_4041)">
<path d="M20.6648 4.04604C18.972 2.35345 16.8153 1.20083 14.4675 0.733927C12.1196 0.267026 9.68603 0.506813 7.47444 1.42297C5.26285 2.33912 3.37259 3.89049 2.04268 5.88092C0.712765 7.87134 0.00292969 10.2114 0.00292969 12.6053C0.00292969 14.9991 0.712765 17.3392 2.04268 19.3296C3.37259 21.32 5.26285 22.8714 7.47444 23.7876C9.68603 24.7037 12.1196 24.9435 14.4675 24.4766C16.8153 24.0097 18.972 22.8571 20.6648 21.1645C21.7893 20.0407 22.6814 18.7064 23.29 17.2378C23.8986 15.7692 24.2118 14.195 24.2118 12.6053C24.2118 11.0155 23.8986 9.44136 23.29 7.97273C22.6814 6.5041 21.7893 5.16979 20.6648 4.04604ZM19.238 19.7377C17.8287 21.147 16.033 22.1067 14.0782 22.4955C12.1234 22.8843 10.0972 22.6847 8.25585 21.9219C6.41448 21.1592 4.84063 19.8675 3.73334 18.2103C2.62604 16.5531 2.03503 14.6048 2.03503 12.6117C2.03503 10.6186 2.62604 8.67023 3.73334 7.01303C4.84063 5.35582 6.41448 4.06417 8.25585 3.30142C10.0972 2.53867 12.1234 2.33907 14.0782 2.72786C16.033 3.11665 17.8287 4.07637 19.238 5.48567C21.1273 7.37598 22.1885 9.93914 22.1885 12.6117C22.1885 15.2842 21.1273 17.8474 19.238 19.7377Z" fill="white"/>
<path d="M20.6326 19.5478L19.0501 21.1303C18.7822 21.3983 18.7822 21.8327 19.0501 22.1007L21.7866 24.8372C22.0546 25.1051 22.489 25.1051 22.757 24.8372L24.3395 23.2547C24.6075 22.9867 24.6075 22.5523 24.3395 22.2843L21.603 19.5478C21.335 19.2798 20.9006 19.2798 20.6326 19.5478Z" fill="#41C2F4"/>
<path d="M21.2772 25.2333L31.0628 35.0157C31.2162 35.1699 31.3986 35.2922 31.5994 35.3757C31.8003 35.4591 32.0156 35.5021 32.2331 35.5021C32.4506 35.5021 32.6659 35.4591 32.8668 35.3757C33.0676 35.2922 33.25 35.1699 33.4034 35.0157L34.516 33.9032C34.6701 33.7497 34.7924 33.5674 34.8759 33.3665C34.9594 33.1657 35.0023 32.9503 35.0023 32.7329C35.0023 32.5154 34.9594 32.3 34.8759 32.0992C34.7924 31.8984 34.6701 31.716 34.516 31.5626L24.7336 21.7769C24.6738 21.7158 24.6025 21.6673 24.5238 21.6342C24.445 21.6011 24.3605 21.584 24.2751 21.584C24.1896 21.584 24.1051 21.6011 24.0263 21.6342C23.9476 21.6673 23.8763 21.7158 23.8166 21.7769L21.2772 24.3163C21.2161 24.376 21.1676 24.4474 21.1344 24.5261C21.1013 24.6048 21.0842 24.6894 21.0842 24.7748C21.0842 24.8602 21.1013 24.9448 21.1344 25.0235C21.1676 25.1023 21.2161 25.1736 21.2772 25.2333Z" fill="#4ADFBF"/>
<path d="M6.13387 18.577C4.55244 16.992 3.66431 14.8443 3.66431 12.6053C3.66431 10.3662 4.55244 8.21861 6.13387 6.63354L6.64688 7.14655C5.20094 8.59526 4.38885 10.5585 4.38885 12.6053C4.38885 14.6521 5.20094 16.6153 6.64688 18.064L6.13387 18.577Z" fill="white"/>
</g>
<defs>
<clipPath id="clip0_983_4041">
<rect width="35" height="35" fill="white" transform="translate(0 0.5)"/>
</clipPath>
</defs>
</svg>
