<svg width="35" height="35" viewBox="0 0 35 35" fill="none" xmlns="http://www.w3.org/2000/svg">
<g clip-path="url(#clip0_983_4222)">
<path d="M2.37589 13.0051L4.89844 14.3095L7.42099 15.617L4.83466 17.5304L3.1891 18.7295C3.10472 18.8017 3.00073 18.847 2.89044 18.8597C2.78015 18.8725 2.66856 18.852 2.56995 18.801C2.47134 18.75 2.39019 18.6707 2.33687 18.5734C2.28356 18.476 2.2605 18.3649 2.27065 18.2543L2.30892 16.2133L2.37589 13.0051Z" fill="white"/>
<path d="M12.0387 1.12899C15.0333 1.12899 17.8364 1.92307 19.9317 3.36134C21.8993 4.7135 22.9836 6.47068 22.9836 8.31077C22.9836 10.1509 21.8993 11.908 19.9317 13.2634C17.8364 14.7017 15.0333 15.4957 12.0387 15.4957C9.04419 15.4957 6.23781 14.708 4.14579 13.2634C2.17813 11.908 1.09385 10.1509 1.09385 8.31077C1.09385 6.47068 2.17494 4.7135 4.14579 3.36134C6.241 1.92307 9.04419 1.12899 12.0419 1.12899M12.0419 0.0383301C5.38952 0.0383301 0 3.74084 0 8.31077C0 12.8807 5.38952 16.5832 12.0387 16.5832C18.6879 16.5832 24.0743 12.8807 24.0743 8.31077C24.0743 3.74084 18.6847 0.0383301 12.0387 0.0383301H12.0419Z" fill="white"/>
<path d="M4.00548 10.9258C3.36776 9.86765 3.17548 8.59982 3.47077 7.40012C3.76606 6.20043 4.52485 5.16669 5.58088 4.52539L5.78817 4.86981C4.82232 5.45505 4.12811 6.39957 3.85787 7.49608C3.58763 8.59259 3.76343 9.75152 4.34671 10.7186L4.00548 10.9258Z" fill="white"/>
<path d="M11.1809 28.0671L14.4082 29.1801L17.6356 30.2963L14.893 33.007L13.1486 34.7323C13.0609 34.8328 12.9453 34.9049 12.8164 34.9393C12.6875 34.9736 12.5514 34.9688 12.4253 34.9253C12.2992 34.8817 12.189 34.8016 12.1088 34.6951C12.0286 34.5885 11.982 34.4605 11.975 34.3273L11.6561 31.8908L11.1809 28.0671Z" fill="white"/>
<path d="M20.5313 30.5704C28.524 30.5704 35.0033 26.1171 35.0033 20.6237C35.0033 15.1303 28.524 10.677 20.5313 10.677C12.5387 10.677 6.05933 15.1303 6.05933 20.6237C6.05933 26.1171 12.5387 30.5704 20.5313 30.5704Z" fill="white"/>
</g>
<defs>
<clipPath id="clip0_983_4222">
<rect width="35" height="34.9235" fill="white" transform="translate(0 0.0383301)"/>
</clipPath>
</defs>
</svg>
