<svg width="21" height="20" viewBox="0 0 21 20" fill="none" xmlns="http://www.w3.org/2000/svg">
<g clip-path="url(#clip0_983_55)">
<path d="M10.5 0.608519C12.6667 0.609798 14.7663 1.36002 16.4432 2.7321C18.1201 4.10417 19.2712 6.01373 19.7014 8.13729C20.1315 10.2608 19.8144 12.4678 18.8038 14.3844C17.7931 16.3009 16.1509 17.8091 14.1556 18.6536C11.8605 19.6231 9.27431 19.6412 6.9659 18.7039C4.65749 17.7666 2.81597 15.9506 1.84645 13.6556C0.876931 11.3605 0.858831 8.77431 1.79613 6.4659C2.73343 4.15749 4.54936 2.31597 6.84442 1.34645C8.00088 0.856985 9.24423 0.605996 10.5 0.608519ZM10.5 0C4.97708 0 0.5 4.47708 0.5 10C0.5 15.5229 4.97708 20 10.5 20C16.0229 20 20.5 15.5229 20.5 10C20.5 4.47708 16.0229 0 10.5 0Z" fill="#009EA0"/>
<path d="M15.2753 5.41138L2.84082 10.1359L7.23758 10.9432L13.1475 7.12943L8.46678 11.4949L12.7191 16.3818L15.2753 5.41138Z" fill="#009EA0"/>
</g>
<defs>
<clipPath id="clip0_983_55">
<rect width="20" height="20" fill="white" transform="translate(0.5)"/>
</clipPath>
</defs>
</svg>
