<svg width="35" height="31" viewBox="0 0 35 31" fill="none" xmlns="http://www.w3.org/2000/svg">
<g clip-path="url(#clip0_983_3878)">
<path d="M6.19287 21.8452L10.0983 23.1936L14.0006 24.5419L10.6821 27.8192L8.56597 29.9068C8.4595 30.028 8.31933 30.1148 8.16333 30.1561C8.00733 30.1974 7.84257 30.1912 7.69008 30.1385C7.53758 30.0857 7.40426 29.9887 7.30711 29.8599C7.20997 29.731 7.15341 29.5761 7.14465 29.415L6.77345 26.4708L6.19287 21.8452Z" fill="white"/>
<path d="M17.5 2.40368C21.856 2.40368 25.9327 3.55533 28.9753 5.64606C31.8306 7.61307 33.4169 10.1702 33.4169 12.8447C33.4169 15.5192 31.8306 18.0763 28.9753 20.0433C25.9327 22.134 21.856 23.2857 17.5 23.2857C13.144 23.2857 9.06726 22.134 6.02792 20.0433C3.17259 18.0763 1.58629 15.5192 1.58629 12.8447C1.58629 10.1702 3.17259 7.61307 6.02792 5.64606C9.06726 3.55533 13.144 2.40368 17.5 2.40368ZM17.5 0.817383C7.8363 0.817383 0 6.21078 0 12.8447C0 19.4785 7.8363 24.872 17.5 24.872C27.1637 24.872 35 19.4785 35 12.8447C35 6.21078 27.1637 0.817383 17.5 0.817383Z" fill="white"/>
<path d="M5.82163 16.6453C4.8937 15.1072 4.61406 13.2638 5.04412 11.5197C5.47419 9.77569 6.5788 8.27359 8.11541 7.34326L8.41364 7.84136C7.00999 8.69256 6.00126 10.0657 5.60872 11.6597C5.21618 13.2536 5.47188 14.9382 6.31973 16.3439L5.82163 16.6453Z" fill="white"/>
</g>
<defs>
<clipPath id="clip0_983_3878">
<rect width="35" height="29.3655" fill="white" transform="translate(0 0.817383)"/>
</clipPath>
</defs>
</svg>
