<svg width="35" height="30" viewBox="0 0 35 30" fill="none" xmlns="http://www.w3.org/2000/svg">
<g clip-path="url(#clip0_983_4102)">
<path d="M16.8621 29.2861C14.0379 29.2868 11.2769 28.4493 8.92841 26.8796C6.57991 25.31 4.74936 23.0786 3.66829 20.4678C2.58722 17.857 2.30419 14.984 2.85501 12.2123C3.40582 9.44048 4.76573 6.89442 6.76274 4.8961C8.75975 2.89778 11.3041 1.53698 14.0741 0.9858C16.8441 0.434624 19.7152 0.717836 22.3243 1.79962C24.9334 2.8814 27.1632 4.71315 28.7319 7.06319C30.3005 9.41323 31.1374 12.176 31.1368 15.002C31.129 18.788 29.6226 22.4167 26.9473 25.0938C24.2719 27.7709 20.6456 29.2784 16.8621 29.2861ZM16.8621 2.34716C14.3607 2.34652 11.9153 3.08816 9.83511 4.47831C7.75496 5.86845 6.13351 7.84465 5.17582 10.157C4.21812 12.4693 3.96721 15.0139 4.45482 17.4689C4.94242 19.9239 6.14663 22.1791 7.91516 23.9492C9.68369 25.7194 11.9371 26.925 14.3904 27.4135C16.8437 27.9021 19.3866 27.6517 21.6977 26.6939C24.0087 25.7362 25.9841 24.1142 27.3738 22.0331C28.7636 19.9519 29.5054 17.5051 29.5054 15.002C29.4951 11.6495 28.1598 8.43718 25.791 6.06625C23.4223 3.69533 20.2124 2.35836 16.8621 2.34716Z" fill="white"/>
<path d="M3.12902 10.4341C2.1872 13.4085 2.1872 16.6015 3.12902 19.5759C2.28396 18.6715 1.6314 17.0391 1.6314 15.0017C1.6314 12.9644 2.28396 11.3156 3.12902 10.4308M4.52876 8.08008C2.0262 8.08334 0 11.1818 0 15.0017C0 18.8217 2.0262 21.9169 4.52876 21.9169C4.96769 21.9148 5.40126 21.8202 5.80125 21.6393C4.65696 19.6139 4.0556 17.3268 4.0556 15.0001C4.0556 12.6734 4.65696 10.3863 5.80125 8.36086C5.40126 8.17998 4.96769 8.08542 4.52876 8.08334V8.08008Z" fill="white"/>
<path d="M21.5122 15.1173C21.5763 12.5485 19.5472 10.4142 16.9802 10.3501C14.4132 10.286 12.2802 12.3163 12.2161 14.8851C12.152 17.4538 14.1811 19.5881 16.7481 19.6522C19.3152 19.7164 21.4481 17.686 21.5122 15.1173Z" fill="#4ADFBF"/>
<path d="M22.7157 10.7119L21.5835 11.9591C22.3132 12.7926 22.7154 13.863 22.7154 14.971C22.7154 16.0791 22.3132 17.1494 21.5835 17.9829L22.7157 19.2301C23.7506 18.053 24.3214 16.5388 24.3214 14.971C24.3214 13.4032 23.7506 11.8891 22.7157 10.7119ZM22.7157 10.7119L21.5835 11.9591C22.3132 12.7926 22.7154 13.863 22.7154 14.971C22.7154 16.0791 22.3132 17.1494 21.5835 17.9829L22.7157 19.2301C23.7506 18.053 24.3214 16.5388 24.3214 14.971C24.3214 13.4032 23.7506 11.8891 22.7157 10.7119ZM22.7157 10.7119L21.5835 11.9591C22.3132 12.7926 22.7154 13.863 22.7154 14.971C22.7154 16.0791 22.3132 17.1494 21.5835 17.9829L22.7157 19.2301C23.7506 18.053 24.3214 16.5388 24.3214 14.971C24.3214 13.4032 23.7506 11.8891 22.7157 10.7119ZM22.7157 10.7119L21.5835 11.9591C22.3132 12.7926 22.7154 13.863 22.7154 14.971C22.7154 16.0791 22.3132 17.1494 21.5835 17.9829L22.7157 19.2301C23.7506 18.053 24.3214 16.5388 24.3214 14.971C24.3214 13.4032 23.7506 11.8891 22.7157 10.7119ZM22.7157 10.7119L21.5835 11.9591C22.3132 12.7926 22.7154 13.863 22.7154 14.971C22.7154 16.0791 22.3132 17.1494 21.5835 17.9829L22.7157 19.2301C23.7506 18.053 24.3214 16.5388 24.3214 14.971C24.3214 13.4032 23.7506 11.8891 22.7157 10.7119ZM22.7157 10.7119L21.5835 11.9591C22.3132 12.7926 22.7154 13.863 22.7154 14.971C22.7154 16.0791 22.3132 17.1494 21.5835 17.9829L22.7157 19.2301C23.7506 18.053 24.3214 16.5388 24.3214 14.971C24.3214 13.4032 23.7506 11.8891 22.7157 10.7119ZM22.7157 10.7119L21.5835 11.9591C22.3132 12.7926 22.7154 13.863 22.7154 14.971C22.7154 16.0791 22.3132 17.1494 21.5835 17.9829L22.7157 19.2301C23.7506 18.053 24.3214 16.5388 24.3214 14.971C24.3214 13.4032 23.7506 11.8891 22.7157 10.7119ZM22.7157 10.7119L21.5835 11.9591C22.3132 12.7926 22.7154 13.863 22.7154 14.971C22.7154 16.0791 22.3132 17.1494 21.5835 17.9829L22.7157 19.2301C23.7506 18.053 24.3214 16.5388 24.3214 14.971C24.3214 13.4032 23.7506 11.8891 22.7157 10.7119ZM22.7157 10.7119L21.5835 11.9591C22.3132 12.7926 22.7154 13.863 22.7154 14.971C22.7154 16.0791 22.3132 17.1494 21.5835 17.9829L22.7157 19.2301C23.7506 18.053 24.3214 16.5388 24.3214 14.971C24.3214 13.4032 23.7506 11.8891 22.7157 10.7119ZM22.7157 10.7119L21.5835 11.9591C22.3132 12.7926 22.7154 13.863 22.7154 14.971C22.7154 16.0791 22.3132 17.1494 21.5835 17.9829L22.7157 19.2301C23.7506 18.053 24.3214 16.5388 24.3214 14.971C24.3214 13.4032 23.7506 11.8891 22.7157 10.7119ZM22.7157 10.7119L21.5835 11.9591C22.3132 12.7926 22.7154 13.863 22.7154 14.971C22.7154 16.0791 22.3132 17.1494 21.5835 17.9829L22.7157 19.2301C23.7506 18.053 24.3214 16.5388 24.3214 14.971C24.3214 13.4032 23.7506 11.8891 22.7157 10.7119ZM22.7157 10.7119L21.5835 11.9591C22.3132 12.7926 22.7154 13.863 22.7154 14.971C22.7154 16.0791 22.3132 17.1494 21.5835 17.9829L22.7157 19.2301C23.7506 18.053 24.3214 16.5388 24.3214 14.971C24.3214 13.4032 23.7506 11.8891 22.7157 10.7119ZM22.7157 10.7119L21.5835 11.9591C22.3132 12.7926 22.7154 13.863 22.7154 14.971C22.7154 16.0791 22.3132 17.1494 21.5835 17.9829L22.7157 19.2301C23.7506 18.053 24.3214 16.5388 24.3214 14.971C24.3214 13.4032 23.7506 11.8891 22.7157 10.7119ZM22.7157 10.7119L21.5835 11.9591C22.3132 12.7926 22.7154 13.863 22.7154 14.971C22.7154 16.0791 22.3132 17.1494 21.5835 17.9829L22.7157 19.2301C23.7506 18.053 24.3214 16.5388 24.3214 14.971C24.3214 13.4032 23.7506 11.8891 22.7157 10.7119ZM22.7157 10.7119L21.5835 11.9591C22.3132 12.7926 22.7154 13.863 22.7154 14.971C22.7154 16.0791 22.3132 17.1494 21.5835 17.9829L22.7157 19.2301C23.7506 18.053 24.3214 16.5388 24.3214 14.971C24.3214 13.4032 23.7506 11.8891 22.7157 10.7119ZM22.7157 10.7119L21.5835 11.9591C22.3132 12.7926 22.7154 13.863 22.7154 14.971C22.7154 16.0791 22.3132 17.1494 21.5835 17.9829L22.7157 19.2301C23.7506 18.053 24.3214 16.5388 24.3214 14.971C24.3214 13.4032 23.7506 11.8891 22.7157 10.7119ZM22.7157 10.7119L21.5835 11.9591C22.3132 12.7926 22.7154 13.863 22.7154 14.971C22.7154 16.0791 22.3132 17.1494 21.5835 17.9829L22.7157 19.2301C23.7506 18.053 24.3214 16.5388 24.3214 14.971C24.3214 13.4032 23.7506 11.8891 22.7157 10.7119ZM22.7157 10.7119L21.5835 11.9591C22.3132 12.7926 22.7154 13.863 22.7154 14.971C22.7154 16.0791 22.3132 17.1494 21.5835 17.9829L22.7157 19.2301C23.7506 18.053 24.3214 16.5388 24.3214 14.971C24.3214 13.4032 23.7506 11.8891 22.7157 10.7119ZM22.7157 10.7119L21.5835 11.9591C22.3132 12.7926 22.7154 13.863 22.7154 14.971C22.7154 16.0791 22.3132 17.1494 21.5835 17.9829L22.7157 19.2301C23.7506 18.053 24.3214 16.5388 24.3214 14.971C24.3214 13.4032 23.7506 11.8891 22.7157 10.7119ZM22.7157 10.7119L21.5835 11.9591C22.3132 12.7926 22.7154 13.863 22.7154 14.971C22.7154 16.0791 22.3132 17.1494 21.5835 17.9829L22.7157 19.2301C23.7506 18.053 24.3214 16.5388 24.3214 14.971C24.3214 13.4032 23.7506 11.8891 22.7157 10.7119ZM22.7157 10.7119L21.5835 11.9591C22.3132 12.7926 22.7154 13.863 22.7154 14.971C22.7154 16.0791 22.3132 17.1494 21.5835 17.9829L22.7157 19.2301C23.7506 18.053 24.3214 16.5388 24.3214 14.971C24.3214 13.4032 23.7506 11.8891 22.7157 10.7119ZM22.7157 10.7119L21.5835 11.9591C22.3132 12.7926 22.7154 13.863 22.7154 14.971C22.7154 16.0791 22.3132 17.1494 21.5835 17.9829L22.7157 19.2301C23.7506 18.053 24.3214 16.5388 24.3214 14.971C24.3214 13.4032 23.7506 11.8891 22.7157 10.7119ZM22.7157 10.7119L21.5835 11.9591C22.3132 12.7926 22.7154 13.863 22.7154 14.971C22.7154 16.0791 22.3132 17.1494 21.5835 17.9829L22.7157 19.2301C23.7506 18.053 24.3214 16.5388 24.3214 14.971C24.3214 13.4032 23.7506 11.8891 22.7157 10.7119Z" fill="#4ADFBF"/>
<path d="M26.5721 8.83105L24.9929 10.5713C26.0066 11.733 26.5651 13.2229 26.5651 14.7651C26.5651 16.3073 26.0066 17.7972 24.9929 18.9589L26.5721 20.6958C28.0301 19.0626 28.826 16.9435 28.8039 14.7536C28.8183 12.5711 28.0231 10.4607 26.5721 8.83105ZM26.5721 8.83105L24.9929 10.5713C26.0066 11.733 26.5651 13.2229 26.5651 14.7651C26.5651 16.3073 26.0066 17.7972 24.9929 18.9589L26.5721 20.6958C28.0301 19.0626 28.826 16.9435 28.8039 14.7536C28.8183 12.5711 28.0231 10.4607 26.5721 8.83105ZM26.5721 8.83105L24.9929 10.5713C26.0066 11.733 26.5651 13.2229 26.5651 14.7651C26.5651 16.3073 26.0066 17.7972 24.9929 18.9589L26.5721 20.6958C28.0301 19.0626 28.826 16.9435 28.8039 14.7536C28.8183 12.5711 28.0231 10.4607 26.5721 8.83105ZM26.5721 8.83105L24.9929 10.5713C26.0066 11.733 26.5651 13.2229 26.5651 14.7651C26.5651 16.3073 26.0066 17.7972 24.9929 18.9589L26.5721 20.6958C28.0301 19.0626 28.826 16.9435 28.8039 14.7536C28.8183 12.5711 28.0231 10.4607 26.5721 8.83105ZM26.5721 8.83105L24.9929 10.5713C26.0066 11.733 26.5651 13.2229 26.5651 14.7651C26.5651 16.3073 26.0066 17.7972 24.9929 18.9589L26.5721 20.6958C28.0301 19.0626 28.826 16.9435 28.8039 14.7536C28.8183 12.5711 28.0231 10.4607 26.5721 8.83105ZM26.5721 8.83105L24.9929 10.5713C26.0066 11.733 26.5651 13.2229 26.5651 14.7651C26.5651 16.3073 26.0066 17.7972 24.9929 18.9589L26.5721 20.6958C28.0301 19.0626 28.826 16.9435 28.8039 14.7536C28.8183 12.5711 28.0231 10.4607 26.5721 8.83105ZM26.5721 8.83105L24.9929 10.5713C26.0066 11.733 26.5651 13.2229 26.5651 14.7651C26.5651 16.3073 26.0066 17.7972 24.9929 18.9589L26.5721 20.6958C28.0301 19.0626 28.826 16.9435 28.8039 14.7536C28.8183 12.5711 28.0231 10.4607 26.5721 8.83105ZM26.5721 8.83105L24.9929 10.5713C26.0066 11.733 26.5651 13.2229 26.5651 14.7651C26.5651 16.3073 26.0066 17.7972 24.9929 18.9589L26.5721 20.6958C28.0301 19.0626 28.826 16.9435 28.8039 14.7536C28.8183 12.5711 28.0231 10.4607 26.5721 8.83105ZM26.5721 8.83105L24.9929 10.5713C26.0066 11.733 26.5651 13.2229 26.5651 14.7651C26.5651 16.3073 26.0066 17.7972 24.9929 18.9589L26.5721 20.6958C28.0301 19.0626 28.826 16.9435 28.8039 14.7536C28.8183 12.5711 28.0231 10.4607 26.5721 8.83105ZM26.5721 8.83105L24.9929 10.5713C26.0066 11.733 26.5651 13.2229 26.5651 14.7651C26.5651 16.3073 26.0066 17.7972 24.9929 18.9589L26.5721 20.6958C28.0301 19.0626 28.826 16.9435 28.8039 14.7536C28.8183 12.5711 28.0231 10.4607 26.5721 8.83105ZM26.5721 8.83105L24.9929 10.5713C26.0066 11.733 26.5651 13.2229 26.5651 14.7651C26.5651 16.3073 26.0066 17.7972 24.9929 18.9589L26.5721 20.6958C28.0301 19.0626 28.826 16.9435 28.8039 14.7536C28.8183 12.5711 28.0231 10.4607 26.5721 8.83105ZM26.5721 8.83105L24.9929 10.5713C26.0066 11.733 26.5651 13.2229 26.5651 14.7651C26.5651 16.3073 26.0066 17.7972 24.9929 18.9589L26.5721 20.6958C28.0301 19.0626 28.826 16.9435 28.8039 14.7536C28.8183 12.5711 28.0231 10.4607 26.5721 8.83105ZM26.5721 8.83105L24.9929 10.5713C26.0066 11.733 26.5651 13.2229 26.5651 14.7651C26.5651 16.3073 26.0066 17.7972 24.9929 18.9589L26.5721 20.6958C28.0301 19.0626 28.826 16.9435 28.8039 14.7536C28.8183 12.5711 28.0231 10.4607 26.5721 8.83105ZM26.5721 8.83105L24.9929 10.5713C26.0066 11.733 26.5651 13.2229 26.5651 14.7651C26.5651 16.3073 26.0066 17.7972 24.9929 18.9589L26.5721 20.6958C28.0301 19.0626 28.826 16.9435 28.8039 14.7536C28.8183 12.5711 28.0231 10.4607 26.5721 8.83105ZM26.5721 8.83105L24.9929 10.5713C26.0066 11.733 26.5651 13.2229 26.5651 14.7651C26.5651 16.3073 26.0066 17.7972 24.9929 18.9589L26.5721 20.6958C28.0301 19.0626 28.826 16.9435 28.8039 14.7536C28.8183 12.5711 28.0231 10.4607 26.5721 8.83105ZM26.5721 8.83105L24.9929 10.5713C26.0066 11.733 26.5651 13.2229 26.5651 14.7651C26.5651 16.3073 26.0066 17.7972 24.9929 18.9589L26.5721 20.6958C28.0301 19.0626 28.826 16.9435 28.8039 14.7536C28.8183 12.5711 28.0231 10.4607 26.5721 8.83105ZM26.5721 8.83105L24.9929 10.5713C26.0066 11.733 26.5651 13.2229 26.5651 14.7651C26.5651 16.3073 26.0066 17.7972 24.9929 18.9589L26.5721 20.6958C28.0301 19.0626 28.826 16.9435 28.8039 14.7536C28.8183 12.5711 28.0231 10.4607 26.5721 8.83105ZM26.5721 8.83105L24.9929 10.5713C26.0066 11.733 26.5651 13.2229 26.5651 14.7651C26.5651 16.3073 26.0066 17.7972 24.9929 18.9589L26.5721 20.6958C28.0301 19.0626 28.826 16.9435 28.8039 14.7536C28.8183 12.5711 28.0231 10.4607 26.5721 8.83105ZM26.5721 8.83105L24.9929 10.5713C26.0066 11.733 26.5651 13.2229 26.5651 14.7651C26.5651 16.3073 26.0066 17.7972 24.9929 18.9589L26.5721 20.6958C28.0301 19.0626 28.826 16.9435 28.8039 14.7536C28.8183 12.5711 28.0231 10.4607 26.5721 8.83105ZM26.5721 8.83105L24.9929 10.5713C26.0066 11.733 26.5651 13.2229 26.5651 14.7651C26.5651 16.3073 26.0066 17.7972 24.9929 18.9589L26.5721 20.6958C28.0301 19.0626 28.826 16.9435 28.8039 14.7536C28.8183 12.5711 28.0231 10.4607 26.5721 8.83105ZM26.5721 8.83105L24.9929 10.5713C26.0066 11.733 26.5651 13.2229 26.5651 14.7651C26.5651 16.3073 26.0066 17.7972 24.9929 18.9589L26.5721 20.6958C28.0301 19.0626 28.826 16.9435 28.8039 14.7536C28.8183 12.5711 28.0231 10.4607 26.5721 8.83105ZM26.5721 8.83105L24.9929 10.5713C26.0066 11.733 26.5651 13.2229 26.5651 14.7651C26.5651 16.3073 26.0066 17.7972 24.9929 18.9589L26.5721 20.6958C28.0301 19.0626 28.826 16.9435 28.8039 14.7536C28.8183 12.5711 28.0231 10.4607 26.5721 8.83105ZM26.5721 8.83105L24.9929 10.5713C26.0066 11.733 26.5651 13.2229 26.5651 14.7651C26.5651 16.3073 26.0066 17.7972 24.9929 18.9589L26.5721 20.6958C28.0301 19.0626 28.826 16.9435 28.8039 14.7536C28.8183 12.5711 28.0231 10.4607 26.5721 8.83105Z" fill="#4ADFBF"/>
<path d="M32.0667 5.61182L29.9949 8.29233C31.37 10.1626 32.0954 12.432 32.0602 14.7536C32.0981 17.0777 31.3725 19.35 29.9949 21.2215L32.0667 23.902C33.8809 21.5643 35.0033 18.3255 35.0033 14.7602C35.0033 11.1949 33.8809 7.9593 32.0667 5.61182ZM32.0667 5.61182L29.9949 8.29233C31.37 10.1626 32.0954 12.432 32.0602 14.7536C32.0981 17.0777 31.3725 19.35 29.9949 21.2215L32.0667 23.902C33.8809 21.5643 35.0033 18.3255 35.0033 14.7602C35.0033 11.1949 33.8809 7.9593 32.0667 5.61182ZM32.0667 5.61182L29.9949 8.29233C31.37 10.1626 32.0954 12.432 32.0602 14.7536C32.0981 17.0777 31.3725 19.35 29.9949 21.2215L32.0667 23.902C33.8809 21.5643 35.0033 18.3255 35.0033 14.7602C35.0033 11.1949 33.8809 7.9593 32.0667 5.61182ZM32.0667 5.61182L29.9949 8.29233C31.37 10.1626 32.0954 12.432 32.0602 14.7536C32.0981 17.0777 31.3725 19.35 29.9949 21.2215L32.0667 23.902C33.8809 21.5643 35.0033 18.3255 35.0033 14.7602C35.0033 11.1949 33.8809 7.9593 32.0667 5.61182ZM32.0667 5.61182L29.9949 8.29233C31.37 10.1626 32.0954 12.432 32.0602 14.7536C32.0981 17.0777 31.3725 19.35 29.9949 21.2215L32.0667 23.902C33.8809 21.5643 35.0033 18.3255 35.0033 14.7602C35.0033 11.1949 33.8809 7.9593 32.0667 5.61182ZM32.0667 5.61182L29.9949 8.29233C31.37 10.1626 32.0954 12.432 32.0602 14.7536C32.0981 17.0777 31.3725 19.35 29.9949 21.2215L32.0667 23.902C33.8809 21.5643 35.0033 18.3255 35.0033 14.7602C35.0033 11.1949 33.8809 7.9593 32.0667 5.61182ZM32.0667 5.61182L29.9949 8.29233C31.37 10.1626 32.0954 12.432 32.0602 14.7536C32.0981 17.0777 31.3725 19.35 29.9949 21.2215L32.0667 23.902C33.8809 21.5643 35.0033 18.3255 35.0033 14.7602C35.0033 11.1949 33.8809 7.9593 32.0667 5.61182ZM32.0667 5.61182L29.9949 8.29233C31.37 10.1626 32.0954 12.432 32.0602 14.7536C32.0981 17.0777 31.3725 19.35 29.9949 21.2215L32.0667 23.902C33.8809 21.5643 35.0033 18.3255 35.0033 14.7602C35.0033 11.1949 33.8809 7.9593 32.0667 5.61182ZM32.0667 5.61182L29.9949 8.29233C31.37 10.1626 32.0954 12.432 32.0602 14.7536C32.0981 17.0777 31.3725 19.35 29.9949 21.2215L32.0667 23.902C33.8809 21.5643 35.0033 18.3255 35.0033 14.7602C35.0033 11.1949 33.8809 7.9593 32.0667 5.61182ZM32.0667 5.61182L29.9949 8.29233C31.37 10.1626 32.0954 12.432 32.0602 14.7536C32.0981 17.0777 31.3725 19.35 29.9949 21.2215L32.0667 23.902C33.8809 21.5643 35.0033 18.3255 35.0033 14.7602C35.0033 11.1949 33.8809 7.9593 32.0667 5.61182ZM32.0667 5.61182L29.9949 8.29233C31.37 10.1626 32.0954 12.432 32.0602 14.7536C32.0981 17.0777 31.3725 19.35 29.9949 21.2215L32.0667 23.902C33.8809 21.5643 35.0033 18.3255 35.0033 14.7602C35.0033 11.1949 33.8809 7.9593 32.0667 5.61182ZM32.0667 5.61182L29.9949 8.29233C31.37 10.1626 32.0954 12.432 32.0602 14.7536C32.0981 17.0777 31.3725 19.35 29.9949 21.2215L32.0667 23.902C33.8809 21.5643 35.0033 18.3255 35.0033 14.7602C35.0033 11.1949 33.8809 7.9593 32.0667 5.61182ZM32.0667 5.61182L29.9949 8.29233C31.37 10.1626 32.0954 12.432 32.0602 14.7536C32.0981 17.0777 31.3725 19.35 29.9949 21.2215L32.0667 23.902C33.8809 21.5643 35.0033 18.3255 35.0033 14.7602C35.0033 11.1949 33.8809 7.9593 32.0667 5.61182ZM32.0667 5.61182L29.9949 8.29233C31.37 10.1626 32.0954 12.432 32.0602 14.7536C32.0981 17.0777 31.3725 19.35 29.9949 21.2215L32.0667 23.902C33.8809 21.5643 35.0033 18.3255 35.0033 14.7602C35.0033 11.1949 33.8809 7.9593 32.0667 5.61182ZM32.0667 5.61182L29.9949 8.29233C31.37 10.1626 32.0954 12.432 32.0602 14.7536C32.0981 17.0777 31.3725 19.35 29.9949 21.2215L32.0667 23.902C33.8809 21.5643 35.0033 18.3255 35.0033 14.7602C35.0033 11.1949 33.8809 7.9593 32.0667 5.61182ZM32.0667 5.61182L29.9949 8.29233C31.37 10.1626 32.0954 12.432 32.0602 14.7536C32.0981 17.0777 31.3725 19.35 29.9949 21.2215L32.0667 23.902C33.8809 21.5643 35.0033 18.3255 35.0033 14.7602C35.0033 11.1949 33.8809 7.9593 32.0667 5.61182ZM32.0667 5.61182L29.9949 8.29233C31.37 10.1626 32.0954 12.432 32.0602 14.7536C32.0981 17.0777 31.3725 19.35 29.9949 21.2215L32.0667 23.902C33.8809 21.5643 35.0033 18.3255 35.0033 14.7602C35.0033 11.1949 33.8809 7.9593 32.0667 5.61182ZM32.0667 5.61182L29.9949 8.29233C31.37 10.1626 32.0954 12.432 32.0602 14.7536C32.0981 17.0777 31.3725 19.35 29.9949 21.2215L32.0667 23.902C33.8809 21.5643 35.0033 18.3255 35.0033 14.7602C35.0033 11.1949 33.8809 7.9593 32.0667 5.61182ZM32.0667 5.61182L29.9949 8.29233C31.37 10.1626 32.0954 12.432 32.0602 14.7536C32.0981 17.0777 31.3725 19.35 29.9949 21.2215L32.0667 23.902C33.8809 21.5643 35.0033 18.3255 35.0033 14.7602C35.0033 11.1949 33.8809 7.9593 32.0667 5.61182ZM32.0667 5.61182L29.9949 8.29233C31.37 10.1626 32.0954 12.432 32.0602 14.7536C32.0981 17.0777 31.3725 19.35 29.9949 21.2215L32.0667 23.902C33.8809 21.5643 35.0033 18.3255 35.0033 14.7602C35.0033 11.1949 33.8809 7.9593 32.0667 5.61182ZM32.0667 5.61182L29.9949 8.29233C31.37 10.1626 32.0954 12.432 32.0602 14.7536C32.0981 17.0777 31.3725 19.35 29.9949 21.2215L32.0667 23.902C33.8809 21.5643 35.0033 18.3255 35.0033 14.7602C35.0033 11.1949 33.8809 7.9593 32.0667 5.61182ZM32.0667 5.61182L29.9949 8.29233C31.37 10.1626 32.0954 12.432 32.0602 14.7536C32.0981 17.0777 31.3725 19.35 29.9949 21.2215L32.0667 23.902C33.8809 21.5643 35.0033 18.3255 35.0033 14.7602C35.0033 11.1949 33.8809 7.9593 32.0667 5.61182ZM31.9036 5.82404L30.0895 8.17152C30.0635 8.20644 30.0495 8.24881 30.0495 8.29233C30.0495 8.33585 30.0635 8.37821 30.0895 8.41313C31.4038 10.263 32.0942 12.4841 32.0602 14.7536C32.0955 17.0248 31.4038 19.2478 30.0862 21.0974C30.06 21.1328 30.0458 21.1757 30.0458 21.2198C30.0458 21.2639 30.06 21.3068 30.0862 21.3423L31.9003 23.6898C31.9195 23.7148 31.9442 23.7351 31.9725 23.7491C32.0008 23.763 32.0319 23.7703 32.0635 23.7703C32.095 23.7703 32.1262 23.763 32.1544 23.7491C32.1827 23.7351 32.2074 23.7148 32.2266 23.6898C33.9429 21.3716 34.9967 18.221 34.9967 14.7569C34.9967 11.2928 33.9331 8.15193 32.2299 5.8273C32.2107 5.80225 32.186 5.78195 32.1577 5.76798C32.1294 5.75401 32.0983 5.74675 32.0667 5.74675C32.0352 5.74675 32.0041 5.75401 31.9758 5.76798C31.9475 5.78195 31.9228 5.80225 31.9036 5.8273V5.82404Z" fill="#4ADFBF"/>
<path d="M7.3576 19.6807C6.03735 17.9593 5.45293 15.7844 5.73243 13.6326C6.01194 11.4808 7.13256 9.52762 8.8487 8.20117L9.27939 8.75948C7.71345 9.97382 6.69091 11.7585 6.43481 13.7243C6.1787 15.6901 6.7098 17.6775 7.91228 19.253L7.3576 19.6807Z" fill="white"/>
</g>
<defs>
<clipPath id="clip0_983_4102">
<rect width="35" height="28.5714" fill="white" transform="translate(0 0.714355)"/>
</clipPath>
</defs>
</svg>
