<svg width="35" height="29" viewBox="0 0 35 29" fill="none" xmlns="http://www.w3.org/2000/svg">
<g clip-path="url(#clip0_983_5184)">
<path d="M16.8621 28.7917C14.0379 28.7923 11.2769 27.9545 8.92841 26.3842C6.57991 24.8139 4.74936 22.5816 3.66829 19.9697C2.58722 17.3578 2.30419 14.4836 2.85501 11.7107C3.40582 8.93777 4.76573 6.39065 6.76274 4.3915C8.75975 2.39234 11.3041 1.03097 14.0741 0.479567C16.8441 -0.0718389 19.7152 0.211491 22.3243 1.29372C24.9334 2.37595 27.1632 4.20847 28.7319 6.55949C30.3005 8.91051 31.1374 11.6744 31.1368 14.5016C31.129 18.2892 29.6226 21.9194 26.9473 24.5977C24.2719 27.2759 20.6456 28.7839 16.8621 28.7917ZM16.8621 1.8415C14.3607 1.84085 11.9153 2.58281 9.83511 3.97353C7.75496 5.36425 6.13351 7.34127 5.17582 9.65456C4.21812 11.9678 3.96721 14.5135 4.45482 16.9695C4.94242 19.4256 6.14663 21.6817 7.91516 23.4526C9.68369 25.2235 11.9371 26.4295 14.3904 26.9183C16.8437 27.4071 19.3866 27.1565 21.6977 26.1984C24.0087 25.2403 25.9841 23.6176 27.3738 21.5356C28.7636 19.4536 29.5054 17.0057 29.5054 14.5016C29.4951 11.1477 28.1598 7.93405 25.791 5.56214C23.4223 3.19023 20.2124 1.8527 16.8621 1.8415Z" fill="white"/>
<path d="M3.12902 9.93215C2.1872 12.9078 2.1872 16.1021 3.12902 19.0778C2.28396 18.173 1.6314 16.5399 1.6314 14.5017C1.6314 12.4635 2.28396 10.814 3.12902 9.92888M4.52876 7.57715C2.0262 7.58041 0 10.6801 0 14.5017C0 18.3233 2.0262 21.4197 4.52876 21.4197C4.96769 21.4176 5.40126 21.323 5.80125 21.1421C4.65696 19.1158 4.05561 16.8277 4.05561 14.5001C4.05561 12.1724 4.65696 9.88432 5.80125 7.85805C5.40126 7.67709 4.96769 7.58249 4.52876 7.58041V7.57715Z" fill="white"/>
<path d="M21.5122 14.6174C21.5763 12.0476 19.5472 9.91236 16.9802 9.8482C14.4132 9.78405 12.2802 11.8153 12.2161 14.3851C12.152 16.9549 14.1811 19.0901 16.7481 19.1542C19.3152 19.2184 21.4481 17.1872 21.5122 14.6174Z" fill="#4ADFBF"/>
<path d="M22.7157 10.21L21.5835 11.4577C22.3132 12.2915 22.7154 13.3623 22.7154 14.4708C22.7154 15.5794 22.3132 16.6502 21.5835 17.484L22.7157 18.7317C23.7506 17.5541 24.3214 16.0393 24.3214 14.4708C24.3214 12.9024 23.7506 11.3876 22.7157 10.21ZM22.7157 10.21L21.5835 11.4577C22.3132 12.2915 22.7154 13.3623 22.7154 14.4708C22.7154 15.5794 22.3132 16.6502 21.5835 17.484L22.7157 18.7317C23.7506 17.5541 24.3214 16.0393 24.3214 14.4708C24.3214 12.9024 23.7506 11.3876 22.7157 10.21ZM22.7157 10.21L21.5835 11.4577C22.3132 12.2915 22.7154 13.3623 22.7154 14.4708C22.7154 15.5794 22.3132 16.6502 21.5835 17.484L22.7157 18.7317C23.7506 17.5541 24.3214 16.0393 24.3214 14.4708C24.3214 12.9024 23.7506 11.3876 22.7157 10.21ZM22.7157 10.21L21.5835 11.4577C22.3132 12.2915 22.7154 13.3623 22.7154 14.4708C22.7154 15.5794 22.3132 16.6502 21.5835 17.484L22.7157 18.7317C23.7506 17.5541 24.3214 16.0393 24.3214 14.4708C24.3214 12.9024 23.7506 11.3876 22.7157 10.21ZM22.7157 10.21L21.5835 11.4577C22.3132 12.2915 22.7154 13.3623 22.7154 14.4708C22.7154 15.5794 22.3132 16.6502 21.5835 17.484L22.7157 18.7317C23.7506 17.5541 24.3214 16.0393 24.3214 14.4708C24.3214 12.9024 23.7506 11.3876 22.7157 10.21ZM22.7157 10.21L21.5835 11.4577C22.3132 12.2915 22.7154 13.3623 22.7154 14.4708C22.7154 15.5794 22.3132 16.6502 21.5835 17.484L22.7157 18.7317C23.7506 17.5541 24.3214 16.0393 24.3214 14.4708C24.3214 12.9024 23.7506 11.3876 22.7157 10.21ZM22.7157 10.21L21.5835 11.4577C22.3132 12.2915 22.7154 13.3623 22.7154 14.4708C22.7154 15.5794 22.3132 16.6502 21.5835 17.484L22.7157 18.7317C23.7506 17.5541 24.3214 16.0393 24.3214 14.4708C24.3214 12.9024 23.7506 11.3876 22.7157 10.21ZM22.7157 10.21L21.5835 11.4577C22.3132 12.2915 22.7154 13.3623 22.7154 14.4708C22.7154 15.5794 22.3132 16.6502 21.5835 17.484L22.7157 18.7317C23.7506 17.5541 24.3214 16.0393 24.3214 14.4708C24.3214 12.9024 23.7506 11.3876 22.7157 10.21ZM22.7157 10.21L21.5835 11.4577C22.3132 12.2915 22.7154 13.3623 22.7154 14.4708C22.7154 15.5794 22.3132 16.6502 21.5835 17.484L22.7157 18.7317C23.7506 17.5541 24.3214 16.0393 24.3214 14.4708C24.3214 12.9024 23.7506 11.3876 22.7157 10.21ZM22.7157 10.21L21.5835 11.4577C22.3132 12.2915 22.7154 13.3623 22.7154 14.4708C22.7154 15.5794 22.3132 16.6502 21.5835 17.484L22.7157 18.7317C23.7506 17.5541 24.3214 16.0393 24.3214 14.4708C24.3214 12.9024 23.7506 11.3876 22.7157 10.21ZM22.7157 10.21L21.5835 11.4577C22.3132 12.2915 22.7154 13.3623 22.7154 14.4708C22.7154 15.5794 22.3132 16.6502 21.5835 17.484L22.7157 18.7317C23.7506 17.5541 24.3214 16.0393 24.3214 14.4708C24.3214 12.9024 23.7506 11.3876 22.7157 10.21ZM22.7157 10.21L21.5835 11.4577C22.3132 12.2915 22.7154 13.3623 22.7154 14.4708C22.7154 15.5794 22.3132 16.6502 21.5835 17.484L22.7157 18.7317C23.7506 17.5541 24.3214 16.0393 24.3214 14.4708C24.3214 12.9024 23.7506 11.3876 22.7157 10.21ZM22.7157 10.21L21.5835 11.4577C22.3132 12.2915 22.7154 13.3623 22.7154 14.4708C22.7154 15.5794 22.3132 16.6502 21.5835 17.484L22.7157 18.7317C23.7506 17.5541 24.3214 16.0393 24.3214 14.4708C24.3214 12.9024 23.7506 11.3876 22.7157 10.21ZM22.7157 10.21L21.5835 11.4577C22.3132 12.2915 22.7154 13.3623 22.7154 14.4708C22.7154 15.5794 22.3132 16.6502 21.5835 17.484L22.7157 18.7317C23.7506 17.5541 24.3214 16.0393 24.3214 14.4708C24.3214 12.9024 23.7506 11.3876 22.7157 10.21ZM22.7157 10.21L21.5835 11.4577C22.3132 12.2915 22.7154 13.3623 22.7154 14.4708C22.7154 15.5794 22.3132 16.6502 21.5835 17.484L22.7157 18.7317C23.7506 17.5541 24.3214 16.0393 24.3214 14.4708C24.3214 12.9024 23.7506 11.3876 22.7157 10.21ZM22.7157 10.21L21.5835 11.4577C22.3132 12.2915 22.7154 13.3623 22.7154 14.4708C22.7154 15.5794 22.3132 16.6502 21.5835 17.484L22.7157 18.7317C23.7506 17.5541 24.3214 16.0393 24.3214 14.4708C24.3214 12.9024 23.7506 11.3876 22.7157 10.21ZM22.7157 10.21L21.5835 11.4577C22.3132 12.2915 22.7154 13.3623 22.7154 14.4708C22.7154 15.5794 22.3132 16.6502 21.5835 17.484L22.7157 18.7317C23.7506 17.5541 24.3214 16.0393 24.3214 14.4708C24.3214 12.9024 23.7506 11.3876 22.7157 10.21ZM22.7157 10.21L21.5835 11.4577C22.3132 12.2915 22.7154 13.3623 22.7154 14.4708C22.7154 15.5794 22.3132 16.6502 21.5835 17.484L22.7157 18.7317C23.7506 17.5541 24.3214 16.0393 24.3214 14.4708C24.3214 12.9024 23.7506 11.3876 22.7157 10.21ZM22.7157 10.21L21.5835 11.4577C22.3132 12.2915 22.7154 13.3623 22.7154 14.4708C22.7154 15.5794 22.3132 16.6502 21.5835 17.484L22.7157 18.7317C23.7506 17.5541 24.3214 16.0393 24.3214 14.4708C24.3214 12.9024 23.7506 11.3876 22.7157 10.21ZM22.7157 10.21L21.5835 11.4577C22.3132 12.2915 22.7154 13.3623 22.7154 14.4708C22.7154 15.5794 22.3132 16.6502 21.5835 17.484L22.7157 18.7317C23.7506 17.5541 24.3214 16.0393 24.3214 14.4708C24.3214 12.9024 23.7506 11.3876 22.7157 10.21ZM22.7157 10.21L21.5835 11.4577C22.3132 12.2915 22.7154 13.3623 22.7154 14.4708C22.7154 15.5794 22.3132 16.6502 21.5835 17.484L22.7157 18.7317C23.7506 17.5541 24.3214 16.0393 24.3214 14.4708C24.3214 12.9024 23.7506 11.3876 22.7157 10.21ZM22.7157 10.21L21.5835 11.4577C22.3132 12.2915 22.7154 13.3623 22.7154 14.4708C22.7154 15.5794 22.3132 16.6502 21.5835 17.484L22.7157 18.7317C23.7506 17.5541 24.3214 16.0393 24.3214 14.4708C24.3214 12.9024 23.7506 11.3876 22.7157 10.21ZM22.7157 10.21L21.5835 11.4577C22.3132 12.2915 22.7154 13.3623 22.7154 14.4708C22.7154 15.5794 22.3132 16.6502 21.5835 17.484L22.7157 18.7317C23.7506 17.5541 24.3214 16.0393 24.3214 14.4708C24.3214 12.9024 23.7506 11.3876 22.7157 10.21Z" fill="#4ADFBF"/>
<path d="M26.5721 8.32812L24.9929 10.0691C26.0066 11.2312 26.5651 12.7218 26.5651 14.2646C26.5651 15.8074 26.0066 17.298 24.9929 18.4602L26.5721 20.1978C28.0301 18.564 28.826 16.4439 28.8039 14.2532C28.8183 12.0697 28.0231 9.95846 26.5721 8.32812ZM26.5721 8.32812L24.9929 10.0691C26.0066 11.2312 26.5651 12.7218 26.5651 14.2646C26.5651 15.8074 26.0066 17.298 24.9929 18.4602L26.5721 20.1978C28.0301 18.564 28.826 16.4439 28.8039 14.2532C28.8183 12.0697 28.0231 9.95846 26.5721 8.32812ZM26.5721 8.32812L24.9929 10.0691C26.0066 11.2312 26.5651 12.7218 26.5651 14.2646C26.5651 15.8074 26.0066 17.298 24.9929 18.4602L26.5721 20.1978C28.0301 18.564 28.826 16.4439 28.8039 14.2532C28.8183 12.0697 28.0231 9.95846 26.5721 8.32812ZM26.5721 8.32812L24.9929 10.0691C26.0066 11.2312 26.5651 12.7218 26.5651 14.2646C26.5651 15.8074 26.0066 17.298 24.9929 18.4602L26.5721 20.1978C28.0301 18.564 28.826 16.4439 28.8039 14.2532C28.8183 12.0697 28.0231 9.95846 26.5721 8.32812ZM26.5721 8.32812L24.9929 10.0691C26.0066 11.2312 26.5651 12.7218 26.5651 14.2646C26.5651 15.8074 26.0066 17.298 24.9929 18.4602L26.5721 20.1978C28.0301 18.564 28.826 16.4439 28.8039 14.2532C28.8183 12.0697 28.0231 9.95846 26.5721 8.32812ZM26.5721 8.32812L24.9929 10.0691C26.0066 11.2312 26.5651 12.7218 26.5651 14.2646C26.5651 15.8074 26.0066 17.298 24.9929 18.4602L26.5721 20.1978C28.0301 18.564 28.826 16.4439 28.8039 14.2532C28.8183 12.0697 28.0231 9.95846 26.5721 8.32812ZM26.5721 8.32812L24.9929 10.0691C26.0066 11.2312 26.5651 12.7218 26.5651 14.2646C26.5651 15.8074 26.0066 17.298 24.9929 18.4602L26.5721 20.1978C28.0301 18.564 28.826 16.4439 28.8039 14.2532C28.8183 12.0697 28.0231 9.95846 26.5721 8.32812ZM26.5721 8.32812L24.9929 10.0691C26.0066 11.2312 26.5651 12.7218 26.5651 14.2646C26.5651 15.8074 26.0066 17.298 24.9929 18.4602L26.5721 20.1978C28.0301 18.564 28.826 16.4439 28.8039 14.2532C28.8183 12.0697 28.0231 9.95846 26.5721 8.32812ZM26.5721 8.32812L24.9929 10.0691C26.0066 11.2312 26.5651 12.7218 26.5651 14.2646C26.5651 15.8074 26.0066 17.298 24.9929 18.4602L26.5721 20.1978C28.0301 18.564 28.826 16.4439 28.8039 14.2532C28.8183 12.0697 28.0231 9.95846 26.5721 8.32812ZM26.5721 8.32812L24.9929 10.0691C26.0066 11.2312 26.5651 12.7218 26.5651 14.2646C26.5651 15.8074 26.0066 17.298 24.9929 18.4602L26.5721 20.1978C28.0301 18.564 28.826 16.4439 28.8039 14.2532C28.8183 12.0697 28.0231 9.95846 26.5721 8.32812ZM26.5721 8.32812L24.9929 10.0691C26.0066 11.2312 26.5651 12.7218 26.5651 14.2646C26.5651 15.8074 26.0066 17.298 24.9929 18.4602L26.5721 20.1978C28.0301 18.564 28.826 16.4439 28.8039 14.2532C28.8183 12.0697 28.0231 9.95846 26.5721 8.32812ZM26.5721 8.32812L24.9929 10.0691C26.0066 11.2312 26.5651 12.7218 26.5651 14.2646C26.5651 15.8074 26.0066 17.298 24.9929 18.4602L26.5721 20.1978C28.0301 18.564 28.826 16.4439 28.8039 14.2532C28.8183 12.0697 28.0231 9.95846 26.5721 8.32812ZM26.5721 8.32812L24.9929 10.0691C26.0066 11.2312 26.5651 12.7218 26.5651 14.2646C26.5651 15.8074 26.0066 17.298 24.9929 18.4602L26.5721 20.1978C28.0301 18.564 28.826 16.4439 28.8039 14.2532C28.8183 12.0697 28.0231 9.95846 26.5721 8.32812ZM26.5721 8.32812L24.9929 10.0691C26.0066 11.2312 26.5651 12.7218 26.5651 14.2646C26.5651 15.8074 26.0066 17.298 24.9929 18.4602L26.5721 20.1978C28.0301 18.564 28.826 16.4439 28.8039 14.2532C28.8183 12.0697 28.0231 9.95846 26.5721 8.32812ZM26.5721 8.32812L24.9929 10.0691C26.0066 11.2312 26.5651 12.7218 26.5651 14.2646C26.5651 15.8074 26.0066 17.298 24.9929 18.4602L26.5721 20.1978C28.0301 18.564 28.826 16.4439 28.8039 14.2532C28.8183 12.0697 28.0231 9.95846 26.5721 8.32812ZM26.5721 8.32812L24.9929 10.0691C26.0066 11.2312 26.5651 12.7218 26.5651 14.2646C26.5651 15.8074 26.0066 17.298 24.9929 18.4602L26.5721 20.1978C28.0301 18.564 28.826 16.4439 28.8039 14.2532C28.8183 12.0697 28.0231 9.95846 26.5721 8.32812ZM26.5721 8.32812L24.9929 10.0691C26.0066 11.2312 26.5651 12.7218 26.5651 14.2646C26.5651 15.8074 26.0066 17.298 24.9929 18.4602L26.5721 20.1978C28.0301 18.564 28.826 16.4439 28.8039 14.2532C28.8183 12.0697 28.0231 9.95846 26.5721 8.32812ZM26.5721 8.32812L24.9929 10.0691C26.0066 11.2312 26.5651 12.7218 26.5651 14.2646C26.5651 15.8074 26.0066 17.298 24.9929 18.4602L26.5721 20.1978C28.0301 18.564 28.826 16.4439 28.8039 14.2532C28.8183 12.0697 28.0231 9.95846 26.5721 8.32812ZM26.5721 8.32812L24.9929 10.0691C26.0066 11.2312 26.5651 12.7218 26.5651 14.2646C26.5651 15.8074 26.0066 17.298 24.9929 18.4602L26.5721 20.1978C28.0301 18.564 28.826 16.4439 28.8039 14.2532C28.8183 12.0697 28.0231 9.95846 26.5721 8.32812ZM26.5721 8.32812L24.9929 10.0691C26.0066 11.2312 26.5651 12.7218 26.5651 14.2646C26.5651 15.8074 26.0066 17.298 24.9929 18.4602L26.5721 20.1978C28.0301 18.564 28.826 16.4439 28.8039 14.2532C28.8183 12.0697 28.0231 9.95846 26.5721 8.32812ZM26.5721 8.32812L24.9929 10.0691C26.0066 11.2312 26.5651 12.7218 26.5651 14.2646C26.5651 15.8074 26.0066 17.298 24.9929 18.4602L26.5721 20.1978C28.0301 18.564 28.826 16.4439 28.8039 14.2532C28.8183 12.0697 28.0231 9.95846 26.5721 8.32812ZM26.5721 8.32812L24.9929 10.0691C26.0066 11.2312 26.5651 12.7218 26.5651 14.2646C26.5651 15.8074 26.0066 17.298 24.9929 18.4602L26.5721 20.1978C28.0301 18.564 28.826 16.4439 28.8039 14.2532C28.8183 12.0697 28.0231 9.95846 26.5721 8.32812ZM26.5721 8.32812L24.9929 10.0691C26.0066 11.2312 26.5651 12.7218 26.5651 14.2646C26.5651 15.8074 26.0066 17.298 24.9929 18.4602L26.5721 20.1978C28.0301 18.564 28.826 16.4439 28.8039 14.2532C28.8183 12.0697 28.0231 9.95846 26.5721 8.32812Z" fill="#4ADFBF"/>
<path d="M32.0667 5.10791L29.9949 7.78954C31.37 9.66058 32.0954 11.9309 32.0602 14.2535C32.0981 16.5786 31.3725 18.8518 29.9949 20.7241L32.0667 23.4057C33.8809 21.067 35.0033 17.8269 35.0033 14.2601C35.0033 10.6933 33.8809 7.45638 32.0667 5.10791ZM32.0667 5.10791L29.9949 7.78954C31.37 9.66058 32.0954 11.9309 32.0602 14.2535C32.0981 16.5786 31.3725 18.8518 29.9949 20.7241L32.0667 23.4057C33.8809 21.067 35.0033 17.8269 35.0033 14.2601C35.0033 10.6933 33.8809 7.45638 32.0667 5.10791ZM32.0667 5.10791L29.9949 7.78954C31.37 9.66058 32.0954 11.9309 32.0602 14.2535C32.0981 16.5786 31.3725 18.8518 29.9949 20.7241L32.0667 23.4057C33.8809 21.067 35.0033 17.8269 35.0033 14.2601C35.0033 10.6933 33.8809 7.45638 32.0667 5.10791ZM32.0667 5.10791L29.9949 7.78954C31.37 9.66058 32.0954 11.9309 32.0602 14.2535C32.0981 16.5786 31.3725 18.8518 29.9949 20.7241L32.0667 23.4057C33.8809 21.067 35.0033 17.8269 35.0033 14.2601C35.0033 10.6933 33.8809 7.45638 32.0667 5.10791ZM32.0667 5.10791L29.9949 7.78954C31.37 9.66058 32.0954 11.9309 32.0602 14.2535C32.0981 16.5786 31.3725 18.8518 29.9949 20.7241L32.0667 23.4057C33.8809 21.067 35.0033 17.8269 35.0033 14.2601C35.0033 10.6933 33.8809 7.45638 32.0667 5.10791ZM32.0667 5.10791L29.9949 7.78954C31.37 9.66058 32.0954 11.9309 32.0602 14.2535C32.0981 16.5786 31.3725 18.8518 29.9949 20.7241L32.0667 23.4057C33.8809 21.067 35.0033 17.8269 35.0033 14.2601C35.0033 10.6933 33.8809 7.45638 32.0667 5.10791ZM32.0667 5.10791L29.9949 7.78954C31.37 9.66058 32.0954 11.9309 32.0602 14.2535C32.0981 16.5786 31.3725 18.8518 29.9949 20.7241L32.0667 23.4057C33.8809 21.067 35.0033 17.8269 35.0033 14.2601C35.0033 10.6933 33.8809 7.45638 32.0667 5.10791ZM32.0667 5.10791L29.9949 7.78954C31.37 9.66058 32.0954 11.9309 32.0602 14.2535C32.0981 16.5786 31.3725 18.8518 29.9949 20.7241L32.0667 23.4057C33.8809 21.067 35.0033 17.8269 35.0033 14.2601C35.0033 10.6933 33.8809 7.45638 32.0667 5.10791ZM32.0667 5.10791L29.9949 7.78954C31.37 9.66058 32.0954 11.9309 32.0602 14.2535C32.0981 16.5786 31.3725 18.8518 29.9949 20.7241L32.0667 23.4057C33.8809 21.067 35.0033 17.8269 35.0033 14.2601C35.0033 10.6933 33.8809 7.45638 32.0667 5.10791ZM32.0667 5.10791L29.9949 7.78954C31.37 9.66058 32.0954 11.9309 32.0602 14.2535C32.0981 16.5786 31.3725 18.8518 29.9949 20.7241L32.0667 23.4057C33.8809 21.067 35.0033 17.8269 35.0033 14.2601C35.0033 10.6933 33.8809 7.45638 32.0667 5.10791ZM32.0667 5.10791L29.9949 7.78954C31.37 9.66058 32.0954 11.9309 32.0602 14.2535C32.0981 16.5786 31.3725 18.8518 29.9949 20.7241L32.0667 23.4057C33.8809 21.067 35.0033 17.8269 35.0033 14.2601C35.0033 10.6933 33.8809 7.45638 32.0667 5.10791ZM32.0667 5.10791L29.9949 7.78954C31.37 9.66058 32.0954 11.9309 32.0602 14.2535C32.0981 16.5786 31.3725 18.8518 29.9949 20.7241L32.0667 23.4057C33.8809 21.067 35.0033 17.8269 35.0033 14.2601C35.0033 10.6933 33.8809 7.45638 32.0667 5.10791ZM32.0667 5.10791L29.9949 7.78954C31.37 9.66058 32.0954 11.9309 32.0602 14.2535C32.0981 16.5786 31.3725 18.8518 29.9949 20.7241L32.0667 23.4057C33.8809 21.067 35.0033 17.8269 35.0033 14.2601C35.0033 10.6933 33.8809 7.45638 32.0667 5.10791ZM32.0667 5.10791L29.9949 7.78954C31.37 9.66058 32.0954 11.9309 32.0602 14.2535C32.0981 16.5786 31.3725 18.8518 29.9949 20.7241L32.0667 23.4057C33.8809 21.067 35.0033 17.8269 35.0033 14.2601C35.0033 10.6933 33.8809 7.45638 32.0667 5.10791ZM32.0667 5.10791L29.9949 7.78954C31.37 9.66058 32.0954 11.9309 32.0602 14.2535C32.0981 16.5786 31.3725 18.8518 29.9949 20.7241L32.0667 23.4057C33.8809 21.067 35.0033 17.8269 35.0033 14.2601C35.0033 10.6933 33.8809 7.45638 32.0667 5.10791ZM32.0667 5.10791L29.9949 7.78954C31.37 9.66058 32.0954 11.9309 32.0602 14.2535C32.0981 16.5786 31.3725 18.8518 29.9949 20.7241L32.0667 23.4057C33.8809 21.067 35.0033 17.8269 35.0033 14.2601C35.0033 10.6933 33.8809 7.45638 32.0667 5.10791ZM32.0667 5.10791L29.9949 7.78954C31.37 9.66058 32.0954 11.9309 32.0602 14.2535C32.0981 16.5786 31.3725 18.8518 29.9949 20.7241L32.0667 23.4057C33.8809 21.067 35.0033 17.8269 35.0033 14.2601C35.0033 10.6933 33.8809 7.45638 32.0667 5.10791ZM32.0667 5.10791L29.9949 7.78954C31.37 9.66058 32.0954 11.9309 32.0602 14.2535C32.0981 16.5786 31.3725 18.8518 29.9949 20.7241L32.0667 23.4057C33.8809 21.067 35.0033 17.8269 35.0033 14.2601C35.0033 10.6933 33.8809 7.45638 32.0667 5.10791ZM32.0667 5.10791L29.9949 7.78954C31.37 9.66058 32.0954 11.9309 32.0602 14.2535C32.0981 16.5786 31.3725 18.8518 29.9949 20.7241L32.0667 23.4057C33.8809 21.067 35.0033 17.8269 35.0033 14.2601C35.0033 10.6933 33.8809 7.45638 32.0667 5.10791ZM32.0667 5.10791L29.9949 7.78954C31.37 9.66058 32.0954 11.9309 32.0602 14.2535C32.0981 16.5786 31.3725 18.8518 29.9949 20.7241L32.0667 23.4057C33.8809 21.067 35.0033 17.8269 35.0033 14.2601C35.0033 10.6933 33.8809 7.45638 32.0667 5.10791ZM32.0667 5.10791L29.9949 7.78954C31.37 9.66058 32.0954 11.9309 32.0602 14.2535C32.0981 16.5786 31.3725 18.8518 29.9949 20.7241L32.0667 23.4057C33.8809 21.067 35.0033 17.8269 35.0033 14.2601C35.0033 10.6933 33.8809 7.45638 32.0667 5.10791ZM32.0667 5.10791L29.9949 7.78954C31.37 9.66058 32.0954 11.9309 32.0602 14.2535C32.0981 16.5786 31.3725 18.8518 29.9949 20.7241L32.0667 23.4057C33.8809 21.067 35.0033 17.8269 35.0033 14.2601C35.0033 10.6933 33.8809 7.45638 32.0667 5.10791ZM31.9036 5.32022L30.0895 7.66868C30.0635 7.70362 30.0495 7.746 30.0495 7.78954C30.0495 7.83308 30.0635 7.87545 30.0895 7.91039C31.4038 9.76102 32.0942 11.9831 32.0602 14.2535C32.0955 16.5257 31.4038 18.7495 30.0862 20.5999C30.06 20.6354 30.0458 20.6783 30.0458 20.7224C30.0458 20.7665 30.06 20.8095 30.0862 20.8449L31.9003 23.1934C31.9195 23.2184 31.9442 23.2387 31.9725 23.2527C32.0008 23.2667 32.0319 23.274 32.0635 23.274C32.095 23.274 32.1262 23.2667 32.1544 23.2527C32.1827 23.2387 32.2074 23.2184 32.2266 23.1934C33.9429 20.8743 34.9967 17.7223 34.9967 14.2568C34.9967 10.7913 33.9331 7.64909 32.2299 5.32349C32.2107 5.29842 32.186 5.27812 32.1577 5.26414C32.1294 5.25017 32.0983 5.2429 32.0667 5.2429C32.0352 5.2429 32.0041 5.25017 31.9758 5.26414C31.9475 5.27812 31.9228 5.29842 31.9036 5.32349V5.32022Z" fill="#4ADFBF"/>
<path d="M7.3576 19.182C6.03735 17.46 5.45293 15.2841 5.73243 13.1314C6.01194 10.9787 7.13256 9.02476 8.8487 7.69775L9.27939 8.25629C7.71345 9.47114 6.69091 11.2566 6.43481 13.2232C6.1787 15.1898 6.7098 17.178 7.91228 18.7542L7.3576 19.182Z" fill="white"/>
</g>
<defs>
<clipPath id="clip0_983_5184">
<rect width="35" height="28.5833" fill="white" transform="translate(0 0.208496)"/>
</clipPath>
</defs>
</svg>
