<svg width="35" height="30" viewBox="0 0 35 30" fill="none" xmlns="http://www.w3.org/2000/svg">
<g clip-path="url(#clip0_983_4113)">
<path d="M6.19287 21.3452L10.0983 22.6936L14.0006 24.0419L10.6821 27.3192L8.56597 29.4068C8.4595 29.528 8.31933 29.6148 8.16333 29.6561C8.00733 29.6974 7.84257 29.6912 7.69008 29.6385C7.53758 29.5857 7.40426 29.4887 7.30711 29.3599C7.20997 29.231 7.15341 29.0761 7.14465 28.915L6.77345 25.9708L6.19287 21.3452Z" fill="white"/>
<path d="M17.5 1.90368C21.856 1.90368 25.9327 3.05533 28.9753 5.14606C31.8306 7.11307 33.4169 9.67017 33.4169 12.3447C33.4169 15.0192 31.8306 17.5763 28.9753 19.5433C25.9327 21.634 21.856 22.7857 17.5 22.7857C13.144 22.7857 9.06726 21.634 6.02792 19.5433C3.17259 17.5763 1.58629 15.0192 1.58629 12.3447C1.58629 9.67017 3.17259 7.11307 6.02792 5.14606C9.06726 3.05533 13.144 1.90368 17.5 1.90368ZM17.5 0.317383C7.8363 0.317383 0 5.71078 0 12.3447C0 18.9785 7.8363 24.372 17.5 24.372C27.1637 24.372 35 18.9785 35 12.3447C35 5.71078 27.1637 0.317383 17.5 0.317383Z" fill="white"/>
<path d="M5.82163 16.1453C4.8937 14.6072 4.61406 12.7638 5.04412 11.0197C5.47419 9.27569 6.5788 7.77359 8.11541 6.84326L8.41364 7.34136C7.00999 8.19256 6.00126 9.56574 5.60872 11.1597C5.21618 12.7536 5.47188 14.4382 6.31973 15.8439L5.82163 16.1453Z" fill="white"/>
</g>
<defs>
<clipPath id="clip0_983_4113">
<rect width="35" height="29.3655" fill="white" transform="translate(0 0.317383)"/>
</clipPath>
</defs>
</svg>
