<svg width="35" height="42" viewBox="0 0 35 42" fill="none" xmlns="http://www.w3.org/2000/svg">
<g clip-path="url(#clip0_983_4120)">
<path d="M30.2545 35.4067C29.8469 35.4059 29.4546 35.2575 29.1556 34.9911L17.4766 24.7069L5.75062 34.9202C5.51675 35.1275 5.22442 35.2638 4.91032 35.312C4.59622 35.3601 4.27432 35.318 3.98502 35.1909C3.69101 35.0707 3.44059 34.8694 3.2653 34.6126C3.09002 34.3557 2.99772 34.0547 3.00004 33.7475L3.1039 1.20661C3.10741 0.994929 3.19709 0.793013 3.35369 0.64422C3.5103 0.495427 3.72133 0.411624 3.94147 0.410808H4.08218C4.12779 0.405382 4.17393 0.405382 4.21954 0.410808L31.1658 0.491354C31.2756 0.491353 31.3844 0.51221 31.4858 0.552728C31.5872 0.593246 31.6793 0.652627 31.7568 0.727464C31.8344 0.802301 31.8957 0.891121 31.9375 0.988826C31.9792 1.08653 32.0004 1.1912 32 1.29682L31.8961 33.8377C31.8968 34.1429 31.8046 34.4416 31.6307 34.697C31.4568 34.9524 31.209 35.1532 30.9179 35.2746C30.7084 35.3617 30.4827 35.4066 30.2545 35.4067ZM17.6072 22.9252C17.8165 22.9248 18.0184 22.9995 18.1734 23.1346L30.2344 33.7443L30.3383 2.09907L4.77904 2.02174L4.67518 33.6669L16.7931 23.1314C16.8852 23.0504 16.995 22.9904 17.1145 22.9558C17.234 22.9212 17.36 22.913 17.4833 22.9317L17.6072 22.9252Z" fill="white"/>
</g>
<defs>
<clipPath id="clip0_983_4120">
<rect width="35" height="41.1765" fill="white" transform="translate(0 0.411621)"/>
</clipPath>
</defs>
</svg>
