<svg width="35" height="32" viewBox="0 0 35 32" fill="none" xmlns="http://www.w3.org/2000/svg">
<g clip-path="url(#clip0_983_4141)">
<path d="M11.7915 12.436C10.1763 12.436 8.59739 12.9025 7.25442 13.7764C5.91145 14.6503 4.86474 15.8923 4.24664 17.3456C3.62854 18.7988 3.46682 20.3979 3.78192 21.9406C4.09702 23.4834 4.8748 24.9005 6.0169 26.0127C7.159 27.125 8.61413 27.8824 10.1983 28.1893C11.7824 28.4962 13.4244 28.3387 14.9166 27.7367C16.4089 27.1348 17.6843 26.1154 18.5816 24.8075C19.479 23.4997 19.9579 21.962 19.9579 20.3891C19.9554 18.2805 19.0942 16.2591 17.5632 14.7681C16.0323 13.2772 13.9566 12.4385 11.7915 12.436ZM11.7915 27.2611C10.3943 27.2611 9.02853 26.8576 7.86692 26.1015C6.70531 25.3454 5.80006 24.2708 5.26568 23.0136C4.7313 21.7565 4.59181 20.3732 4.86484 19.0387C5.13788 17.7043 5.81117 16.4788 6.79956 15.5171C7.78794 14.5554 9.047 13.9008 10.4175 13.6361C11.7879 13.3714 13.2082 13.5085 14.4987 14.03C15.7891 14.5516 16.8917 15.4341 17.667 16.5661C18.4424 17.698 18.8555 19.0284 18.8543 20.3891C18.8543 21.2923 18.6716 22.1867 18.3166 23.0212C17.9617 23.8558 17.4415 24.614 16.7856 25.2527C16.1298 25.8914 15.3512 26.398 14.4943 26.7437C13.6374 27.0894 12.719 27.2673 11.7915 27.2673V27.2611Z" fill="#4ADFBF"/>
<path d="M23.5829 21.8252V18.9683C23.5794 18.7366 23.4887 18.5142 23.3279 18.3433C23.1671 18.1725 22.9475 18.0652 22.7107 18.0417L22.4221 18.0139C22.1216 17.9862 21.8349 17.8772 21.5945 17.6993C21.3541 17.5214 21.1695 17.2816 21.0616 17.0071C20.9886 16.8156 20.9062 16.6272 20.8206 16.4418C20.6978 16.1734 20.6542 15.8769 20.6945 15.5857C20.7348 15.2944 20.8575 15.0198 21.0489 14.7926L21.236 14.5733C21.3878 14.3922 21.4651 14.1626 21.4528 13.9292C21.4405 13.6957 21.3395 13.475 21.1694 13.31L19.0858 11.2469C18.9164 11.0813 18.6898 10.9829 18.4501 10.9709C18.2103 10.9589 17.9746 11.0342 17.7887 11.182L17.5635 11.3643C17.3302 11.5506 17.0482 11.6701 16.7491 11.7094C16.45 11.7487 16.1456 11.7062 15.8699 11.5866C15.6797 11.5032 15.4862 11.4229 15.2896 11.3519C15.0119 11.2452 14.7699 11.0658 14.5903 10.8337C14.4106 10.6015 14.3003 10.3255 14.2715 10.0362L14.243 9.75512C14.2189 9.52457 14.1087 9.31067 13.9333 9.15408C13.7579 8.99749 13.5295 8.90912 13.2916 8.90577H10.3421C10.1029 8.90496 9.87222 8.99191 9.69591 9.14931C9.51959 9.3067 9.41062 9.523 9.39069 9.75512L9.36215 10.0362C9.33303 10.3291 9.22054 10.6084 9.03732 10.8425C8.8541 11.0765 8.60744 11.2562 8.32509 11.3612C8.13163 11.4322 7.93817 11.5125 7.74789 11.5959C7.46859 11.7211 7.1586 11.7666 6.85381 11.7273C6.54903 11.6879 6.26193 11.5653 6.02579 11.3735L5.79745 11.1913C5.61324 11.0409 5.37742 10.9641 5.13739 10.9761C4.89735 10.9881 4.67089 11.0882 4.5035 11.2562L2.41035 13.2853C2.24139 13.4511 2.14141 13.6718 2.1297 13.9051C2.11798 14.1384 2.19537 14.3676 2.34692 14.5486L2.53721 14.7678C2.72926 14.9948 2.8524 15.2694 2.89274 15.5608C2.93309 15.8522 2.88904 16.1488 2.76555 16.4171C2.68098 16.6025 2.6017 16.7909 2.5277 16.9823C2.41911 17.2565 2.23436 17.4959 1.99409 17.6737C1.75382 17.8515 1.4675 17.9608 1.16715 17.9892L0.878548 18.017C0.636325 18.0395 0.411596 18.1497 0.24889 18.3259C0.0861845 18.5021 -0.00262494 18.7313 5.911e-05 18.9683V21.8406C-0.00077271 22.0736 0.0885119 22.2983 0.250133 22.47C0.411755 22.6417 0.633854 22.7478 0.872205 22.7672L1.16081 22.795C1.46349 22.8208 1.75276 22.9284 1.99597 23.1058C2.23918 23.2831 2.42664 23.5232 2.53721 23.7988C2.61015 23.9872 2.68944 24.1756 2.77507 24.3609C2.89726 24.6301 2.93975 24.9272 2.89771 25.2186C2.85568 25.51 2.73081 25.7842 2.53721 26.0102L2.35327 26.2326C2.20193 26.4131 2.12465 26.6418 2.13637 26.8745C2.14808 27.1072 2.24796 27.3275 2.4167 27.4927L4.5035 29.525C4.67314 29.6893 4.89931 29.7866 5.13829 29.798C5.37727 29.8094 5.61212 29.7341 5.79745 29.5867L6.02579 29.4076C6.25878 29.2206 6.54079 29.1007 6.84003 29.0614C7.13926 29.0221 7.44381 29.065 7.71934 29.1852C7.90963 29.2686 8.10309 29.3458 8.29654 29.4169C8.57849 29.5225 8.82477 29.7023 9.00789 29.9362C9.19101 30.1702 9.30378 30.4491 9.3336 30.7419L9.36215 31.0229C9.38208 31.255 9.49105 31.4713 9.66737 31.6287C9.84368 31.7861 10.0744 31.8731 10.3136 31.8723H13.263C13.5009 31.8689 13.7293 31.7805 13.9047 31.624C14.0801 31.4674 14.1904 31.2535 14.2144 31.0229L14.243 30.7419C14.2722 30.4494 14.3844 30.1705 14.5669 29.9365C14.7495 29.7025 14.9953 29.5226 15.2769 29.4169C15.4735 29.3448 15.667 29.2676 15.8573 29.1852C16.1328 29.065 16.4373 29.0221 16.7366 29.0614C17.0358 29.1007 17.3178 29.2206 17.5508 29.4076L17.776 29.5867C17.9618 29.7343 18.1972 29.8097 18.4367 29.7983C18.6762 29.7869 18.9029 29.6895 19.0731 29.525L21.1567 27.4927C21.3329 27.333 21.4404 27.1141 21.4574 26.8803C21.4745 26.6464 21.3999 26.415 21.2487 26.2326L21.0616 26.0102C20.8702 25.783 20.7475 25.5084 20.7072 25.2171C20.6668 24.9258 20.7105 24.6294 20.8332 24.3609C20.9189 24.1756 21.0013 23.9872 21.0743 23.7988C21.1821 23.5238 21.3665 23.2836 21.6069 23.1052C21.8473 22.9267 22.134 22.8172 22.4348 22.7888L22.7234 22.761C22.9611 22.7386 23.1815 22.6299 23.3407 22.4565C23.4999 22.2831 23.5864 22.0578 23.5829 21.8252ZM12.5146 28.9845C10.7076 29.1291 8.89865 28.7301 7.33206 27.8413C5.76547 26.9525 4.51679 25.6168 3.75473 24.0147C2.99268 22.4126 2.75398 20.6213 3.0709 18.8829C3.38781 17.1444 4.24506 15.5426 5.52682 14.2938C6.80857 13.0451 8.45304 12.2096 10.238 11.9003C12.023 11.591 13.8625 11.8228 15.5079 12.5643C17.1533 13.3058 18.5253 14.5213 19.4385 16.0466C20.3518 17.5719 20.7622 19.3334 20.6144 21.0932C20.4384 23.1282 19.5286 25.0368 18.0461 26.4812C16.5636 27.9255 14.6041 28.8123 12.5146 28.9845Z" fill="white"/>
<path d="M34.5686 5.74601L33.6965 5.5885C33.6616 5.45569 33.6235 5.32288 33.5791 5.19007L34.2134 4.66193C34.4291 4.54148 34.5305 4.3191 34.4417 4.17085L33.6045 2.76247C33.5375 2.68677 33.4431 2.63909 33.3409 2.62932C33.2388 2.61954 33.1367 2.64842 33.0558 2.70996L32.2186 2.9972C32.1192 2.89836 32.0135 2.80262 31.9014 2.70996L32.1837 1.93782C32.2465 1.85868 32.2756 1.75903 32.265 1.65953C32.2544 1.56004 32.2048 1.46835 32.1266 1.4035L30.6804 0.591213C30.5282 0.504734 30.303 0.591213 30.1793 0.810501L29.6021 1.46836C29.4658 1.4313 29.3294 1.39733 29.1898 1.36953L29.0376 0.563416C29.0376 0.322509 28.8917 0.12793 28.7205 0.12793H27.0459C26.8683 0.12793 26.7288 0.322509 26.7288 0.563416L26.5671 1.41277C26.4307 1.44674 26.2943 1.48381 26.1579 1.52705L25.6125 0.909334C25.4888 0.699313 25.2636 0.600479 25.1114 0.686958L23.6589 1.49925C23.5806 1.5641 23.5311 1.65578 23.5205 1.75528C23.5098 1.85477 23.5389 1.95443 23.6018 2.03357L23.8999 2.84895C23.7984 2.94366 23.7001 3.04662 23.6049 3.1578L22.8121 2.88292C22.7308 2.82174 22.6285 2.79338 22.5263 2.80374C22.4242 2.81409 22.33 2.86235 22.2634 2.93852L21.4293 4.3469C21.3405 4.49515 21.4293 4.71444 21.6545 4.83489L22.33 5.37848C22.292 5.51128 22.2571 5.64409 22.2285 5.77999L21.4008 5.92824C21.1534 5.92824 20.9536 6.07031 20.9536 6.23709V7.86168C20.9536 8.03772 21.1534 8.17053 21.4008 8.17053L22.2729 8.32805C22.3078 8.46085 22.3459 8.59366 22.3903 8.72647L21.756 9.2577C21.5403 9.37816 21.4388 9.59744 21.5276 9.74569L22.3617 11.1541C22.4289 11.2305 22.5236 11.2788 22.6263 11.2891C22.7289 11.2995 22.8318 11.271 22.9136 11.2097L23.7477 10.9379C23.847 11.0367 23.9527 11.1325 24.0648 11.2251L23.7857 11.9973C23.7229 12.0764 23.6938 12.1761 23.7044 12.2755C23.715 12.375 23.7646 12.4667 23.8428 12.5316L25.289 13.3439C25.4412 13.4303 25.6664 13.3439 25.7901 13.1246L26.3514 12.4822C26.4846 12.5192 26.6241 12.5532 26.7637 12.581L26.9159 13.3871C26.9159 13.628 27.0618 13.8226 27.2331 13.8226H28.9012C29.0788 13.8226 29.2184 13.628 29.2184 13.3871L29.3801 12.5378C29.5165 12.5038 29.6529 12.4667 29.7892 12.4235L30.3316 13.0412C30.4552 13.2512 30.6836 13.35 30.8358 13.2636L32.282 12.4513C32.3599 12.3855 32.409 12.293 32.419 12.193C32.429 12.093 32.3993 11.9931 32.3359 11.9139L32.041 11.0985C32.1424 11.0038 32.2408 10.9008 32.3359 10.7896L33.1288 11.0645C33.21 11.1257 33.3124 11.154 33.4145 11.1437C33.5167 11.1333 33.6108 11.0851 33.6774 11.0089L34.5115 9.60053C34.6003 9.45228 34.5115 9.23299 34.2863 9.11254L33.6172 8.55042C33.6552 8.4207 33.6901 8.28481 33.7187 8.14891L34.5464 8.00066C34.7938 8.00066 34.9936 7.85859 34.9936 7.6918V6.06105C34.9999 5.88809 34.8001 5.74601 34.5686 5.74601ZM27.9752 11.5772C27.0386 11.5772 26.123 11.3067 25.3442 10.7999C24.5655 10.293 23.9586 9.57269 23.6003 8.72992C23.2421 7.88715 23.1485 6.95983 23.3314 6.06525C23.5144 5.17068 23.9657 4.34905 24.6282 3.70428C25.2907 3.05951 26.1347 2.62058 27.0534 2.44301C27.9721 2.26543 28.9242 2.35719 29.7894 2.70667C30.6545 3.05616 31.3938 3.64767 31.9137 4.40639C32.4336 5.1651 32.7108 6.05694 32.7101 6.96908C32.7101 7.57449 32.5876 8.17396 32.3496 8.73325C32.1117 9.29253 31.7628 9.80067 31.3231 10.2286C30.8834 10.6566 30.3614 10.9959 29.7869 11.2273C29.2125 11.4587 28.5968 11.5776 27.9752 11.5772Z" fill="white"/>
<path d="M27.9753 3.58399C27.2702 3.58399 26.5809 3.78767 25.9946 4.16926C25.4083 4.55085 24.9514 5.09322 24.6817 5.72774C24.412 6.36226 24.3416 7.06043 24.4794 7.73392C24.6172 8.40742 24.957 9.02598 25.4558 9.51136C25.9547 9.99674 26.5902 10.3271 27.2819 10.4607C27.9735 10.5943 28.6904 10.5251 29.3417 10.2619C29.993 9.99869 30.5495 9.55326 30.9408 8.98196C31.3321 8.41066 31.5407 7.73917 31.54 7.05243C31.54 6.59669 31.4478 6.14542 31.2686 5.7244C31.0894 5.30339 30.8268 4.92089 30.4958 4.59878C30.1647 4.27666 29.7717 4.02124 29.3393 3.84712C28.9068 3.67299 28.4433 3.58358 27.9753 3.58399ZM27.9753 9.85067C27.4071 9.85067 26.8515 9.68655 26.379 9.37908C25.9065 9.07161 25.5382 8.63458 25.3207 8.12327C25.1033 7.61196 25.0464 7.04933 25.1572 6.50653C25.2681 5.96372 25.5418 5.46513 25.9436 5.07379C26.3454 4.68245 26.8574 4.41594 27.4148 4.30797C27.9722 4.2 28.5499 4.25541 29.0749 4.46721C29.5999 4.679 30.0487 5.03765 30.3644 5.49782C30.6801 5.95799 30.8487 6.499 30.8487 7.05243C30.8487 7.4199 30.7743 7.78377 30.6299 8.12327C30.4855 8.46277 30.2739 8.77124 30.0071 9.03108C29.7403 9.29092 29.4235 9.49704 29.0749 9.63766C28.7263 9.77829 28.3527 9.85067 27.9753 9.85067Z" fill="#4ADFBF"/>
<path d="M8.09356 25.0804C6.88073 23.7909 6.24295 22.0853 6.32025 20.3382C6.39755 18.5912 7.18362 16.9454 8.50584 15.7622L8.8991 16.1884C7.69066 17.2701 6.97223 18.7746 6.90147 20.3715C6.83072 21.9685 7.41342 23.5276 8.5217 24.7067L8.09356 25.0804Z" fill="white"/>
</g>
<defs>
<clipPath id="clip0_983_4141">
<rect width="35" height="31.7442" fill="white" transform="translate(0 0.12793)"/>
</clipPath>
</defs>
</svg>
