<svg width="21" height="20" viewBox="0 0 21 20" fill="none" xmlns="http://www.w3.org/2000/svg">
<g clip-path="url(#clip0_983_50)">
<path fill-rule="evenodd" clip-rule="evenodd" d="M9.14955 10.0409V15.0672C9.14955 15.1019 9.1633 15.1352 9.18778 15.1597C9.21227 15.1843 9.24549 15.1982 9.28018 15.1983H11.1463C11.1635 15.1983 11.1805 15.1949 11.1964 15.1883C11.2123 15.1817 11.2268 15.1721 11.239 15.1599C11.2511 15.1477 11.2608 15.1333 11.2674 15.1174C11.2739 15.1015 11.2773 15.0844 11.2773 15.0672V9.95892H12.6299C12.663 9.95899 12.6949 9.94644 12.7191 9.92384C12.7433 9.90123 12.7579 9.87025 12.7601 9.83721L12.8903 8.29807C12.8919 8.27998 12.8897 8.26176 12.8838 8.24458C12.878 8.2274 12.8686 8.21162 12.8563 8.19826C12.844 8.1849 12.8291 8.17425 12.8124 8.16699C12.7958 8.15972 12.7778 8.15601 12.7597 8.15608H11.2777V7.06602C11.2777 6.94315 11.3266 6.82531 11.4134 6.73842C11.5003 6.65154 11.6182 6.60273 11.741 6.60273H12.784C12.8188 6.60273 12.8521 6.58893 12.8767 6.56435C12.9013 6.53978 12.9151 6.50645 12.9151 6.4717V4.93255C12.9151 4.8978 12.9013 4.86447 12.8767 4.83989C12.8521 4.81532 12.8188 4.80151 12.784 4.80151H11.0218C10.5252 4.80162 10.049 4.99896 9.69788 5.35013C9.34678 5.70131 9.14955 6.17755 9.14955 6.67413V8.15811H8.21648C8.1818 8.15811 8.14853 8.17186 8.12397 8.19634C8.09941 8.22083 8.08556 8.25405 8.08545 8.28873V9.82788C8.08545 9.86263 8.09925 9.89596 8.12383 9.92054C8.1484 9.94511 8.18173 9.95892 8.21648 9.95892H9.14955V10.0409Z" fill="#009EA0"/>
<path d="M10.5 20C4.986 20 0.5 15.514 0.5 10C0.5 4.486 4.986 0 10.5 0C16.014 0 20.5 4.486 20.5 10C20.5 15.514 16.014 20 10.5 20ZM10.5 0.770791C5.40872 0.770791 1.27079 4.90872 1.27079 10C1.27079 15.0913 5.40872 19.2292 10.5 19.2292C15.5913 19.2292 19.7292 15.0913 19.7292 10C19.7292 4.90872 15.5913 0.770791 10.5 0.770791Z" fill="#009EA0"/>
</g>
<defs>
<clipPath id="clip0_983_50">
<rect width="20" height="20" fill="white" transform="translate(0.5)"/>
</clipPath>
</defs>
</svg>
