<svg width="20" height="20" viewBox="0 0 20 20" fill="none" xmlns="http://www.w3.org/2000/svg">
<path d="M1.25 5.62519L9.54187 3.84831C9.84387 3.78363 10.1561 3.78363 10.4581 3.84831L18.75 5.62519V15.5002C18.75 16.3621 18.4076 17.1888 17.7981 17.7983C17.1886 18.4078 16.362 18.7502 15.5 18.7502H4.5C3.63805 18.7502 2.8114 18.4078 2.2019 17.7983C1.59241 17.1888 1.25 16.3621 1.25 15.5002V5.62519Z" fill="#B4ACBC"/>
<path d="M1.875 6.81562V15.3125C1.875 16.0584 2.17132 16.7738 2.69876 17.3012C3.22621 17.8287 3.94158 18.125 4.6875 18.125H14.6875L18.125 14.5831V6.81562L10 5.625L1.875 6.81562Z" fill="#F3EEF8"/>
<path d="M5.125 8.125C5.09185 8.125 5.06005 8.13817 5.03661 8.16161C5.01317 8.18505 5 8.21685 5 8.25V9.875C5 9.94375 5.05625 10 5.125 10H6.75C6.78315 10 6.81495 9.98683 6.83839 9.96339C6.86183 9.93995 6.875 9.90815 6.875 9.875V8.25C6.875 8.21685 6.86183 8.18505 6.83839 8.16161C6.81495 8.13817 6.78315 8.125 6.75 8.125H5.125ZM9.1875 8.125C9.15435 8.125 9.12255 8.13817 9.09911 8.16161C9.07567 8.18505 9.0625 8.21685 9.0625 8.25V9.875C9.0625 9.94375 9.11875 10 9.1875 10H10.8125C10.8457 10 10.8774 9.98683 10.9009 9.96339C10.9243 9.93995 10.9375 9.90815 10.9375 9.875V8.25C10.9375 8.21685 10.9243 8.18505 10.9009 8.16161C10.8774 8.13817 10.8457 8.125 10.8125 8.125H9.1875ZM13.125 8.25C13.125 8.18125 13.1813 8.125 13.25 8.125H14.875C14.9437 8.125 15 8.18125 15 8.25V9.875C15 9.90815 14.9868 9.93995 14.9634 9.96339C14.9399 9.98683 14.9082 10 14.875 10H13.25C13.2168 10 13.1851 9.98683 13.1616 9.96339C13.1382 9.93995 13.125 9.90815 13.125 9.875V8.25ZM5.125 11.25C5.09185 11.25 5.06005 11.2632 5.03661 11.2866C5.01317 11.3101 5 11.3418 5 11.375V13C5 13.0687 5.05625 13.125 5.125 13.125H6.75C6.78315 13.125 6.81495 13.1118 6.83839 13.0884C6.86183 13.0649 6.875 13.0332 6.875 13V11.375C6.875 11.3418 6.86183 11.3101 6.83839 11.2866C6.81495 11.2632 6.78315 11.25 6.75 11.25H5.125ZM9.0625 11.375C9.0625 11.3063 9.11875 11.25 9.1875 11.25H10.8125C10.8812 11.25 10.9375 11.3063 10.9375 11.375V13C10.9375 13.0332 10.9243 13.0649 10.9009 13.0884C10.8774 13.1118 10.8457 13.125 10.8125 13.125H9.1875C9.15435 13.125 9.12255 13.1118 9.09911 13.0884C9.07567 13.0649 9.0625 13.0332 9.0625 13V11.375ZM5.125 14.375C5.09185 14.375 5.06005 14.3882 5.03661 14.4116C5.01317 14.4351 5 14.4668 5 14.5V16.125C5 16.1937 5.05625 16.25 5.125 16.25H6.75C6.78315 16.25 6.81495 16.2368 6.83839 16.2134C6.86183 16.1899 6.875 16.1582 6.875 16.125V14.5C6.875 14.4668 6.86183 14.4351 6.83839 14.4116C6.81495 14.3882 6.78315 14.375 6.75 14.375H5.125ZM9.0625 14.5C9.0625 14.4313 9.11875 14.375 9.1875 14.375H10.8125C10.8812 14.375 10.9375 14.4313 10.9375 14.5V16.125C10.9375 16.1582 10.9243 16.1899 10.9009 16.2134C10.8774 16.2368 10.8457 16.25 10.8125 16.25H9.1875C9.15435 16.25 9.12255 16.2368 9.09911 16.2134C9.07567 16.1899 9.0625 16.1582 9.0625 16.125V14.5ZM13.25 14.375C13.2168 14.375 13.1851 14.3882 13.1616 14.4116C13.1382 14.4351 13.125 14.4668 13.125 14.5V16.125C13.125 16.1937 13.1813 16.25 13.25 16.25H14.875C14.9082 16.25 14.9399 16.2368 14.9634 16.2134C14.9868 16.1899 15 16.1582 15 16.125V14.5C15 14.4668 14.9868 14.4351 14.9634 14.4116C14.9399 14.3882 14.9082 14.375 14.875 14.375H13.25ZM18.7563 16.4V14.375L15.9375 15.9375L14.3813 18.75H16.4062C17.7063 18.75 18.7563 17.6937 18.7563 16.4Z" fill="#998EA4"/>
<path d="M14.3813 16.725V18.75L18.7563 14.375H16.7313C15.4376 14.375 14.3813 15.4313 14.3813 16.725Z" fill="#E1D8EC"/>
<path d="M18.75 5.49092V6.87529H1.25V5.49092C1.25 4.18217 2.30625 3.11904 3.59937 3.12529H15.6475L16.1025 2.76904L16.585 3.13279C17.7925 3.22654 18.75 4.24529 18.75 5.49092ZM13.25 11.2503C13.2168 11.2503 13.1851 11.2635 13.1616 11.2869C13.1382 11.3103 13.125 11.3421 13.125 11.3753V13.0003C13.125 13.069 13.1813 13.1253 13.25 13.1253H14.875C14.9082 13.1253 14.9399 13.1121 14.9634 13.0887C14.9868 13.0652 15 13.0334 15 13.0003V11.3753C15 11.3421 14.9868 11.3103 14.9634 11.2869C14.9399 11.2635 14.9082 11.2503 14.875 11.2503H13.25Z" fill="#009EA0"/>
<path d="M7.20004 3.12522C7.16165 3.37435 7.20951 3.62911 7.33567 3.84734C7.46183 4.06557 7.65873 4.23416 7.89379 4.32522C8.09879 4.40522 8.28129 4.57709 8.28129 4.79646C8.28129 5.09459 8.03441 5.34334 7.74691 5.26397C7.28488 5.1357 6.88266 4.84906 6.61062 4.45419C6.33858 4.05933 6.21404 3.58138 6.25879 3.10397C6.2256 2.91354 6.1431 2.73514 6.01951 2.58652C5.89591 2.43791 5.73553 2.32427 5.55435 2.25693C5.37316 2.18959 5.1775 2.1709 4.98684 2.20273C4.79618 2.23455 4.61719 2.31577 4.4677 2.4383C4.3182 2.56083 4.20342 2.72039 4.13479 2.90109C4.06616 3.08179 4.04607 3.27732 4.07653 3.4682C4.10699 3.65907 4.18693 3.83864 4.30839 3.98901C4.42984 4.13938 4.58858 4.25529 4.76879 4.32522C4.97379 4.40459 5.15629 4.57647 5.15629 4.79584C5.15629 5.09397 4.90941 5.34271 4.62191 5.26334C4.14648 5.13031 3.73525 4.82972 3.46417 4.41711C3.19309 4.00449 3.08048 3.50772 3.14714 3.01855C3.2138 2.52937 3.45523 2.08085 3.82683 1.75581C4.19843 1.43077 4.67509 1.25118 5.16879 1.25022C5.79566 1.25022 6.35629 1.53209 6.73129 1.97647C6.92286 1.74862 7.16204 1.56552 7.43199 1.44005C7.70194 1.31457 7.9961 1.24978 8.29379 1.25022C8.92066 1.25022 9.48129 1.53209 9.85629 1.97647C10.0479 1.74862 10.287 1.56552 10.557 1.44005C10.8269 1.31457 11.1211 1.24978 11.4188 1.25022C12.0457 1.25022 12.6063 1.53209 12.9813 1.97647C13.2421 1.66709 13.5889 1.4421 13.9777 1.33C14.3665 1.2179 14.7798 1.22373 15.1653 1.34675C15.5507 1.46978 15.891 1.70447 16.143 2.02107C16.395 2.33768 16.5473 2.72196 16.5807 3.12522H15.6369C15.5969 2.86598 15.4661 2.62939 15.2678 2.45768C15.0695 2.28596 14.8167 2.19029 14.5544 2.18774C14.2921 2.18518 14.0374 2.27592 13.8358 2.44374C13.6342 2.61156 13.4988 2.84556 13.4538 3.10397L13.4557 3.12522H13.45C13.4117 3.37435 13.4595 3.62911 13.5857 3.84734C13.7118 4.06557 13.9087 4.23416 14.1438 4.32522C14.3488 4.40522 14.5313 4.57709 14.5313 4.79646C14.5313 5.09459 14.2844 5.34334 13.9969 5.26397C13.5349 5.1357 13.1327 4.84906 12.8606 4.45419C12.5886 4.05933 12.464 3.58138 12.5088 3.10397C12.4643 2.84716 12.3305 2.61431 12.1311 2.44648C11.9317 2.27866 11.6794 2.18663 11.4188 2.18663C11.1581 2.18663 10.9059 2.27866 10.7065 2.44648C10.507 2.61431 10.3733 2.84716 10.3288 3.10397L10.3307 3.12522H10.325C10.2867 3.37435 10.3345 3.62911 10.4607 3.84734C10.5868 4.06557 10.7837 4.23416 11.0188 4.32522C11.2238 4.40522 11.4063 4.57709 11.4063 4.79646C11.4063 5.09459 11.1594 5.34334 10.8719 5.26397C10.4099 5.1357 10.0077 4.84906 9.73562 4.45419C9.46358 4.05933 9.33904 3.58138 9.38379 3.10397C9.33928 2.84716 9.20552 2.61431 9.00611 2.44648C8.80669 2.27866 8.55442 2.18663 8.29379 2.18663C8.03315 2.18663 7.78088 2.27866 7.58146 2.44648C7.38205 2.61431 7.24829 2.84716 7.20379 3.10397L7.20566 3.12522H7.20004Z" fill="#CDC4D6"/>
</svg>
