<svg width="20" height="20" viewBox="0 0 20 20" fill="none" xmlns="http://www.w3.org/2000/svg">
<path d="M14.5043 15.3624C13.1249 15.9374 11.9061 16.2499 10.3124 16.2499C8.56988 16.2499 7.49988 15.9374 5.81051 15.0874L4.19426 16.4855C3.32301 17.2424 3.81863 18.7499 4.94051 18.7499H15.0561C16.1786 18.7499 16.6805 17.2424 15.8024 16.4855L14.5043 15.3624Z" fill="#D3D3D3"/>
<path d="M10.3125 16.875C13.9369 16.875 16.875 13.9369 16.875 10.3125C16.875 6.68813 13.9369 3.75 10.3125 3.75C6.68813 3.75 3.75 6.68813 3.75 10.3125C3.75 13.9369 6.68813 16.875 10.3125 16.875Z" fill="#009EA0"/>
<path d="M10.3125 15C11.5557 15 12.748 14.5061 13.6271 13.6271C14.5061 12.748 15 11.5557 15 10.3125C15 9.0693 14.5061 7.87701 13.6271 6.99794C12.748 6.11886 11.5557 5.625 10.3125 5.625C9.0693 5.625 7.87701 6.11886 6.99794 6.99794C6.11886 7.87701 5.625 9.0693 5.625 10.3125C5.625 11.5557 6.11886 12.748 6.99794 13.6271C7.87701 14.5061 9.0693 15 10.3125 15Z" fill="white"/>
<path d="M2.67052 5.76735C2.21114 4.33985 2.69489 2.71547 3.94114 1.8336C5.18739 0.951723 6.80864 1.09735 7.89114 2.0811C8.22989 2.39172 8.19364 2.9561 7.82489 3.21672L3.69927 6.12922C3.32427 6.38922 2.81552 6.21172 2.67052 5.76735ZM17.9543 5.76735C18.4136 4.33985 17.9299 2.71547 16.6836 1.8336C15.4374 0.951723 13.8161 1.09735 12.7336 2.0811C12.3949 2.39172 12.4311 2.9561 12.7999 3.21672L16.9255 6.12922C17.3005 6.38922 17.8093 6.21172 17.9543 5.76735Z" fill="#D3D3D3"/>
<path d="M9.48011 10.2777C9.52565 10.2094 9.58421 10.1508 9.65242 10.1051C9.72064 10.0595 9.79718 10.0277 9.87768 10.0116C9.95818 9.99554 10.0411 9.99548 10.1216 10.0114C10.2021 10.0274 10.2787 10.0591 10.347 10.1046L12.222 11.3546C12.3599 11.4466 12.4556 11.5896 12.4881 11.7522C12.5205 11.9148 12.4871 12.0836 12.3951 12.2215C12.3031 12.3594 12.1601 12.4551 11.9975 12.4876C11.835 12.5201 11.6661 12.4866 11.5282 12.3946L9.65323 11.1446C9.58494 11.0991 9.52628 11.0405 9.48062 10.9723C9.43496 10.9041 9.40318 10.8275 9.3871 10.747C9.37103 10.6665 9.37097 10.5837 9.38692 10.5031C9.40288 10.4226 9.43455 10.346 9.48011 10.2777Z" fill="#009EA0"/>
<path d="M10 6.875C10.1658 6.875 10.3247 6.94085 10.4419 7.05806C10.5592 7.17527 10.625 7.33424 10.625 7.5V10.625C10.625 10.7908 10.5592 10.9497 10.4419 11.0669C10.3247 11.1842 10.1658 11.25 10 11.25C9.83424 11.25 9.67527 11.1842 9.55806 11.0669C9.44085 10.9497 9.375 10.7908 9.375 10.625V7.5C9.375 7.33424 9.44085 7.17527 9.55806 7.05806C9.67527 6.94085 9.83424 6.875 10 6.875Z" fill="#212121"/>
</svg>
